<svg width="22" height="28" viewBox="0 0 22 28" fill="none" xmlns="http://www.w3.org/2000/svg">
<path d="M10.6078 0.00712649C5.12938 0.202319 0.57815 4.54248 0.0523566 10.0825C-0.0550636 11.1905 0.00712712 12.2641 0.199353 13.2917C0.199353 13.2917 0.216314 13.4122 0.272851 13.6419C0.442462 14.4112 0.696878 15.1575 1.01348 15.8579C2.11596 18.5102 4.66577 22.948 10.3873 27.7761C10.7378 28.0746 11.2523 28.0746 11.6085 27.7761C17.33 22.9537 19.8799 18.5159 20.988 15.8521C21.3102 15.1518 21.559 14.4112 21.7286 13.6361C21.7795 13.4122 21.8021 13.2859 21.8021 13.2859C21.9322 12.597 22 11.8909 22 11.1675C22 4.86397 16.8608 -0.216771 10.6078 0.00712649ZM10.9979 16.7248C8.04668 16.7248 5.65517 14.2964 5.65517 11.2996C5.65517 8.3028 8.04668 5.87438 10.9979 5.87438C13.9491 5.87438 16.3407 8.3028 16.3407 11.2996C16.3407 14.2964 13.9491 16.7248 10.9979 16.7248Z" fill="#F39200"/>
</svg>
