<svg width="504" height="504" viewBox="0 0 504 504" fill="none" xmlns="http://www.w3.org/2000/svg">
<path d="M217.617 41.4941L217.915 41.5234C220.037 41.8697 221.877 43.3337 223.115 45.0338C223.669 45.7932 223.735 45.7769 223.587 46.7085C222.602 46.566 221.675 46.221 220.727 45.9269C219.495 45.5445 217.956 45.007 217.423 43.692C217.061 42.7984 217.304 42.3191 217.617 41.4941Z" fill="white"/>
<path d="M427.19 331.748L427.466 331.897C428.231 332.486 428.127 332.72 428.162 333.58C426.97 334.577 425.421 335.051 424.019 335.687C421.972 336.615 419.983 337.56 417.876 338.353L416.759 337.604C416.652 336.886 416.699 336.805 417.005 336.139L427.19 331.748Z" fill="white"/>
<path d="M174.013 314L175.505 314.269C176.489 314.524 177.361 315.297 177.84 316.186C178.428 317.278 178.565 318.884 178.108 320.045C177.442 321.738 176.123 322.377 174.542 323.016L172.953 322.723C171.804 322.393 170.916 321.519 170.41 320.457C169.916 319.42 169.986 318.561 170.403 317.501C171.099 315.732 172.323 314.734 174.013 314Z" fill="white"/>
<path d="M174.212 316.207C174.944 316.412 175.308 316.618 175.901 317.092C176.106 317.53 176.375 317.853 176.301 318.349C176.118 319.564 175.424 320.061 174.46 320.721L173.128 320.55C172.584 320.116 172.207 319.958 172.211 319.184C172.218 317.912 173.278 316.892 174.212 316.207Z" fill="#F39200"/>
<path d="M353.477 184.193C353.878 184.402 354.153 184.632 354.497 184.921C354.796 185.935 353.693 188.273 353.328 189.37C354.986 188.555 356.497 187.771 358.408 187.901C359.182 188.342 359.18 188.275 359.427 189.123C358.605 189.845 357.65 189.625 356.614 189.88C355.759 190.091 354.916 190.486 354.104 190.824C355.501 192.135 357.499 193.603 358.028 195.522C357.668 196.147 357.645 196.115 356.958 196.362C355.611 195.025 354.368 193.642 352.85 192.49L352.57 192.281C351.094 192.406 350.562 195.669 349.576 196.658C348.835 196.596 348.785 196.658 348.272 196.137C348.537 194.122 349.598 192.661 350.74 191.049C349.424 190.341 345.839 189.051 345.277 187.77L345.573 187.154C347.337 186.858 349.754 188.491 351.361 189.287C351.93 187.56 352.334 185.635 353.477 184.193Z" fill="white"/>
<path d="M109.915 271.83C111.876 272.412 112.251 274.557 113.798 275.727C114.836 276.513 116.386 276.811 117.615 277.224L117.842 277.716L117.509 278.578C116.201 279.236 114.293 279.303 112.839 279.74L112.504 279.843L111.564 283.592C110.933 284.421 110.617 284.496 109.634 284.666C109.464 284.57 109.247 284.53 109.125 284.378C109.013 284.239 108.899 283.291 108.855 283.08C108.617 281.972 108.337 280.923 107.945 279.861L107.818 279.521L105.45 279.039C105.042 278.488 105.013 278.4 104.955 277.716C105.493 276.852 106.644 276.473 107.534 276.042C108.409 274.66 108.676 272.929 109.915 271.83Z" fill="white"/>
<path d="M245.057 390.119C245.761 390.187 246.556 390.249 247.201 390.562C247.917 390.907 248.66 391.676 248.861 392.454C249.266 394.019 248.648 395.631 247.795 396.926C246.02 399.621 243.168 401.656 240.009 402.334C239.128 402.322 238.259 402.333 237.481 401.863C236.824 401.467 236.192 400.802 236.045 400.026C235.691 398.159 236.596 396.286 237.647 394.801C239.421 392.293 242.037 390.628 245.057 390.119Z" fill="white"/>
<path d="M243.974 392.3L244.584 392.239C245.571 392.186 245.996 392.255 246.742 392.889C246.835 393.451 246.923 393.893 246.79 394.458C246.171 397.094 243.084 398.942 240.84 400.027C240.574 400.097 240.494 400.128 240.188 400.154C239.29 400.232 238.985 400.144 238.283 399.606C238.133 398.954 238.168 398.516 238.351 397.886C239.123 395.228 241.672 393.545 243.974 392.3Z" fill="#F39200"/>
<path d="M458.244 312.847C459.584 312.713 461.111 312.636 462.449 312.818C464.031 313.031 465.568 314.036 466.503 315.311C467.446 316.598 467.534 318.479 467.254 320.015C466.493 324.198 463.014 327.951 459.56 330.218C458.755 330.746 457.982 331.219 456.997 331.007C456.409 330.456 456.34 330.349 456.113 329.576C456.901 328.533 458.132 327.984 459.195 327.254C460.262 326.522 461.216 325.679 462.066 324.704C463.685 322.845 465.372 320.251 465.084 317.649C464.979 316.689 464.481 315.824 463.681 315.285C462.191 314.28 460.179 314.177 458.473 314.56C455.221 315.288 452.172 317.159 449.437 318.991C448.627 319.533 447.426 320.199 446.91 321.03C447.657 322.208 447.85 323.14 447.61 324.541C447.387 325.834 446.173 327.279 445.09 327.957C444.542 328.3 444.445 328.406 443.831 328.245C443.74 328.055 443.561 327.885 443.559 327.674C443.559 327.634 444.05 326.989 444.089 326.935C444.864 325.856 445.833 324.804 445.894 323.398C445.923 322.721 445.853 322.63 445.43 322.157L444.248 322.671C443.591 322.618 442.829 322.407 442.231 322.127C441.689 321.872 441.454 321.575 441.267 321.03C441.482 320.566 441.616 320.203 442.002 319.854L442.232 319.676C441.944 319.253 442.066 319.334 441.637 319.074C440.484 318.376 438.482 318.413 437.224 318.807C435.57 319.324 434.055 320.41 433.262 321.984C432.741 323.017 432.448 324.479 432.918 325.577C433.602 327.172 435.783 327.67 437.272 328.173C436.829 327.558 436.24 326.854 435.965 326.146C435.716 325.504 435.921 324.802 436.183 324.201C436.636 323.155 437.241 322.594 438.294 322.194L438.527 322.506C437.928 323.698 437.666 324.437 437.879 325.781C438.2 326.33 438.421 326.594 438.959 326.944C439.429 327.251 439.822 327.547 440.241 327.92C440.077 328.576 439.723 328.918 439.279 329.397C438.776 329.581 438.361 329.743 437.816 329.716C435.837 329.618 433.343 328.987 431.972 327.488C431.044 326.472 430.657 325.016 430.783 323.655C430.974 321.576 432.059 319.778 433.723 318.522C435.596 317.107 438.04 316.442 440.353 316.882C442.622 317.313 443.884 318.465 445.105 320.357C448.67 316.656 453.25 314.01 458.244 312.847Z" fill="white"/>
<path d="M307.421 45.9414L307.629 46.0354C308.701 46.8303 309.243 49.9222 309.657 51.2166C311.321 56.4136 313.028 61.587 314.611 66.8101C316.659 64.1262 319.001 62.659 322.26 61.7937C323.018 62.0428 323.06 62.1166 323.553 62.7535C323.568 63.9279 323.193 64.4043 322.426 65.302C320.504 67.5508 318.239 68.7941 315.295 69.0008C315.644 70.9135 316.136 72.8015 316.45 74.7191C316.497 75.0011 316.728 75.9239 316.665 76.1656C316.593 76.4476 316.354 76.6578 316.199 76.9039L315.615 76.9846C315.334 76.6558 315.148 76.3856 315.01 75.9702C314.192 73.5162 313.827 70.8967 313.065 68.4137C311.065 61.8971 308.871 55.4012 306.754 48.9176L293.227 58.7687C287.474 63.0025 281.701 67.2122 275.979 71.4883C273.473 73.3611 270.989 75.2629 268.464 77.1091C267.572 77.7608 266.328 78.8948 265.289 79.2309C264.614 79.449 264.179 79.451 263.582 79.1187C263.874 78.2702 264.93 77.4222 265.603 76.8552C267.766 75.0336 270.159 73.4084 272.413 71.697C277.769 67.6286 283.17 63.6252 288.601 59.6571C294.843 55.0951 300.96 50.1776 307.421 45.9414Z" fill="white"/>
<path d="M254.604 112.797C258.576 112.279 262.998 113.237 266.298 115.531C269.874 118.018 272.548 122.128 273.273 126.445C274.875 135.988 268.739 143.016 260.66 147.048C258.313 148.219 255.429 148.959 253.315 150.496C251.21 152.027 249.491 154.52 248.004 156.629C247.08 158.174 245.445 161.785 243.768 162.386C243.166 162.601 242.111 162.585 241.551 162.255C240.871 161.853 240.202 161.019 240.089 160.221C239.933 159.128 240.731 157.446 241.049 156.394C242.041 153.112 243.4 147.974 242.061 144.666L241.917 144.334C240.184 140.289 237.272 137.33 236.56 132.763C235.888 128.453 237.189 124.171 239.792 120.738C243.444 115.922 248.753 113.551 254.604 112.797Z" fill="white"/>
<path d="M254.374 114.76C255.842 114.607 257.3 114.601 258.768 114.769C262.732 115.223 266.255 117.288 268.621 120.482C271.063 123.778 271.985 127.925 271.374 131.966C270.427 138.226 265.036 142.681 259.697 145.333C256.782 146.781 253.971 147.691 251.33 149.664C249.443 151.098 247.912 153.144 246.44 154.984C246.455 153.045 246.478 150.975 245.984 149.092C245.495 147.233 244.971 145.478 244.08 143.767C241.97 139.718 239.376 136.974 238.593 132.234C238.022 128.784 239.203 124.79 241.254 122.006C244.344 117.815 249.34 115.499 254.374 114.76Z" fill="#F39200"/>
<path d="M256.62 131.822L257.607 132.455L257.647 133.014L254.423 136.28L253.281 135.548L253.172 134.983L256.62 131.822Z" fill="white"/>
<path d="M255.359 120.916C255.925 121.265 256.165 121.3 256.401 121.939C255.427 123.627 254.057 125.073 252.797 126.551C251.021 128.636 249.264 130.746 247.373 132.728C246.877 132.362 246.552 131.877 246.395 131.291L255.359 120.916Z" fill="white"/>
<path d="M335.802 65.8184L336.533 66.1147C337.445 67.0759 337.548 69.0963 337.892 70.3731C338.809 73.7687 339.784 77.1505 340.727 80.5392C352.551 81.9001 364.681 82.4774 376.027 86.4056C383.496 88.992 389.27 93.4389 392.708 100.651C397.514 110.735 395.993 122.656 393.489 133.12C392.14 138.76 390.458 144.341 388.483 149.793C394.319 158.207 399.687 166.574 404.496 175.632C406.69 179.765 408.492 184.096 410.679 188.219C411.906 186.567 413.873 183.258 416.021 182.894C417.258 182.684 418.443 182.79 419.568 183.341C421.722 184.395 423.895 186.395 425.856 187.835C430.046 190.911 434.269 193.942 438.465 197.01C438.272 194.7 438.089 192.39 437.891 190.08C437.688 187.713 436.959 185.167 438.299 183.004C438.917 182.005 439.932 181.115 441.122 180.91C442.485 180.674 443.816 180.918 444.912 181.772C445.574 182.289 446.138 182.946 446.385 183.76C446.848 185.29 446.869 187.168 447.044 188.771C447.609 193.929 447.86 199.118 448.449 204.27C452.911 208.075 457.86 211.493 462.464 215.149C464.434 216.714 468.493 219.154 469.096 221.646C469.325 222.592 469.106 223.884 468.578 224.702C467.995 225.603 467.062 226.438 465.978 226.63C464.567 226.879 463.171 226.343 461.97 225.65C460.388 224.739 458.943 223.452 457.488 222.345C455.098 220.526 452.685 218.734 450.274 216.943C443.865 212.179 437.407 207.468 430.966 202.748C426.809 199.701 422.72 196.539 418.423 193.691L384.072 234.945C383.022 236.136 381.601 236.083 380.134 236.18C379.334 235.814 378.568 235.429 377.873 234.881C376.621 233.892 375.375 232.218 375.286 230.568C375.235 229.639 375.553 228.898 376.033 228.12C377.06 226.459 378.447 224.958 379.692 223.452C381.99 220.672 384.33 217.941 386.69 215.214C393.968 206.805 401.282 198.434 408.731 190.175C405.724 183.869 402.865 177.541 399.501 171.408C394.42 162.142 388.427 152.857 381.688 144.702C372.324 133.373 361.722 123.446 350.878 113.574L360.665 138.364C362.381 142.573 364.1 146.778 365.775 151.003C366.346 152.44 367.325 154.106 367.419 155.653C367.058 156.121 366.863 156.31 366.31 156.523C364.307 156.011 361.945 153.877 360.177 152.676C356.146 149.936 352.117 147.202 348.028 144.548C333.62 135.199 319.332 125.651 304.929 116.292C290.996 107.237 276.944 98.3534 263.001 89.308C260.422 87.6346 257.853 85.9006 255.212 84.3271C253.703 83.4283 252.17 82.5744 250.621 81.7485C249.396 81.0959 248.051 80.5426 247.119 79.4874C246.934 78.3662 247.155 77.2396 247.689 76.233C248.157 75.3515 248.587 74.9263 249.538 74.6113C254.297 75.8437 259.005 78.0886 263.632 79.7719C268.931 81.6998 274.282 83.4982 279.583 85.4384C281.292 86.0645 283.556 86.5463 285.014 87.6075C284.986 88.2852 284.92 88.3079 284.484 88.8399C283.011 88.9477 281.546 88.3812 280.13 88.0214C277.582 87.3747 275.042 86.6945 272.487 86.0778C267.148 84.7892 261.685 83.4416 256.231 82.7703L364.466 153.195L335.358 69.1185L322.763 82.3313C323.866 83.9451 324.638 85.5694 325.287 87.4116C326.673 91.3442 326.703 95.3988 324.855 99.1749C323.133 102.692 320.324 105.261 316.578 106.478C313.007 107.64 309.04 107.59 305.654 105.866C302.2 104.108 299.43 100.951 298.329 97.2061C297.266 93.59 297.866 89.3164 299.693 86.0542C301.731 82.4144 305.003 79.9176 309.04 78.8805C313.923 77.6254 316.994 78.724 321.127 81.2381C324.147 77.7652 327.317 74.377 330.486 71.039C332.178 69.2573 333.796 67.2506 335.802 65.8184Z" fill="white"/>
<path d="M322.283 86.8535C322.523 86.8707 322.716 86.9741 322.937 87.0647C324.192 89.5482 324.669 93.1486 323.972 95.864C323.389 98.133 322.063 100.436 319.929 101.57C318.851 102.143 318.059 102.212 316.898 101.875C315.715 100.963 314.833 100.096 314.35 98.6394C313.61 96.4088 313.684 93.9203 314.825 91.8295C316.436 88.8774 319.265 87.7744 322.283 86.8535Z" fill="#F39200"/>
<path d="M341.365 82.5801C346.216 82.7878 351.141 83.4355 355.948 84.1044C361.435 84.8673 367.033 85.7498 372.34 87.3691C379.594 89.5834 386.203 92.8259 389.88 99.8066C397.032 113.384 392.92 129.127 388.719 142.918L387.104 147.864C379.29 137.786 370.524 128.566 361.252 119.827C357.541 116.33 353.753 112.668 349.624 109.67L341.365 82.5801Z" fill="#F39200"/>
<path d="M310.109 156.076C311.432 155.989 312.681 155.893 313.892 156.54C315.615 157.46 316.631 158.742 317.17 160.603C319.237 167.739 314.6 175.805 311.208 181.799C311.796 182.086 312.554 182.503 312.946 183.045C313.534 183.856 313.378 185.787 313.15 186.714L313.067 187.031C311.98 191.284 309.982 195.314 308.076 199.248C306.13 203.266 304.187 207.295 302.309 211.347C299.836 216.684 297.716 222.629 294.701 227.661C293.89 229.014 293.327 229.68 291.744 230.066C290.55 229.719 289.433 228.117 288.597 227.206L285.452 234.485C290.406 238.349 295.08 242.498 300.162 246.217C307.743 251.763 315.578 256.891 323.367 262.132C330.296 266.795 337.175 271.535 344.11 276.19C346.091 277.521 354.869 282.696 355.505 284.608C354.633 285.795 353.166 286.609 351.962 287.456C350 288.835 348.059 290.247 346.115 291.651C338.47 297.175 330.842 302.704 323.157 308.171C316.818 312.679 310.616 317.381 304.29 321.909C290.784 331.579 277.17 341.096 263.611 350.692C258.779 354.11 253.937 357.513 249.092 360.913C247.328 362.151 245.76 363.598 243.854 364.625C241.885 363.707 240.372 362.171 238.727 360.791C236.606 359.013 234.294 357.279 232.417 355.246C230.616 353.297 229.096 350.986 227.521 348.851C225.01 345.446 222.482 342.045 219.927 338.674C211.948 328.152 203.568 317.757 194.563 308.094C191.072 303.862 186.971 299.889 183.157 295.936C177.054 289.613 171.059 283.181 165.016 276.801C158.784 270.221 152.476 263.8 147.196 256.401C142.362 249.626 138.641 242.106 135.085 234.609C131.982 228.068 128.952 221.519 126.07 214.876L174.63 193.683C173.779 191.654 173.285 189.789 173.591 187.57C173.968 184.846 175.679 182.169 177.912 180.566C180.496 178.712 183.27 177.928 186.438 178.474C189.579 179.015 191.92 180.888 193.751 183.393L226.366 165.811C227.524 168.018 228.133 170.635 228.962 172.989C230.431 177.159 232.025 181.246 233.91 185.247C239.952 198.078 249.081 209.759 258.925 219.9C262.626 223.712 266.575 227.224 270.407 230.896C274.269 223.376 277.797 215.665 281.425 208.03C285.806 198.808 290.283 189.637 294.718 180.443C296.474 176.802 298.243 173.162 299.969 169.508C301.383 166.514 302.645 163.414 304.525 160.672C306.069 158.422 307.522 157.058 310.109 156.076Z" fill="white"/>
<path d="M300.284 174.158C303.885 174.737 307.312 176.97 310.467 178.742L309.458 180.902C306.218 178.566 303.132 177.446 299.484 175.971C299.395 175.314 299.947 174.723 300.284 174.158Z" fill="#F39200"/>
<path d="M183.48 181.369C184.484 181.445 185.427 181.518 186.332 181.986C186.594 182.48 186.703 182.523 186.647 183.113C186.469 184.971 183.78 186.702 182.424 187.818C181.942 188.187 181.397 188.483 180.878 188.797L180.432 188.631C180.37 187.869 180.335 187.134 180.485 186.381C180.913 184.228 181.613 182.615 183.48 181.369Z" fill="#F39200"/>
<path d="M311.2 158.02L312.18 158.149C313.239 158.348 313.965 159.083 314.544 159.962C315.899 162.02 315.349 165.608 314.937 167.912L311.689 165.874C309.713 164.794 307.777 164.022 305.66 163.276C305.869 162.769 306.079 162.29 306.364 161.82C307.565 159.833 308.931 158.599 311.2 158.02Z" fill="#F39200"/>
<path d="M310.525 183.711C310.972 183.957 310.783 183.772 311.027 184.325C305.507 194.6 300.702 205.214 295.87 215.826C294.279 219.323 292.903 222.955 291.211 226.397C291.025 226.777 290.807 226.817 290.452 227.027C289.966 226.589 289.384 226.19 289.182 225.546L310.525 183.711Z" fill="#F39200"/>
<path d="M261.053 254.203C262.223 254.172 263.294 254.182 264.427 254.501C267.73 255.43 270.302 256.572 271.987 259.733C270.771 263.403 268.261 265.659 265.653 268.366L262.549 271.608C260.956 270.099 259.584 269.044 257.5 268.277C258.039 266.078 258.565 263.874 258.989 261.65C259.439 259.288 259.632 256.215 261.053 254.203Z" fill="#F39200"/>
<path d="M298.192 178.033L308.327 182.928C305.469 187.76 303.072 192.995 300.532 198.012C296.12 206.727 291.74 215.46 287.607 224.313C284.865 230.188 282.35 236.168 279.6 242.043C278.219 244.993 276.86 247.951 275.626 250.967C274.762 253.077 274.057 255.814 272.824 257.704C269.741 254.406 266.597 253.495 262.332 252.414L298.192 178.033Z" fill="#F39200"/>
<path d="M225.396 168.564C226.295 169.425 226.937 172.709 227.38 174.004C228.339 176.809 229.413 179.593 230.544 182.333C231.922 185.673 233.52 188.943 235.321 192.076C244.216 207.55 256.305 220.683 269.484 232.6L259.02 253.773C255.811 255.443 252.674 257.849 249.667 259.879C244.04 263.676 238.418 267.481 232.784 271.268C228.618 274.068 224.444 276.858 220.269 279.645C218.346 280.929 216.043 282.182 214.315 283.703C213.751 284.199 213.672 284.498 213.617 285.223C213.967 285.703 214.042 285.743 214.593 285.97C216.197 285.707 218.342 283.768 219.746 282.822C222.91 280.688 226.1 278.591 229.268 276.461C238.819 270.035 248.631 263.929 257.879 257.065L254.719 272.426C254.435 273.705 252.579 280.928 252.896 281.901C252.967 282.117 253.141 282.283 253.263 282.474C253.601 282.635 253.761 282.828 254.145 282.685C255.355 282.232 256.72 280.134 257.658 279.194C262.311 274.528 267.486 270.104 271.614 264.96C272.586 263.749 273.211 262.199 273.869 260.8L274.68 261.568C275.424 262.22 275.936 262.508 276.909 262.46C277.409 261.964 277.404 261.992 277.448 261.291C276.849 260.274 275.665 259.718 274.685 259.104L284.6 236.363L352.665 284.355L331.355 299.899L245.097 361.326C245.056 359.072 245.043 356.543 244.499 354.352C243.18 349.034 240.862 344.602 237.347 340.39C232.637 334.743 226.233 330.258 220.853 325.219C210.015 315.069 199.119 304.987 188.077 295.059C184.265 291.632 180.478 288.16 176.58 284.831C174.566 283.111 172.335 281.573 170.412 279.762C168.576 278.035 167.012 276.03 165.291 274.191C161.59 270.239 157.835 266.399 154.35 262.251C146.185 252.535 140.671 241.867 135.391 230.413C133.227 225.722 130.181 220.771 128.932 215.766C145.315 210.8 160.388 202.261 175.92 195.246C176.679 196.011 177.422 196.757 178.355 197.31C181.014 198.888 184.097 199.555 187.115 198.734C190.04 197.939 192.684 195.975 194.124 193.282C195.557 190.6 195.511 187.897 194.601 185.073L225.396 168.564Z" fill="#F39200"/>
<path d="M309.557 286.123L309.754 286.19C310.299 286.496 310.391 286.636 310.586 287.192C310.176 288.494 307.125 290.276 305.981 291.111C300.83 294.869 295.686 298.65 290.505 302.364L290.35 302.299C289.756 301.946 289.665 301.835 289.414 301.219C290.075 299.711 307.021 287.941 309.557 286.123Z" fill="white"/>
<path d="M246.284 283.184L246.518 283.216C247.254 283.424 247.236 283.699 247.548 284.361C247.157 285.44 245.761 286.251 244.84 286.975C241.427 289.655 237.704 291.901 234.158 294.389C232.562 295.508 231.042 296.775 229.487 297.954L228.955 297.805C228.188 297.42 228.216 297.201 228.008 296.42C228.517 295.098 243.956 284.752 246.284 283.184Z" fill="white"/>
<path d="M256.31 238.669L256.834 238.666C257.382 239.111 257.458 239.15 257.661 239.818C256.386 241.308 254.368 242.526 252.753 243.631C248.415 246.598 243.891 249.21 239.449 252.007C232.856 256.156 226.219 260.237 219.632 264.393C213.516 268.252 207.406 272.245 201.03 275.657C200.69 275.516 200.784 275.586 200.529 275.378C199.924 274.888 199.951 274.89 199.855 274.148C200.791 272.752 203.328 271.743 204.802 270.842C208.461 268.604 212.101 266.336 215.748 264.079C229.285 255.698 243.071 247.503 256.31 238.669Z" fill="white"/>
<path d="M243.365 231.014L243.88 231.069C244.61 231.596 244.567 231.841 244.813 232.682C243.878 234.067 228.721 242.183 226.653 243.369C218.154 248.238 209.653 253.107 201.161 257.989C196.511 260.663 191.793 263.241 187.233 266.066C186.685 266.084 186.483 265.959 186.032 265.659C185.737 264.999 185.782 264.852 185.875 264.125C187.137 263.058 188.645 262.419 190.067 261.596C193.552 259.579 197.059 257.603 200.552 255.597C214.803 247.414 229.317 239.53 243.365 231.014Z" fill="white"/>
<path d="M232.968 223.663C233.354 223.627 233.589 223.687 233.963 223.774C234.443 224.396 234.466 224.67 234.497 225.422C233.939 226.438 231.812 227.219 230.744 227.757C227.954 229.162 225.167 230.572 222.396 232.012C205.425 240.828 188.429 250.081 170.952 257.85L169.928 257.86C169.547 257.224 169.514 257.165 169.554 256.429C171.182 254.771 174.911 253.62 177.077 252.605C180.227 251.128 183.346 249.582 186.452 248.016C196.666 242.867 206.792 237.52 216.916 232.197C222.279 229.378 227.736 226.729 232.968 223.663Z" fill="white"/>
<path d="M194.22 205.491C195.291 205.437 196.141 205.348 197.024 206.034C197.846 206.673 198.245 207.437 198.323 208.473C198.404 209.548 197.749 210.494 197.073 211.27C193.345 215.547 189.121 219.51 185.2 223.623C183.444 225.464 181.689 227.305 179.936 229.149C179.005 230.127 178.066 231.304 176.987 232.102C176.512 232.454 175.953 232.552 175.373 232.577C174.948 232.595 174.552 232.571 174.146 232.425C172.876 231.966 171.403 230.3 170.41 229.367C168.668 227.729 166.877 226.167 165.056 224.619C163.722 223.478 161.48 221.972 161.145 220.174C160.96 219.183 161.183 218.121 161.806 217.321C162.245 216.756 162.943 216.378 163.652 216.305C164.172 216.251 164.785 216.268 165.267 216.492C166.419 217.025 167.613 218.29 168.587 219.118C170.8 220.998 172.992 222.898 175.267 224.704C179.054 220.818 182.889 216.979 186.659 213.077C189.107 210.544 191.5 207.725 194.22 205.491Z" fill="white"/>
<path d="M239.759 49.3613C241.579 49.8934 244.494 53.696 245.684 55.1755L259.994 54.5913C260.959 54.6208 261.258 54.64 261.926 55.3552L261.883 56.1102C261.677 56.3253 261.53 56.6201 261.265 56.755C260.509 57.1403 258.115 56.7456 257.16 56.7097C253.665 56.5793 250.106 56.9021 246.617 57.1335L248.922 60.5045C249.795 59.7676 251.082 58.4442 252.152 58.1464C252.656 58.0061 252.775 58.0947 253.194 58.3349L253.221 58.9403C251.838 60.6782 250.358 61.9377 248.485 63.1239C246.78 61.2915 245.386 58.9752 243.946 56.9228C242.25 57.3417 240.51 57.8127 238.966 58.6504C237.084 59.6717 235.275 61.446 233.173 61.9224C232.115 61.2358 231.49 59.4851 230.921 58.3688C223.793 60.0708 216.697 61.4933 209.678 63.6604C201.354 66.2306 193.091 69.446 185.185 73.0926C180.29 75.3503 175.559 77.9308 170.704 80.2668L178.877 91.9168C178.039 93.9855 180.046 100.547 180.568 103.081C181.924 109.674 183.189 116.289 184.63 122.865C187.212 124.329 189.8 125.908 192.505 127.129C194.078 127.838 196.623 128.19 197.806 129.444C199.851 131.611 199.681 135.183 199.539 137.917C199.091 138.729 198.551 139.661 197.791 140.212C195.897 141.584 193.483 142.488 191.46 143.735C187.842 145.966 184.397 148.537 180.925 150.989C172.963 156.613 165.189 162.524 157.509 168.527C153.897 171.35 150.388 174.311 146.722 177.065C142.338 180.359 137.954 183.733 133.458 186.867C130.283 189.081 126.925 191.069 123.875 193.454C122.649 194.413 121.323 195.512 120.462 196.817C119.792 197.833 119.491 198.884 118.543 199.706C117.781 199.911 117.485 200.055 116.706 199.855C111.839 198.604 106.931 196.188 102.232 194.381C95.4377 191.768 88.553 189.471 81.6796 187.084L71.699 223.834C75.0169 227.241 77.0919 231.474 81.4714 233.807C82.5813 234.398 83.6794 234.81 84.8931 235.132C86.0138 235.428 87.3176 235.562 88.2237 236.32C88.3576 237.006 88.238 237.008 87.8492 237.604C87.483 237.761 87.2093 237.831 86.8082 237.772C79.0917 236.631 75.4293 231.823 71.0784 225.894C70.2574 229.868 69.3415 233.819 68.5008 237.789C67.734 241.409 67.168 246.889 65.1992 250.032C64.7252 250.789 64.4166 250.91 63.5755 251.141C62.4051 250.922 61.5688 250.272 60.6012 249.62C60.3812 255.411 59.5455 261.142 59.3077 266.914C59.099 271.989 59.4268 276.878 60.2252 281.893C61.7332 291.372 64.1868 301.995 68.7257 310.511C70.3755 313.606 72.523 316.54 74.4681 319.458C76.0249 321.792 77.5497 324.312 79.3496 326.467C81.4498 328.98 83.9865 331.174 86.6246 333.095C86.6104 331.747 86.2978 329.111 86.8855 327.956C87.1724 327.391 87.1355 327.428 86.9057 326.813C85.8809 324.069 84.0155 321.225 82.5547 318.672C79.1478 312.715 75.2772 306.486 72.773 300.1C71.9328 297.959 71.3225 295.532 71.3732 293.222C71.3983 292.085 71.8693 290.804 72.7297 290.042C73.3818 289.465 74.317 289.102 75.1911 289.197C77.6555 289.467 80.2646 291.38 82.1738 292.857C87.4535 296.941 92.0264 302.318 96.8754 306.92C99.5869 309.494 102.341 312.024 105.073 314.576C106.277 315.701 107.841 316.895 108.801 318.217C109.262 318.852 109.089 319.089 108.962 319.8C115.307 327.259 123.488 333.888 131.792 339.027C137.18 342.362 142.716 345.384 148.337 348.302C151.077 349.724 153.8 351.149 156.513 352.623C158.261 353.573 160.144 354.537 161.697 355.795C162.65 356.567 163.406 357.713 164.138 358.694C164.194 360.952 164.19 363.733 165.044 365.85C165.5 366.979 166.403 368.053 167.133 369.021C171.006 374.153 176.439 377.656 181.862 380.931C184.485 382.515 187.527 384.072 189.506 386.478C190.824 388.08 190.946 389.909 190.731 391.905C190.552 393.565 189.665 395.388 188.621 396.676C186.415 399.398 183.219 401.535 180.472 403.684C176.395 406.873 172.297 410.031 168.278 413.292C173.939 417.534 180.205 421.127 186.727 423.868C206.161 432.037 228.277 434.435 249.177 432.568C257.464 431.828 265.657 430.309 273.777 428.537C282.807 426.566 292.227 424.143 300.786 420.642L307.135 404.579C308.126 402.322 310.785 395.641 313.03 394.776L313.797 395.218C315.434 398.165 314.176 411.729 313.971 415.618C318.764 413.306 323.628 411.187 328.324 408.672C335.87 404.631 343.244 399.742 350.052 394.549C354.957 390.808 359.339 386.373 364.278 382.718L364.626 382.463C363.443 380.502 362.841 378.73 362.211 376.54C358.588 375.441 355.204 374.421 351.987 372.35C350.769 371.566 349.434 370.573 348.771 369.252C347.639 366.996 348.396 364.982 349.123 362.742C345.366 362.987 341.659 363.418 337.909 362.89C335.224 362.512 331.594 361.411 330.001 359.076C329.269 358.003 329.04 356.488 329.361 355.237C329.908 353.105 332.063 350.05 334.04 349.024L334.356 348.868C336.594 347.745 339.306 348.031 341.718 348.293L336.763 345.679C335.307 344.691 334.284 343.212 333.964 341.464C333.637 339.681 334.085 337.449 335.229 336.016C336.43 334.512 338.476 334.329 340.245 334.159L340.04 333.864C338.956 332.286 338.375 330.899 338.8 328.946C339.126 327.452 339.954 326.177 341.292 325.405C342.101 324.938 343.354 324.561 344.291 324.69C346.672 325.018 349.231 326.338 351.559 327.039C354.454 327.91 357.453 328.505 360.394 329.207C360.678 327.781 360.846 326.371 361.864 325.255C363.096 323.904 364.765 323.348 366.556 323.293C372.98 323.095 381.4 326.68 386.456 330.533C388.97 332.448 391.218 334.912 393.511 337.091C395.471 333.049 397.607 329.085 399.358 324.945C406.829 307.284 409.99 288.75 410.288 269.645C406.79 269.772 403.057 270.952 399.599 270.656C397.546 270.479 395.72 269.461 394.446 267.842C393.676 266.864 393.267 265.59 392.934 264.408C392.136 261.576 391.811 258.6 391.268 255.713C390.276 250.445 389.001 244.976 388.516 239.647C388.297 237.238 388.316 234.848 388.628 232.45L419.135 197.036L457.627 225.07L459.512 244.403C459.813 246.512 459.885 248.692 460.096 250.817C460.31 252.973 460.805 255.693 460.35 257.803C460.14 258.776 459.567 259.796 458.973 260.584C458.034 261.827 456.695 262.611 455.221 263.068C453.653 263.553 451.936 263.67 450.314 263.909C447.63 264.306 444.958 264.77 442.275 265.169C432.343 266.648 422.399 268.135 412.426 269.306C412.272 280.803 411.339 292.076 408.746 303.311C405.853 315.841 400.947 327.727 394.887 339.032L408.171 360.347C415.178 369.752 426.916 365.348 436.686 366.836L437.062 366.899C438.277 367.094 439.479 367.488 440.373 368.378C440.994 368.997 441.343 369.723 441.253 370.618C441.156 371.581 440.501 372.142 439.763 372.685C436.603 375.009 432.193 376.303 428.538 377.754C423.498 379.754 418.457 381.729 413.161 382.951C404.94 384.848 396.634 385.028 388.243 384.775C381.028 384.558 373.963 384.042 366.816 383.019C358.312 391.149 348.953 398.464 339.066 404.831C336.514 406.475 333.891 408.025 331.238 409.498C329.55 410.436 327.372 411.28 325.95 412.554C324.302 414.031 322.999 416.327 321.855 418.201C320.09 421.09 318.388 423.998 316.436 426.768C315.463 428.148 314.459 429.704 313.097 430.739C312.474 431.213 312.131 431.175 311.401 431.034C309.23 428.115 308.985 423.606 308.529 420.128L302.601 422.149C298.724 431.381 295.76 441.184 292.541 450.669C291.696 453.157 290.838 455.654 290.038 458.156C289.555 459.665 289.154 461.874 288.118 463.079C287.385 463.11 287.352 463.051 286.737 462.637C286.409 460.716 288.179 457.105 288.813 455.127C292.249 444.405 295.851 433.683 299.998 423.213C282.068 429.203 263.124 434.066 244.165 434.951C221.783 435.997 199.02 432.9 178.95 422.438C174.786 420.268 170.162 417.725 166.687 414.558C156.868 421.464 147.642 429.419 138.125 436.751C136.353 438.116 134.618 439.529 132.846 440.894C131.978 441.563 130.944 442.477 129.858 442.712C128.619 442.98 126.821 441.721 125.779 441.137C118.729 437.179 112.369 432.014 106.21 426.814C100.933 422.358 95.7675 417.856 91.075 412.767C86.2013 407.482 81.8248 401.859 77.1131 396.445C70.3367 388.657 63.1748 380.823 57.5693 372.138C55.7679 369.347 54.0679 366.487 52.7095 363.451C51.4869 360.718 50.5867 357.853 49.3148 355.139C45.1742 346.301 40.106 337.599 37.538 328.114C37.0529 326.322 36.9256 324.531 37.9484 322.895C38.579 321.886 39.6762 321.154 40.8507 320.965C42.9723 320.625 44.8071 321.246 46.4903 322.537C49.0251 324.482 50.8185 327.386 52.5972 329.989C54.9597 333.447 57.3129 336.907 59.7054 340.344C62.2672 344.025 64.2773 347.121 67.8949 349.898C64.6494 343.256 61.9547 336.407 58.8854 329.672C55.8097 322.922 52.4068 316.337 49.4659 309.524C48.3806 307.01 46.832 303.989 46.5328 301.277C46.3181 299.332 46.4248 297.205 47.8149 295.682C48.8921 294.503 50.3283 293.869 51.9249 293.868C56.6858 293.864 60.8468 300.488 63.7463 303.593C59.6144 291.764 56.7577 279.238 57.3321 266.643C57.6087 260.576 58.4661 254.524 58.8569 248.462C53.0412 242.625 47.6555 235.945 41.2509 230.766C39.9555 229.718 36.3912 227.538 35.9824 226.161C36.3652 225.524 36.3495 225.457 37.0362 225.202C45.6523 230.17 52.1838 239.152 59.196 246.047C59.6188 240.846 60.3369 235.656 61.0747 230.493C61.5703 227.024 61.9326 221.893 63.761 218.901C64.1484 218.268 64.7159 217.731 65.4837 217.652C66.9568 217.499 69.1146 220.086 70.1501 221.085L79.6646 186.312C74.4144 184.249 69.1633 182.216 63.7857 180.502C58.6354 178.86 53.4172 177.379 48.188 176.013C46.9221 175.683 44.4951 175.57 43.4347 174.96C43.1733 174.809 42.863 174.423 42.6337 174.208C42.4785 173.542 42.5568 172.991 42.8823 172.389C44.8829 168.689 48.6727 168.171 52.3649 167.238C52.2591 166.1 51.9909 164.735 52.4294 163.653C53.2021 161.748 57.6372 161.512 59.3894 161.145C60.5175 160.909 61.5108 160.586 62.5458 160.087L62.8416 159.94C62.7983 158.919 62.4927 156.856 62.8343 155.927C63.7305 153.489 71.4648 152.674 73.9474 151.968C73.7081 150.646 73.2046 148.921 74.1181 147.78C75.9688 145.467 84.3798 145.899 87.1995 145.822C85.2716 137.99 84.3522 130.098 83.1887 122.14C82.9091 120.229 82.6645 118.311 82.3652 116.403C82.1457 115.004 81.8347 113.773 82.0212 112.343C83.0873 110.795 86.4258 109.6 88.116 108.63C93.942 105.286 99.8413 102.012 105.595 98.5476C107.279 97.5332 108.992 96.5301 110.618 95.4261C111.834 94.6012 112.955 93.6616 114.272 92.9957L129.119 109.096C129.369 104.106 130.499 98.9719 131.274 94.0318C131.826 90.52 132.088 86.867 133.07 83.4488C135.648 81.1291 139.513 79.4153 142.549 77.6911C148.855 74.1105 155.325 70.1159 161.955 67.2051C163.254 68.5896 164.224 70.3069 165.223 71.9153C166.636 74.1912 168.043 76.438 169.554 78.6504C171.61 77.5986 173.583 76.4036 175.658 75.3725C185.551 70.4565 195.901 65.9658 206.401 62.518C211.858 60.7259 217.377 59.4226 222.962 58.1139C224.041 56.2332 225.831 53.2511 227.759 52.2136C229.046 52.3484 231.311 55.1357 232.226 56.0733L239.759 49.3613Z" fill="white"/>
<path d="M228.047 54.7656C228.309 54.9477 228.394 54.9945 228.648 55.249C229.096 55.6978 229.717 56.3416 229.748 56.9716L228.507 57.2182L226.652 57.1931L226.398 56.8486L228.047 54.7656Z" fill="#F39200"/>
<path d="M84.8691 117.498C85.6227 117.881 86.1685 118.76 86.7084 119.407C87.9675 120.915 89.259 122.389 90.5628 123.858L85.5169 121.838C85.1098 120.426 85.0168 118.955 84.8691 117.498Z" fill="#F39200"/>
<path d="M240.076 52.3652C241.135 52.6537 242.163 54.2592 242.838 55.1249L242.772 55.4591C239.62 55.5005 238.06 56.6148 235.566 58.3714C235.095 58.6928 234.699 58.8926 234.159 59.0762C233.812 58.6042 233.634 58.2779 233.492 57.7089C235.552 55.6811 237.667 53.9614 240.076 52.3652Z" fill="#F39200"/>
<path d="M418.497 215.75L420.072 224.684L419.713 224.947L418.048 224.461C417.488 224.089 417.018 223.711 416.593 223.183C415.75 222.138 415.572 221.011 415.75 219.701C416.013 217.755 416.998 216.898 418.497 215.75Z" fill="#F39200"/>
<path d="M85.5723 123.314C87.8102 124.2 90.0147 125.281 92.3374 125.917L97.9262 132.267C96.7848 132.106 95.5765 131.583 94.4912 131.192C91.702 130.185 88.9989 128.975 86.2052 127.979L85.5723 123.314Z" fill="#F39200"/>
<path d="M91.0469 153.271L106.673 158.609L107.459 161.962L91.6798 156.32L91.0469 153.271Z" fill="#F39200"/>
<path d="M422.198 214.756C423.249 214.922 424.2 215.053 425.02 215.786C426.038 216.697 426.939 218.312 426.925 219.704C426.904 221.644 426.015 223.044 424.669 224.35L422.243 225.485C421.463 223.301 420.83 220.888 420.806 218.554C420.788 216.878 420.992 215.966 422.198 214.756Z" fill="#F39200"/>
<path d="M89.9648 147.799L105.567 153.143L106.369 156.91C103.502 155.668 100.431 154.776 97.4525 153.832C95.2824 153.143 93.0454 152.265 90.7843 151.97L89.9648 147.799Z" fill="#F39200"/>
<path d="M321.125 414.646L321.447 414.915C319.815 417.574 318.138 420.204 316.457 422.831C315.357 424.55 314.312 426.351 312.983 427.905L312.466 427.808C311.486 424.884 311.272 422.029 311.221 418.977L321.125 414.646Z" fill="#F39200"/>
<path d="M87.4531 136.133L102.732 141.234L103.564 144.58C101.356 144.027 99.1441 143.505 96.9514 142.891C94.1444 142.103 91.5265 141.239 88.5856 141.316L87.4531 136.133Z" fill="#F39200"/>
<path d="M86.5488 129.629L100.236 134.963C101.094 136.372 101.673 137.812 102.218 139.36L87.2467 134.421L86.5488 129.629Z" fill="#F39200"/>
<path d="M92.0918 157.803L107.864 163.682L108.806 169.035C106.974 168.395 105.109 167.242 103.376 166.352C99.8871 164.558 96.4048 162.752 92.9039 160.98L92.0918 157.803Z" fill="#F39200"/>
<path d="M88.7891 142.363C93.8473 142.708 98.7253 145.778 103.847 146.035L105.12 151.241L89.6297 146.044L88.7891 142.363Z" fill="#F39200"/>
<path d="M444.382 241.748L444.937 241.727C445.831 242.983 445.747 247.272 445.892 248.964L436.625 250.484L435.987 250.357L434.824 243.448L444.382 241.748Z" fill="#F39200"/>
<path d="M312.178 399.088C312.514 400.536 312.339 402.331 312.329 403.815C312.299 408.072 312.015 412.318 311.82 416.57L303.767 419.56C303.584 418.386 304.658 416.356 305.085 415.22C307.161 409.697 309.393 404.298 312.178 399.088Z" fill="#F39200"/>
<path d="M59.2727 352.543L59.6566 352.696C60.9939 354.962 62.4094 357.172 63.8417 359.378C65.1101 361.331 66.7791 363.638 67.2088 365.961C67.4593 367.315 67.6311 368.297 66.814 369.491C65.9276 369.815 65.7514 369.771 64.86 369.611C61.2986 366.327 57.6244 361.713 55.8555 357.172C56.7901 355.367 57.8784 353.995 59.2727 352.543Z" fill="#F39200"/>
<path d="M442.853 231.427C443.402 231.323 443.498 231.289 444.045 231.489C444.872 233.941 444.799 237.107 445.007 239.684L435.398 240.903C434.856 240.924 434.814 240.973 434.3 240.714C433.517 238.286 433.365 235.412 433.061 232.873L442.853 231.427Z" fill="#F39200"/>
<path d="M93.043 162.559C98.1647 165.55 103.718 168.825 109.206 171.062L109.862 174.215C105.118 172.42 100.656 169.465 95.8539 167.923L95.7131 168.328C96.5006 169.775 97.6676 170.283 99.0762 170.993L110.098 176.135L110.763 179.68L95.8917 172.609L93.043 162.559Z" fill="#F39200"/>
<path d="M432.219 243.736L432.88 243.654C433.833 244.761 433.971 249.237 434.183 250.874L421.62 252.876C421.209 252.97 421.214 252.902 420.849 252.738L419.816 245.278L432.219 243.736Z" fill="#F39200"/>
<path d="M92.8513 169.988C93.3848 171.09 93.3311 172.455 93.9877 173.53C94.2968 174.037 94.7255 174.397 95.2512 174.665C96.9605 175.536 98.8446 176.183 100.591 177.022C103.082 178.217 105.565 179.427 108.05 180.634C109.709 181.441 111.271 182.322 113.069 182.783C111.476 183.81 110.551 184.494 108.559 184.222C101.704 181.687 94.2885 180.229 87.8438 176.675L87.9117 176.497L88.0318 176.203C88.994 173.694 91.0011 171.865 92.8513 169.988Z" fill="#F39200"/>
<path d="M430.788 233.142L431.103 233.088C431.236 233.199 431.434 233.261 431.502 233.421C431.728 233.955 431.732 235.133 431.817 235.736C432.073 237.576 432.347 239.412 432.616 241.25L420.384 243.061L419.706 243.025L418.377 235.125L430.788 233.142Z" fill="#F39200"/>
<path d="M65.5225 219.865C67.0733 220.871 68.2078 222.223 69.3699 223.639L63.9721 248.163C63.661 248.708 63.7589 248.82 63.1235 249.002L60.9707 247.231C61.4594 242.482 62.083 237.777 62.747 233.05C63.3819 228.528 63.8146 224.139 65.5225 219.865Z" fill="#F39200"/>
<path d="M415.092 235.596C415.707 235.507 416.149 235.419 416.761 235.58C417.439 238.084 417.61 240.909 417.982 243.494L403.654 245.285L401.335 245.478C400.9 244.894 400.906 244.078 400.81 243.376C400.571 241.632 400.366 239.883 400.172 238.133L415.092 235.596Z" fill="#F39200"/>
<path d="M73.3185 329.764L74.3201 329.775C75.0653 330.181 75.5831 331.761 75.9197 332.524C77.5927 336.311 79.5673 340.741 79.5944 344.949C79.6003 345.885 79.5983 346.982 79.2085 347.844C78.8221 348.698 78.358 349.008 77.5193 349.363C76.5113 349.03 75.9128 348.28 75.1932 347.538C72.3149 343.663 69.129 339.502 66.9023 335.223C68.5054 332.635 70.359 330.682 73.3185 329.764Z" fill="#F39200"/>
<path d="M99.2072 320.414L99.5453 320.708C100.061 321.349 100.456 322.735 100.793 323.499C102.738 327.925 105.499 333.425 105.812 338.256C105.487 339.034 105.462 339.016 104.713 339.417C102.897 339.346 101.921 338.287 100.591 337.184C97.0253 333.699 93.5761 329.744 90.8203 325.584C93.106 323.183 96.1916 321.7 99.2072 320.414Z" fill="#F39200"/>
<path d="M418.033 245.482C418.425 245.844 419.016 251.993 419.208 253.145L402.423 255.663C401.651 252.634 401.49 249.174 401.291 246.058C406.634 247.093 412.666 246.198 418.033 245.482Z" fill="#F39200"/>
<path d="M337.806 350.039C344.071 349.735 351.17 351.021 357.205 352.645L357.591 352.743C359.666 353.318 361.76 357.231 362.811 359.005L358.126 358.19C354.014 357.527 349.842 357.453 345.687 357.303C342.538 357.19 337.797 357.709 334.992 356.233C334.078 355.753 333.551 355.018 333.337 354.006C333.196 353.337 333.344 352.748 333.771 352.214C334.832 350.886 336.179 350.316 337.806 350.039Z" fill="#F39200"/>
<path d="M41.3276 322.65L42.1171 322.685C43.9107 322.864 45.3351 324.008 46.5559 325.25C49.0589 327.796 51.0204 331.225 53.0172 334.185C56.5034 339.356 59.9595 344.543 63.9359 349.353C62.7359 349.574 61.4114 349.544 60.2509 349.922C58.9869 350.334 57.9297 351.324 56.9631 352.201C55.6445 353.818 54.5474 355.476 53.4966 357.278C51.8886 354.228 49.881 351.394 48.1923 348.385C46.0835 344.629 44.4122 340.623 42.7948 336.636C41.6494 333.813 40.3946 330.924 39.6627 327.96L39.565 327.552C39.327 326.584 39.0383 325.647 39.3297 324.657C39.675 323.483 40.3348 323.196 41.3276 322.65Z" fill="#F39200"/>
<path d="M74.52 291.371L74.897 291.365C76.8953 291.379 78.7557 292.76 80.2963 293.921C84.6364 297.191 88.3815 301.429 92.2486 305.24C96.3396 309.271 100.597 313.132 104.696 317.159C101.936 317.627 99.7264 318.155 97.1399 319.246C95.6437 319.826 94.27 320.551 92.9007 321.387C90.6549 322.757 89.4913 323.767 88.8554 326.393C87.0087 322.024 84.4622 317.919 82.1056 313.816C80.2663 310.613 78.5756 307.318 76.9381 304.007C75.5034 301.106 73.4121 297.112 73.3053 293.837C73.2595 292.437 73.5578 292.319 74.52 291.371Z" fill="#F39200"/>
<path d="M51.144 295.848C52.5959 295.973 53.6339 296.236 54.859 297.074C57.3814 298.801 59.5107 301.541 61.3829 303.943C65.2993 308.967 68.8307 314.481 72.3907 319.772C74.6321 323.103 76.5571 326.209 79.2203 329.255L77.8023 328.705L77.0183 328.39C74.6666 327.508 72.6078 327.792 70.3796 328.796C67.4487 330.669 65.5163 333.087 64.1234 336.252C61.2072 329.81 58.1483 323.447 55.1292 317.053C52.8277 312.179 50.0784 306.973 48.7403 301.748C48.453 300.626 48.2594 299.041 48.7052 297.95C49.1755 296.8 50.0306 296.268 51.144 295.848Z" fill="#F39200"/>
<path d="M161.241 69.6797C161.852 70.1714 162.368 71.1956 162.791 71.8675C163.844 73.5379 164.868 75.2227 165.941 76.8799C167.618 79.4673 169.253 82.1094 171.066 84.6028C172.783 86.9653 174.653 89.1998 176.199 91.6834C171.112 94.1754 166.167 96.8829 161.256 99.7056C159.432 100.753 157.586 101.774 155.778 102.847C154.731 103.469 153.74 104.234 152.578 104.619L151.891 103.87L135.562 84.3341L161.241 69.6797Z" fill="#F39200"/>
<path d="M113.884 95.9219C114.614 96.1173 130.182 113.495 131.473 115.172C129.428 116.758 127.019 118.087 124.825 119.467C120.933 121.914 117.038 124.356 113.129 126.776C109.487 129.03 105.649 131.027 102.894 134.383C99.6568 130.924 96.5605 127.348 93.3918 123.827C90.2816 120.372 86.8782 116.968 84.3887 113.026L113.884 95.9219Z" fill="#F39200"/>
<path d="M176.227 93.4746L176.386 93.5307C177.044 94.0859 183.105 126.841 183.619 130.344L163.283 148.132L162.845 148.025L162.594 147.106L153.584 105.934L176.227 93.4746Z" fill="#F39200"/>
<path d="M177.618 119.545C178.281 119.823 178.388 120.011 178.839 120.587C178.508 121.231 169.897 127.195 168.53 128.272L168.064 128.013C167.599 127.624 167.467 127.267 167.467 126.691C170.434 124.016 174.209 121.606 177.618 119.545Z" fill="white"/>
<path d="M174.014 107.982C174.87 108.02 174.99 107.934 175.651 108.528C175.089 109.997 166.011 115.095 164.069 117.304C163.566 117.226 163.299 117.167 162.865 116.873C162.427 116.578 162.516 116.509 162.408 116.034C162.858 115.015 164.712 114.053 165.666 113.432C168.454 111.62 171.248 109.828 174.014 107.982Z" fill="white"/>
<path d="M175.852 114.868L176.327 114.834C176.914 115.311 177.041 115.303 177.176 116.033L165.46 124.336L165.007 124.509C164.443 123.988 164.317 123.898 164.105 123.17C164.758 121.9 166.568 120.944 167.736 120.163C170.422 118.367 173.133 116.611 175.852 114.868Z" fill="white"/>
<path d="M180.259 123.998C180.738 124.473 180.768 124.748 180.956 125.385C180.574 126.241 178.833 127.08 178.012 127.644C174.956 129.742 171.914 131.939 168.781 133.91L168.433 133.422C168.232 133.077 168.04 132.847 168.204 132.456C168.952 130.681 178.22 125.048 180.259 123.998Z" fill="white"/>
<path d="M185.186 125.707C187.476 127.135 189.908 128.318 192.375 129.408C193.419 129.87 195.366 130.309 196.19 131.046C197.12 131.876 197.38 133.808 197.34 134.983C197.298 136.221 197.207 137.57 196.217 138.441C194.973 139.535 192.994 140.211 191.565 141.125C187.912 143.462 184.355 145.928 180.837 148.461C167.316 158.193 154.386 168.592 141.07 178.578C137.87 180.978 134.651 183.346 131.358 185.618C127.261 188.446 123.312 191.044 119.636 194.43L114.556 192.172C112.729 191.323 110.899 190.522 109.015 189.807C107.125 189.09 103.936 188.44 102.67 186.909C102.849 186.132 103.119 185.919 103.685 185.403C106.126 185.682 108.628 186.438 111.039 186.96C112.491 186.204 113.723 185.176 115.138 184.375C125.131 178.72 134.435 172.105 143.766 165.42C150.045 160.922 156.442 156.624 162.397 151.688C165.257 149.318 167.916 146.677 170.684 144.197C175.754 139.656 181.028 135.147 186.433 131.01L185.186 125.707Z" fill="#F39200"/>
<path d="M134.699 86.7324C136.469 88.2676 137.915 90.6133 139.415 92.4398C142.829 96.5978 146.269 100.76 149.762 104.852C147.238 105.545 144.708 106.223 142.192 106.943C140.942 107.3 139.041 107.604 138.349 108.773L138.661 109.388C139.805 109.678 141.944 108.769 143.116 108.419C145.843 107.607 148.581 106.862 151.331 106.136C152.408 108.954 152.993 111.95 153.719 114.87C156.065 124.309 157.581 133.93 159.727 143.418L160.85 148.859C154.939 149.983 149.424 150.95 143.845 153.302C141.513 143.622 139.474 133.864 137.068 124.2C136.389 121.472 135.903 117.948 134.721 115.418C134.019 113.916 132.241 112.32 131.16 111.045L134.699 86.7324Z" fill="#F39200"/>
<path d="M145.225 117.674C145.917 117.652 146.303 117.826 146.927 118.089C147.279 118.483 147.447 118.679 147.568 119.212C147.692 119.756 147.467 120.463 147.146 120.918C146.424 121.941 144.976 122.255 143.822 122.442C142.508 122.271 142.107 122.024 141.191 121.106C141.008 120.326 141.049 120.238 141.327 119.479C142.535 118.318 143.607 118.025 145.225 117.674Z" fill="white"/>
<path d="M132.636 116.449C133.038 117.014 133.182 118.055 133.357 118.724C133.94 120.941 134.472 123.169 135.014 125.396C137.564 135.876 139.585 146.72 142.892 156.984C144.219 156.089 145.573 155.104 147.018 154.405C150.991 152.482 155.665 151.794 159.989 151.141L127.878 173.866L113.348 182.624C112.917 177.865 112 173.112 111.099 168.423C109.878 162.069 108.562 155.798 107.058 149.501C105.938 144.809 105.01 140.093 103.707 135.441C107.413 131.301 113.65 128.387 118.38 125.453C123.154 122.491 127.898 119.469 132.636 116.449Z" fill="#F39200"/>
<path d="M135.842 151.789C136.41 151.805 136.316 151.849 136.702 152.21L136.705 152.807L125.119 160.234C124.714 160.232 124.655 160.129 124.324 159.919L124.266 159.47C125.176 158.245 127.047 157.339 128.336 156.512C130.826 154.912 133.269 153.255 135.842 151.789Z" fill="white"/>
<path d="M131.483 139.209C131.883 139.263 132.007 139.334 132.344 139.536L132.317 140.195L117.501 149.22L116.809 149.257C116.718 148.963 116.602 148.813 116.721 148.503C117.378 146.801 129.286 140.336 131.483 139.209Z" fill="white"/>
<path d="M135.234 146.895L135.841 146.961L136.108 147.411C136.031 147.588 136.011 147.804 135.877 147.943C135.546 148.286 134.766 148.656 134.347 148.924C133.101 149.723 131.849 150.511 130.605 151.311C127.076 153.58 123.648 156.001 120.106 158.252C119.598 157.975 119.639 157.873 119.391 157.378C120.392 156.108 122.347 155.095 123.695 154.185C127.464 151.638 131.217 149.041 135.234 146.895Z" fill="white"/>
<path d="M134.04 142.686L134.579 143.104L134.654 143.72C132.986 145.326 130.271 146.503 128.266 147.72C124.843 149.799 121.472 151.918 118.15 154.157C117.837 153.802 117.663 153.505 117.475 153.071C118.555 151.793 120.51 150.824 121.918 149.921C125.803 147.426 129.86 144.622 134.04 142.686Z" fill="white"/>
<path d="M365.136 325.377C367.4 325.048 369.753 325.395 371.944 325.988C376.527 327.228 381.222 329.212 385.032 332.084C392.571 337.768 396.934 346.178 401.568 354.154C404.518 359.231 408.181 365.488 413.447 368.4C414.791 369.144 416.259 369.509 417.732 369.899L411.151 373.087C396.733 379.82 377.346 379.261 362.592 373.835C359.311 372.628 356.004 371.284 353.028 369.428C352.149 368.88 351.105 368.254 350.694 367.257C350.394 366.527 350.512 365.752 350.833 365.038C351.264 364.079 352.501 362.728 353.529 362.447C356.601 361.607 358.17 363.329 360.605 364.718C362.231 365.645 363.572 366.248 365.431 365.715L365.646 365.65C366.378 364.58 366.6 363.847 366.486 362.544C366.334 360.794 365.239 358.853 364.45 357.304C360.167 348.893 352.25 346.519 344.006 343.666C342.641 343.194 340.614 342.64 339.588 341.601C338.688 340.69 338.057 339.055 338.142 337.763C338.195 336.967 338.572 336.632 339.1 336.105C340.291 335.641 342.81 336.57 344.098 336.865C348.933 337.974 353.684 339.129 358.406 340.682C361.054 341.553 363.639 342.75 366.311 343.504C367.064 343.237 367.036 343.267 367.41 342.562C366.968 341.269 364.716 340.737 363.523 340.267C359.599 338.72 355.58 337.436 351.628 335.967C349.012 334.996 345.418 334.012 343.734 331.648C342.998 330.615 342.441 329.206 342.81 327.919C342.958 327.404 343.229 327.136 343.661 326.857C344.218 326.496 344.417 326.755 345.011 326.983C352.668 329.912 360.728 331.092 368.456 333.756C370.009 334.291 371.463 334.919 372.927 335.66C373.732 336.067 374.744 336.75 375.62 336.873C376.041 336.932 376.209 336.651 376.523 336.409L376.588 335.794C375.119 333.429 369.917 332.048 367.34 331.237C366.269 330.9 365.164 330.681 364.285 329.954C363.991 329.239 363.709 328.52 363.731 327.733C363.76 326.694 364.413 326.034 365.136 325.377Z" fill="#F39200"/>
<path d="M159.427 358.58C160.226 358.557 161.076 358.425 161.806 358.802C162.661 360.763 162.481 364.053 162.87 366.272C164.65 376.436 168.986 387.501 177.716 393.594C180.836 395.77 183.014 396.566 186.849 395.893C184.906 397.831 182.563 399.444 180.413 401.154C175.918 404.732 171.39 408.262 166.833 411.761C156.41 419.764 146.11 427.963 135.804 436.119C133.818 437.736 131.727 439.631 129.422 440.757L128.066 440.107C121.766 436.938 117.302 431.564 115.118 424.87C111.741 414.523 113.609 406.234 118.362 396.817C124.402 384.851 133.322 375.011 144.056 367.074C148.903 363.49 153.668 360.473 159.427 358.58Z" fill="#F39200"/>
<path d="M125.286 403.451C125.862 403.488 126.129 403.572 126.615 403.886C126.804 404.832 125.977 405.908 125.565 406.793C124.891 408.241 124.253 409.754 123.745 411.269C123.29 412.623 123.188 414.005 122.625 415.333C122.188 415.261 121.853 415.209 121.457 414.993C121.19 414.847 121.174 414.883 121.128 414.586C120.801 412.494 124.111 405.317 125.286 403.451Z" fill="white"/>
<path d="M130.894 385.256C131.31 385.464 131.672 385.839 132.029 386.139C132.029 386.316 132.1 386.508 132.029 386.669C131.61 387.611 130.315 388.859 129.688 389.762C127.674 392.657 125.717 395.613 124.066 398.732C121.838 402.944 119.71 407.57 118.491 412.192C118.057 413.838 117.898 415.546 117.522 417.209L117.163 417.166C116.528 417.023 116.479 416.792 116.153 416.268C115.927 407.401 125.144 391.723 130.894 385.256Z" fill="white"/>
</svg>
