<svg width="261" height="284" viewBox="0 0 261 284" fill="none" xmlns="http://www.w3.org/2000/svg">
<path d="M39.5582 17.8833C39.9493 17.8824 40.614 17.8674 40.9538 18.097C41.6665 18.5786 41.82 19.3221 41.8585 20.0869C41.5949 20.6748 41.2939 20.8533 40.745 21.1815C40.254 21.1867 39.5263 21.1818 39.1537 20.8259C38.5385 20.2386 38.4529 19.7619 38.4453 18.945C38.6939 18.3995 39.0599 18.2018 39.5582 17.8833Z" fill="#373737"/>
<path d="M233.83 39.7402L234.543 39.7409C235.384 39.7967 236.041 40.4273 236.55 41.044C236.861 41.4218 237.085 41.8642 236.983 42.3614C236.807 43.2315 236.27 43.6599 235.532 44.0938C234.682 44.1849 233.854 44.2482 233.143 43.6782C232.588 43.2332 232.413 42.5046 232.45 41.8371C232.506 40.8296 233.1 40.3696 233.83 39.7402Z" fill="#373737"/>
<path d="M239.005 112.892C239.674 112.867 240.456 112.773 241.105 112.957L241.279 113.011C242.222 113.292 243.1 113.594 243.803 114.303C243.97 114.471 243.903 114.568 243.897 114.792C242.872 115.54 240.582 115.338 239.273 115.69L239.084 115.743C238.016 116.126 236.917 116.551 235.768 116.599C235.186 116.624 234.969 116.451 234.566 116.062C234.504 115.542 234.536 115.287 234.803 114.82C235.537 113.54 237.664 113.192 239.005 112.892Z" fill="#373737"/>
<path d="M233.009 104.439L233.813 104.876C234.4 105.715 234.23 107.348 234.078 108.334C233.767 110.359 233.525 112.12 231.763 113.423L230.754 113.399C230.376 112.96 230.455 112.445 230.447 111.884C230.412 109.303 231.151 106.339 233.009 104.439Z" fill="#373737"/>
<path d="M7.29461 131.485C7.80181 131.46 8.4804 131.374 8.96605 131.533C9.59558 131.739 10.3139 132.551 10.5778 133.129C10.8215 133.662 10.7804 134.355 10.5732 134.893C10.2112 135.833 9.43977 136.27 8.56162 136.674L7.73551 136.67C7.44014 136.671 7.11295 136.701 6.82388 136.628C6.27756 136.491 5.5761 135.781 5.32846 135.3C5.09707 134.851 4.88524 133.983 5.07089 133.507C5.51411 132.37 6.23015 131.97 7.29461 131.485Z" fill="#373737"/>
<path d="M171.366 245.781C171.693 245.86 171.95 246.011 172.241 246.173C172.587 246.823 172.349 247.866 172.222 248.578C171.929 250.217 171.498 251.836 171.072 253.444C170.896 254.109 170.79 255.006 170.41 255.579C170.196 255.902 169.807 256.145 169.49 256.363L168.594 256.096C168.264 255.712 168.113 255.324 168.109 254.821C168.105 254.083 168.43 253.256 168.654 252.557L170.088 248.248C170.228 247.819 170.337 246.95 170.548 246.6C170.707 246.334 171.136 246.012 171.366 245.781Z" fill="#373737"/>
<path d="M24.0389 247.717C24.747 247.612 25.5088 247.53 26.2159 247.689C26.865 247.835 27.4958 248.367 27.8482 248.908C28.3491 249.677 28.4737 250.518 28.2424 251.409C27.9951 252.364 26.9422 252.987 26.1356 253.43C25.5128 253.569 24.8063 253.635 24.1781 253.489C23.5383 253.341 22.9701 252.92 22.6472 252.358C22.2063 251.591 21.9872 250.632 22.2504 249.774C22.568 248.738 23.1001 248.233 24.0389 247.717Z" fill="#373737"/>
<path d="M226.746 115.045L226.866 115.031C227.919 114.965 229.932 114.725 230.754 115.52C231.154 115.906 231.182 116.173 231.17 116.696C230.369 117.688 229.487 117.494 228.378 117.811C227.332 118.11 226.518 118.568 225.409 118.731L223.366 118.746C222.062 118.716 221.334 118.53 220.431 117.592C220.365 117.098 220.409 116.999 220.601 116.533C221.862 115.441 225.064 115.241 226.746 115.045Z" fill="#373737"/>
<path d="M0 153.865C2.56816 155.203 4.7899 157.185 7.40314 158.514C9.3431 159.501 11.3964 160.329 13.413 161.153C14.1022 161.435 14.8524 161.52 15.4411 161.991L15.4587 162.397C13.5038 162.913 11.7216 163.052 9.74852 162.5C5.6644 161.357 2.03411 157.377 0 153.865Z" fill="#373737"/>
<path d="M172.056 257.146C174.79 256.915 181.09 257.579 183.27 259.165C183.55 259.577 183.555 259.828 183.588 260.307C183.184 260.701 182.707 260.745 182.174 260.855C179.479 261.227 176.972 260.906 174.314 260.476C173.411 260.33 172.018 260.166 171.292 259.606C170.686 259.139 170.673 258.389 170.598 257.697C170.965 257.32 171.545 257.275 172.056 257.146Z" fill="#373737"/>
<path d="M230.971 118.365C231.622 118.477 232.192 118.553 232.589 119.122C233.89 120.985 233.574 125.337 233.148 127.469C232.914 128.64 232.733 129.408 231.688 130.104C231.222 129.974 230.774 129.861 230.417 129.52C229.557 128.698 229.152 127.26 229.199 126.096C229.266 124.469 229.408 122.722 229.647 121.111C229.728 120.567 229.795 119.803 230.067 119.319C230.272 118.954 230.658 118.642 230.971 118.365Z" fill="#373737"/>
<path d="M17.8125 18.3965C19.7326 18.8821 21.4206 20.1006 23.0058 21.2217C24.5384 22.3056 25.8342 23.509 27.1573 24.8257C29.2935 26.9514 31.1887 29.0426 31.6949 32.0973C29.2762 32.0862 27.5265 30.9686 25.8339 29.3889C23.7129 27.4087 17.8801 21.4165 17.8125 18.3965Z" fill="#373737"/>
<path d="M164.175 256.527C164.777 256.496 165.724 256.339 166.275 256.586C167.129 256.969 167.528 257.835 167.828 258.654L167.893 258.839C168.648 259.276 168.98 259.54 169.221 260.389C169.468 261.257 169.393 262.325 169.329 263.218C169.154 265.655 168.686 268.163 167.453 270.315C167.056 271.006 166.821 271.428 166.026 271.647C165.749 271.573 165.533 271.523 165.326 271.308C164.814 270.779 164.688 269.984 164.532 269.3C164.523 267.974 164.592 266.685 164.761 265.369L165.374 261.525C165.411 261.281 165.572 260.676 165.525 260.471C165.492 260.325 165.156 259.96 165.053 259.818C164.581 259.636 163.958 259.8 163.465 259.857L159.986 260.222C159.214 260.272 158.738 260.188 158.153 259.69C158.065 259.19 157.956 258.981 158.254 258.513C159.003 257.338 162.843 256.748 164.175 256.527Z" fill="#373737"/>
<path d="M201.463 143.429C203.246 143.401 205.454 143.951 206.8 145.166C207.713 145.99 208.535 147.397 208.575 148.639L208.58 148.847C208.625 149.854 208.554 150.545 208.154 151.483C207.397 153.258 205.924 154.592 204.157 155.344C202.853 155.716 201.545 155.775 200.333 155.09C198.797 154.22 197.811 152.71 197.435 151.024C197.047 149.279 197.341 147.171 198.318 145.657C199.043 144.533 200.133 143.713 201.463 143.429Z" fill="#373737"/>
<path d="M201.758 146.805C202.148 146.859 202.997 146.912 203.307 147.157C203.946 147.661 204.384 148.569 204.392 149.375C204.401 150.248 203.982 150.676 203.37 151.253C203.158 151.296 203.161 151.303 202.91 151.312C202.352 151.334 201.875 151.205 201.485 150.803C200.934 150.236 200.778 149.618 200.799 148.85C200.824 147.904 201.058 147.439 201.758 146.805Z" fill="white"/>
<path d="M10.948 211.148C12.0111 211.047 13.2775 210.965 14.2948 211.314L14.5295 211.4L14.7566 211.476C16.0608 211.94 17.2794 213.082 17.8327 214.321C18.5033 215.825 18.7221 217.551 18.0262 219.097C17.2442 220.834 15.6159 221.827 13.8904 222.471C13.1044 222.627 12.4358 222.645 11.6418 222.574C10.093 222.437 8.7899 221.828 7.8166 220.6C6.99348 219.562 6.49556 217.642 6.67226 216.365L6.71502 216.082C6.82939 215.256 6.93679 214.535 7.36344 213.8C8.18888 212.378 9.36671 211.554 10.948 211.148Z" fill="#373737"/>
<path d="M12.2582 214.992L12.3216 215.002C13.0396 215.119 13.7394 215.373 14.1259 216.034C14.3547 216.426 14.4362 216.829 14.3132 217.276C14.122 217.97 13.6343 218.253 13.0671 218.628L12.0375 218.597C11.6801 218.541 11.4043 218.285 11.2004 218.006C10.7231 217.351 10.7705 216.757 10.919 216.001C11.2883 215.443 11.6559 215.274 12.2582 214.992Z" fill="white"/>
<path d="M118.702 0.786965C119.83 0.653113 120.906 0.617113 121.996 0.993634C123.431 1.48916 124.886 2.88456 125.49 4.25904C126.106 5.66392 126.008 7.58242 125.36 8.93922C124.475 10.7921 123.081 11.6561 121.156 12.3092C119.869 12.3532 118.741 12.3797 117.539 11.8291C116.133 11.1848 114.801 9.9755 114.311 8.50055C113.79 6.93307 113.906 5.08647 114.672 3.61821C115.553 1.92772 116.956 1.31937 118.702 0.786965Z" fill="#373737"/>
<path d="M119.492 3.80469L119.752 3.82893C120.546 3.92658 121.237 4.22922 121.716 4.87629C122.173 5.49396 122.454 6.50312 122.224 7.25525C122.016 7.93207 121.367 8.36926 120.8 8.7301L119.782 8.73075C119.223 8.66485 118.699 8.1412 118.373 7.72653C117.943 7.17923 117.825 6.60237 117.939 5.92672C118.114 4.88941 118.683 4.41195 119.492 3.80469Z" fill="white"/>
<path d="M226.825 203.788C228.316 203.704 229.611 204.027 230.833 204.895C232.483 206.066 233.679 208.065 233.978 210.043L234.012 210.291C234.164 211.293 234.152 212.371 233.83 213.346C233.176 215.325 231.526 216.399 229.751 217.311C228.368 217.369 227.414 217.079 226.193 216.451C224.346 215.5 223.055 214.209 222.49 212.187C222.007 210.458 222.572 207.882 223.438 206.362C224.266 204.911 225.213 204.227 226.825 203.788Z" fill="#373737"/>
<path d="M227.218 206.777C228.093 207.056 228.899 207.319 229.447 208.088C230.081 208.977 230.448 210.535 230.201 211.603C229.994 212.5 229.281 212.945 228.542 213.411L227.685 213.546C227.198 213.563 226.469 213.244 226.137 212.906C225.473 212.231 225.441 211.068 225.479 210.188C225.546 208.662 226.113 207.783 227.218 206.777Z" fill="white"/>
<path d="M26.2815 90.6877C27.7275 90.6247 28.8082 90.6377 30.1054 91.3793C31.5591 92.2103 32.4883 93.5112 32.9322 95.0962C33.4188 96.8329 33.374 98.5448 32.4104 100.134C31.3137 101.943 29.523 102.803 27.53 103.303C26.3763 103.336 24.9983 103.065 23.9816 102.525C22.4593 101.716 21.3279 100.352 20.8406 98.725C20.3224 96.9948 20.5147 95.3371 21.4479 93.7838C22.4649 92.0908 24.4311 91.1808 26.2815 90.6877Z" fill="#373737"/>
<path d="M26.1833 94.7201C26.6702 94.7103 27.2195 94.7119 27.68 94.879C28.5114 95.1804 28.7106 95.7974 29.0756 96.5432C29.0299 97.0166 29.0043 97.5762 28.7938 98.0114C28.5349 98.5474 28.0811 98.7207 27.5577 98.9422L26.4637 99.1168C25.9625 99.1187 25.6303 98.9155 25.2915 98.5837C24.6288 97.9341 24.6335 97.3442 24.6547 96.4617C25.0372 95.6874 25.5328 95.2623 26.1833 94.7201Z" fill="white"/>
<path d="M247.621 176.265C250.538 176.01 253.683 176.177 256.595 176.397C258.012 176.504 259.69 176.583 260.999 177.158L208.494 184.849L200.852 186.233C199.892 186.389 198.865 186.73 197.894 186.581L197.527 186.057L197.671 185.635C199.481 184.381 202.033 183.916 204.148 183.324C213.454 180.717 223.248 178.697 232.845 177.445C237.733 176.808 242.693 176.406 247.621 176.265Z" fill="#373737"/>
<path d="M203.758 0.00548615C204.156 -0.0140318 204.196 0.0106758 204.543 0.209772L204.637 0.666813C204.392 0.973943 204.184 1.10822 203.814 1.25565C202.693 1.70273 201.456 1.96789 200.29 2.29438L193.615 4.24761L172.161 12.123C164.624 15.2789 157.15 18.6201 149.949 22.4724L143.378 26.1179C141.262 27.3656 139.193 28.7055 136.961 29.746C136.549 29.854 136.478 29.9647 136.078 29.7773C136.186 29.3302 136.37 29.1467 136.669 28.8011C137.497 27.8467 138.6 27.0686 139.604 26.301C142.649 23.9728 146.088 21.994 149.425 20.0993C161.111 13.4664 173.242 7.50006 186.17 3.59089C191.984 1.83287 197.681 0.44983 203.758 0.00548615Z" fill="#373737"/>
<path d="M75.7834 21.7008C76.7133 21.5464 77.8185 21.6019 78.767 21.5885C80.4603 21.565 82.2577 21.5223 83.9387 21.7334L84.2281 21.7729C86.4124 22.0588 88.5297 22.7883 90.5725 23.5814C95.8321 25.6246 100.526 28.6512 104.428 32.7213C105.877 34.2321 106.901 35.9391 107.897 37.7587C111.341 44.0508 113.13 51.9057 112.599 59.0454C112.324 62.7418 111.231 66.2916 111.126 70.0052L123.339 62.7584L138.228 54.3552L163.268 41.5739L175.831 35.0549C176.88 34.5259 178.361 33.4883 179.473 33.2735C179.868 33.1972 181.084 33.5996 181.555 33.6538L195.948 35.2221C198.738 35.54 201.633 35.8125 204.381 36.3615C205.268 36.5387 206.637 36.6993 207.135 37.5283C207.711 38.4879 206.889 39.9955 206.586 40.9508L205.542 44.4454C207.125 44.7291 208.93 44.8117 210.445 45.2928C211.119 45.5069 211.452 45.7148 211.777 46.3604C211.892 48.3236 210.836 50.2033 209.983 51.923C210.609 52.1126 211.369 52.096 212.023 52.1596C213.121 52.2667 214.288 52.4974 215.388 52.4775C215.974 52.4671 216.391 52.4854 216.946 52.7053C217.454 52.9071 217.723 53.1055 217.937 53.6225C217.951 54.6144 217.453 55.3657 217.038 56.2369C216.043 58.3283 215.029 60.2805 213.498 62.0413C216.026 62.3798 218.182 62.9448 220.575 63.8169C221.328 64.0911 222.276 64.3623 222.95 64.8013C223.18 64.9514 223.469 65.1942 223.511 65.4746C223.582 65.9537 223.381 66.5301 223.248 66.9949C222.607 69.2375 221.056 71.5699 219.647 73.414C221.081 74.1036 222.728 74.3602 224.266 74.7519C226.503 75.3217 228.828 75.9889 231.001 76.7634C231.706 77.0147 232.836 77.28 233.329 77.8568C233.702 78.2948 233.688 78.7054 233.638 79.2439C232.535 81.0502 230.272 82.3397 228.624 83.6381L211.934 95.9328L192.212 110.549L172.817 124.269C173.91 125.984 175.123 127.589 176.102 129.38C177.686 132.28 178.79 135.769 179.113 139.054C179.591 143.924 178.749 149.432 175.93 153.569C175.26 154.552 174.401 155.353 173.641 156.265L183.097 171.612L193.686 189.036L199.663 199.479L200.864 201.609C200.977 201.811 201.214 202.369 201.368 202.51C201.539 202.667 203.675 202.67 204.07 202.738C204.746 202.853 205.443 203.103 206.034 203.448C208.711 205.009 210.499 208.636 211.159 211.51C212.116 215.677 211.503 220.155 209.166 223.762C208.638 224.577 207.859 225.166 207.348 225.951L210.117 233.87C210.193 234.331 210.063 234.66 209.781 235.023C209.541 235.331 209.195 235.53 208.804 235.568C208.088 235.638 207.35 235.29 206.716 234.995C204.829 234.117 202.678 232.866 201.097 231.516C200.816 231.276 198.633 231.892 198.109 231.92C197.382 231.96 196.605 231.882 195.891 231.749C191.459 230.924 187.922 227.371 185.182 224.068C183.783 222.381 182.819 220.449 181.631 218.631L173.41 205.468C171.615 202.528 169.954 199.576 167.969 196.743C164.033 198.032 159.997 199.109 155.958 200.028C154.438 200.374 152.827 200.844 151.277 200.975C150.648 201.028 150.106 201.154 149.613 200.742L149.7 200.417C151.847 199.037 154.708 198.401 157.135 197.595C160.319 196.539 163.554 195.34 166.813 194.554C166.78 193.917 165.88 192.633 165.542 192.011C162.657 186.711 159.327 181.798 156.11 176.707L153.95 173.008C153.197 171.793 152.474 170.567 151.542 169.473C150.196 170.188 148.759 170.971 147.231 171.209C143.784 171.745 140.322 170.851 137.511 168.864C136.07 169.707 134.739 170.949 133.375 171.938L124.387 178.07L119.689 180.844C119.082 181.186 117.673 181.794 117.302 182.341C117.857 182.315 117.913 182.257 118.373 182.603C118.786 184.23 117.119 187.555 116.5 189.092L114.996 193.057L112.542 200.076L125.507 202.946C126.242 203.181 126.489 203.453 126.826 204.104C126.735 205.58 125.846 206.938 125.179 208.232L121.773 214.579L119.915 218.449L125.635 218.222C126.835 218.137 128.354 217.597 129.49 218.019L130.828 218.475C132.316 221.739 134.118 224.789 135.876 227.914L141.286 237.662C142.789 240.336 144.492 243.134 145.683 245.96C145.83 246.307 145.864 246.718 145.804 247.089C145.679 247.855 144.706 247.952 144.195 248.519C142.862 249.999 141.766 251.799 140.48 253.343L129.779 265.53C128.284 267.154 126.711 269.376 124.829 270.582C124.169 271.005 123.119 271.018 122.352 271.124C121.599 271.228 120.846 271.422 120.108 271.598L104.447 275.518L95.4734 277.539C92.3334 278.298 89.1762 279.175 86.124 280.231C84.4459 280.812 83.0215 281.743 81.414 282.445C79.8271 283.139 77.974 283.448 76.2744 283.757C75.5288 283.892 74.7425 284.102 73.9867 283.942C69.1534 282.919 52.6574 253.537 49.3288 247.845L39.5269 230.826L30.2133 211.975C27.6143 206.41 25.1996 200.458 21.875 195.279C25.7662 191.715 29.2032 187.632 32.9754 183.933C34.737 182.206 36.609 180.429 38.5122 178.858L43.4791 174.898C39.875 170.214 34.5484 166.81 31.2622 161.871C29.7084 159.536 28.6934 156.595 28.4066 153.821C28.1235 151.084 28.2057 147.917 29.235 145.336C30.0737 143.234 31.294 141.307 32.5242 139.411C36.5417 133.216 41.6316 128.157 46.7179 122.844L51.955 117.294L64.9406 104.279L70.8049 98.2975L74.283 94.0626L74.1538 91.4074C71.4324 90.8669 68.677 90.3029 66.0608 89.3698C62.6333 88.1468 59.4045 86.2635 56.5128 84.0888C48.1019 77.7641 42.3009 68.1738 40.9669 57.8136C39.9651 50.0335 41.7977 42.6386 46.7378 36.4489C51.9059 29.9737 59.1489 25.4089 67.1796 23.2081C69.9758 22.4414 72.9073 22.0383 75.7834 21.7008Z" fill="#373737"/>
<path d="M126.555 262.301C126.897 262.573 127.093 262.674 127.258 263.082C125.881 264.97 125.351 266.468 123.171 267.718C122.932 267.75 122.853 267.72 122.629 267.649L122.655 267.492C122.829 266.758 123.311 266.092 123.718 265.465C124.59 264.121 125.213 263.22 126.555 262.301Z" fill="white"/>
<path d="M80.1638 73.3281L80.4038 73.6147C78.8302 77.4197 77.9964 83.0953 78.9585 87.0945L79.0321 87.3918L76.7026 87.5583L76.4122 87.3543C76.1619 84.5947 76.1785 82.0463 76.9767 79.3614C77.2688 78.3796 77.7412 77.3577 77.9454 76.3639L77.9712 76.2166C78.2792 74.8879 79.0609 74.0739 80.1638 73.3281Z" fill="white"/>
<path d="M76.457 91.6836L79.4399 92.2574C80.1085 96.9048 80.6844 101.686 82.4102 106.11C83.3082 108.412 84.497 110.533 85.5382 112.768C84.8129 112.467 84.0014 112.177 83.4047 111.66C82.3575 110.752 81.5506 109.315 80.864 108.131C77.8268 102.892 76.6771 97.6581 76.457 91.6836Z" fill="white"/>
<path d="M88.7634 109.785C90.1375 109.933 90.8591 110.135 91.8235 111.185C92.8657 112.321 93.3225 113.69 93.6275 115.161C93.7144 115.58 93.8927 116.148 93.8443 116.573C93.6325 118.431 92.8017 119.796 91.3517 120.969C89.7145 122.294 87.3498 123.158 85.2252 122.918C82.7068 122.633 80.9757 121.262 79.4468 119.384C78.5451 118.049 78.1367 116.873 77.8652 115.309C77.6212 113.905 77.9239 112.745 78.3021 111.398C79.8695 113.597 81.0138 115.307 83.5823 116.485C85.1987 117.227 86.6862 117.405 88.3745 116.751C89.0737 116.481 89.8013 115.828 90.0977 115.144C90.7282 113.69 89.3269 111.136 88.7634 109.785Z" fill="white"/>
<path d="M147.466 130.621L149.312 130.661C150.899 130.776 152.032 131.368 153.04 132.583C154.243 134.034 154.977 136.3 154.747 138.182C154.539 139.885 153.591 141.48 152.242 142.545C150.655 143.8 148.569 144.202 146.573 143.964C144.14 143.674 142.093 142.134 140.624 140.291C139.788 139.224 139.276 137.97 139.356 136.609C139.439 135.188 139.921 133.957 141.021 133.019C141.494 133.314 141.791 133.946 142.081 134.407C143.069 135.983 143.674 137.923 145.103 139.182C145.619 139.638 145.835 139.723 146.55 139.627C148.168 139.41 149.727 138.034 150.738 136.848C150.692 136.239 150.215 135.409 149.919 134.865L147.466 130.621Z" fill="white"/>
<path d="M77.4761 38.3578C79.5692 38.2915 81.4561 38.4534 83.4776 38.989C87.7898 40.1317 92.7733 42.9748 95.064 46.8742C91.6333 46.8977 88.1568 46.9995 84.7602 47.4989C78.7176 48.387 72.8271 50.269 67.2323 52.6496C64.7457 53.715 62.4053 54.9951 60.2008 56.547C59.0051 57.3888 57.932 58.335 56.6859 59.1157C56.428 58.2452 56.2042 57.2452 56.1564 56.3394C55.9489 52.3964 57.805 48.7509 60.4368 45.8973C64.7576 41.212 71.1318 38.6851 77.4761 38.3578Z" fill="white"/>
<path d="M181.668 36.1387L204.349 38.6861L203.174 42.4863C202.796 43.6815 202.167 44.9554 202.572 46.1813C203.604 47.2564 207.195 47.1037 208.694 47.213L207.77 50.6988C207.541 51.5177 207.008 52.7671 207.501 53.5495C207.557 53.6376 207.769 53.9813 207.86 54.0312C208.276 54.2578 209.006 54.2594 209.47 54.296C210.819 54.403 212.551 54.3044 213.812 54.6566C214.194 54.7637 214.201 54.8492 214.377 55.1736C214.078 57.206 212.541 58.8853 211.867 60.7933C211.696 61.2793 211.645 62.1136 211.985 62.5565C212.744 63.5458 216.643 64.7325 218.007 65.1676C218.678 65.3817 219.722 65.557 220.05 66.1892L219.576 67.2643L216.733 72.9875C213.54 73.5825 210.057 73.2676 206.836 73.0237L181.668 36.1387Z" fill="white"/>
<path d="M92.5264 50.269L97.0444 50.2109C97.8795 51.9294 98.4679 53.5848 98.4457 55.5187C98.4145 58.2443 97.904 60.8234 96.9828 63.3928C95.001 68.9205 91.1274 73.4847 85.7199 76.0572L85.341 74.6851C84.8643 73.3094 84.1045 72.2663 82.7364 71.6576C81.4502 71.0851 80.4948 70.8765 79.1747 71.3834C76.6115 72.3678 75.5474 74.4305 74.4873 76.7567L70.9677 75.1838C65.6053 72.2405 60.6987 67.8963 57.8594 62.4766C67.7803 54.6126 79.9365 50.992 92.5264 50.269Z" fill="white"/>
<path d="M126.992 116.074L127.328 116.165L129.875 123.078C128.558 123.639 127.333 124.324 126.226 125.23C125.845 125.541 125.528 125.95 125.146 126.247C124.805 126.514 124.179 126.578 123.765 126.709C122.855 126.994 122.045 127.626 121.485 128.381C118.339 132.623 117.347 140.154 118.228 145.259C119.404 152.077 122.399 157.918 127.637 162.575C129.403 164.145 131.4 165.485 133.333 166.847C132.323 167.581 131.18 168.153 130.144 168.862L119.239 176.068C116.256 177.839 113.195 179.327 110.076 180.842C109.153 181.291 107.86 182.145 106.874 182.332C105.596 182.573 104.024 182.372 102.73 182.273L103.885 179.493L105.69 175.236C106.432 173.658 107.45 171.898 107.621 170.139C107.674 169.595 107.601 169.419 107.272 168.99C106.74 168.958 106.483 169.016 106.003 169.25L105.863 169.32C104.174 168.99 102.347 169.197 100.627 169.121C98.5458 169.029 96.4786 168.734 94.3944 168.774C96.2611 165.378 97.6422 162.222 98.4769 158.448C98.5916 157.93 98.8651 157.284 98.873 156.762C98.8817 156.219 98.5677 155.787 98.1573 155.452C97.7953 155.157 97.126 154.894 96.6533 154.982C94.6775 155.35 92.6564 155.276 90.6484 155.649L93.7629 152.434L99.7694 145.706L108.123 136.905L114.419 129.609L121.908 120.83C123.472 119.114 124.989 117.308 126.992 116.074Z" fill="white"/>
<path d="M78.0579 24.4812C82.495 24.1845 87.0701 24.4802 91.1901 26.2642C93.9316 27.4516 96.4566 29.2791 98.7453 31.1564C105.788 36.9329 108.736 46.3064 109.515 55.0174C110.081 61.3375 108.548 67.4697 105.557 73.0444C104.556 74.91 103.625 76.4966 102.241 78.1165C99.2754 81.5869 94.9307 84.6321 90.4369 85.8045C89.4337 86.0663 88.2964 86.0911 87.266 86.2187C85.9238 86.3848 84.5792 86.6554 83.234 86.7683L82.9005 86.4328C81.6842 85.0421 82.1248 81.8657 82.2235 80.1704C86.8537 79.4641 90.2343 77.2404 93.5663 74.1163C98.3989 69.585 101.467 62.3072 101.536 55.7481C101.59 50.7116 99.6119 44.8592 96.024 41.2392C91.1426 36.314 83.6374 34.7307 76.892 34.638C73.9711 34.9194 71.1096 35.456 68.3747 36.5327C62.51 38.8419 57.2769 42.8646 54.781 48.7106C52.609 53.7983 52.854 58.9928 55.0313 64.0433C57.5938 69.9881 62.7716 74.5154 68.6176 77.2914C70.2281 78.0561 71.9254 78.576 73.5769 79.2392L73.1102 86.487C71.3204 85.9498 69.4096 85.502 67.6865 84.7999C64.2382 83.3955 60.9241 81.16 58.1 78.7905C56.0195 77.0446 53.9745 75.086 52.3352 72.9269C51.2704 71.5244 50.4808 70.0289 49.6802 68.475C47.4137 64.0766 45.9388 59.7904 45.542 54.8307C45.3769 52.7725 45.1207 50.4979 45.2576 48.4459C45.5682 43.789 47.9381 38.933 51.0102 35.4214C53.8598 32.164 58.223 28.9553 62.3108 27.4095C67.2237 25.5514 72.839 24.8892 78.0579 24.4812Z" fill="white"/>
<path d="M94.7074 156.997C94.9543 156.944 95.2474 156.976 95.5013 156.978L95.5921 157.252C95.7065 157.963 95.1168 159.253 94.8628 159.951C93.6601 163.255 92.2887 166.361 90.5288 169.407C90.1972 169.981 90.1223 170.064 90.302 170.715C90.7419 171.143 90.838 171.245 91.4669 171.365C92.7197 171.602 94.1992 171.375 95.4877 171.441L103.905 172.013C103.474 172.874 102.966 173.711 102.582 174.591C101.781 176.421 101.18 178.312 100.298 180.115C99.7436 181.249 98.6396 182.383 98.4573 183.607C98.58 184.174 98.6489 184.384 99.065 184.793C102.496 185.14 105.974 185.798 109.424 185.62C111.262 185.525 113.055 185.065 114.897 184.939L110.05 197.202C109.661 198.109 109.366 199.173 108.851 200.011C108.66 200.322 108.422 200.502 108.108 200.682L107.767 200.881C107.367 201.195 107.265 201.732 107.248 202.211C107.234 202.611 107.309 203.051 107.629 203.326C108.124 203.751 108.754 203.491 109.341 203.381C110.948 203.081 112.626 203.396 114.231 203.602L123.454 205.2L117.138 216.855C116.896 217.325 116.665 217.875 116.345 218.297C115.866 218.928 115.241 219.109 114.979 219.918C115.05 220.52 115.02 220.562 115.477 221.016C116.732 221.338 118.148 221.221 119.442 221.218L128.659 220.877L141.722 244.672L136.812 245.655L117.94 250.955L105.513 229.067L89.4623 200.734L85.3878 193.904L72.7754 171.616L68.8219 163.987C68.1798 162.703 67.4667 161.452 66.9297 160.121C70.7141 159.3 74.8549 159.11 78.7242 158.723L88.0581 157.864L94.7074 156.997Z" fill="white"/>
<path d="M93.9221 89.8652C97.2242 91.879 100.102 94.777 102.944 97.3627L107.634 101.487L118.823 112.292L123.052 115.743C121.625 116.657 120.446 117.965 119.283 119.179L112.323 127.172L105.06 135.529L92.0146 149.71L86.399 155.773C79.0237 156.04 71.6961 157.26 64.3189 156.81C63.7195 157.316 63.333 158.014 62.8075 158.595C61.8531 159.651 60.7714 160.647 59.7232 161.613L46.9037 172.713C45.2525 170.936 43.9022 168.958 42.3428 167.108C38.324 162.34 33.7685 158.011 32.5907 151.655C32.5492 147.675 34.0635 144.234 36.0214 140.83C39.0633 135.542 42.8739 131.333 46.9594 126.832L61.9247 111.543L75.0612 97.6803C75.3496 100.145 75.6692 102.721 76.3551 105.111L77.2704 107.795C77.3112 107.91 77.5744 108.499 77.5571 108.595C77.4729 109.062 76.5825 110.028 76.3186 110.522C75.7932 111.505 75.4594 112.632 75.2456 113.72C74.5607 117.202 75.1388 120.884 77.2611 123.825C78.8185 125.982 81.5547 127.605 84.2008 128.047L84.4786 128.089C85.7287 128.292 87.1774 128.29 88.4284 128.117C91.7916 127.651 95.2395 125.62 97.2232 122.916C99.0594 120.413 99.8723 117.282 99.3641 114.229C98.837 111.062 97.0137 107.808 94.2931 105.962C92.8318 104.97 90.7987 104.364 89.0368 104.388C87.9275 104.403 86.5883 104.772 85.4734 104.954C84.8893 103.756 84.5624 102.43 84.2081 101.15C83.2918 97.8418 82.8357 94.7859 82.8012 91.3565C86.6566 91.631 90.2965 91.0787 93.9221 89.8652Z" fill="white"/>
<path d="M72.933 134.127C73.953 134.559 74.9124 135.061 75.8618 135.628C76.6621 136.106 77.3973 136.806 78.3763 136.7C78.7432 136.66 78.8327 136.673 79.146 136.888C79.505 137.134 79.7116 137.666 79.696 138.076C79.6622 138.974 78.1903 140.426 77.6048 141.115L70.2272 149.499C69.117 150.814 68.2449 152.305 66.9928 153.511C66.6467 153.507 66.4524 153.54 66.1607 153.323C65.5143 152.843 65.0293 151.882 64.4892 151.264C62.8566 149.397 61.2488 147.529 59.4716 145.792C58.8829 145.217 57.596 144.263 57.5273 143.414C57.7544 142.92 57.7044 142.847 58.2079 142.655C59.4355 143.001 60.2569 143.738 61.2243 144.52L66.3046 149.656L69.0773 146.584C68.1185 145.669 66.2598 144.138 66.1242 142.756L66.4126 142.72C67.6962 143.141 68.9413 144.751 69.9127 145.691L72.9373 142.17C72.6664 141.766 72.2292 141.508 71.8795 141.166C71.0935 140.396 69.8105 139.078 69.4151 138.076L69.6448 137.878C71.4266 138.438 72.6224 139.91 74.0863 140.997L76.9064 137.676C75.1534 136.728 74.1728 135.647 72.933 134.127Z" fill="#373737"/>
<path d="M179.166 36.3184C180.14 37.4379 180.924 38.9386 181.743 40.187L187.037 48.2181L195.452 60.9567L204.327 73.928L189.281 81.9239L156.262 98.961L144.604 105.905C140.272 108.211 135.508 109.9 130.972 111.789L127.125 113.411C126.377 113.742 125.643 114.17 124.838 114.343L124.316 113.828L98.1602 88.2457C103.128 85.3558 106.603 81.6814 109.149 76.5744C109.522 75.8256 109.629 74.962 109.99 74.2371C110.248 73.7208 112.874 72.4929 113.539 72.0715C129.895 61.7107 146.993 52.5098 164.34 43.8677C169.285 41.4038 174.111 38.5381 179.166 36.3184Z" fill="white"/>
<path d="M160.957 78.6348L161.383 78.7486C162.263 79.1202 162.356 79.9839 162.66 80.794C162.983 81.654 162.981 82.0478 162.764 82.9545C162.337 82.7799 162.002 82.5812 161.711 82.223C161.081 81.4491 160.811 79.5949 160.957 78.6348Z" fill="#373737"/>
<path d="M164.065 77.334C164.522 77.4351 164.73 77.4554 165.079 77.7797C165.883 78.5261 167.397 80.2664 167.434 81.3476C167.16 81.4051 166.871 81.4807 166.591 81.4028C165.889 81.207 165.211 80.3454 164.805 79.7897C164.214 78.9783 163.884 78.3382 164.065 77.334Z" fill="#373737"/>
<path d="M133.203 70.1448L134.624 70.0635C137.084 69.9748 139.677 70.542 141.496 72.282C142.661 73.3969 143.548 75.0116 143.625 76.6324C143.654 77.248 143.531 77.8812 143.545 78.5092C143.988 78.3358 144.367 78.2115 144.851 78.2699C146.661 78.4886 151.18 84.921 152.516 86.5775C153.998 85.6978 155.595 84.6808 157.319 84.3443C158.118 84.1886 158.657 84.2722 159.331 84.6913C159.629 85.2311 159.785 85.3884 159.563 86.0161C159.156 87.1692 158.208 87.5788 157.234 88.166C155.791 89.0361 154.359 89.7114 152.864 90.4716L149.042 92.4916L141.537 96.6237C139.593 97.7272 137.724 98.9104 135.63 99.7361C135.004 99.115 134.532 98.6492 134.34 97.7742L132.139 89.4503C131.761 88.0886 131.231 86.7175 131.071 85.3117L131.053 85.1293L129.062 84.1256C127.82 83.3077 127.201 82.026 126.878 80.6307C126.334 78.2836 126.342 75.5374 127.74 73.4688C129.103 71.452 130.809 70.6034 133.203 70.1448Z" fill="#373737"/>
<path d="M133.707 72.4435L135.372 72.4023C136.936 72.4046 138.659 73.0626 139.752 74.1799C140.766 75.2161 141.363 76.7384 141.223 78.182C141.14 79.0303 140.9 79.8296 140.893 80.6883C141.127 80.9929 141.113 81.1051 141.514 81.1913C142.239 81.3477 142.844 80.9857 143.417 80.5927L143.571 80.4847C145.127 81.4283 146.319 83.0873 147.409 84.4976L150.178 88.1L141.741 92.4745L136.71 95.2991C135.484 92.204 134.73 88.7811 133.964 85.545L134.112 85.4722C134.88 85.0858 135.546 84.7186 135.814 83.8938C135.695 83.539 135.612 82.9982 135.194 82.8598C134.999 82.7952 134.442 82.8579 134.213 82.8559C133.039 82.8458 131.938 82.9339 130.893 82.3089C129.943 81.7416 129.437 80.6534 129.215 79.6273C128.849 77.9307 128.875 76.2208 129.894 74.7543C130.871 73.3463 132.008 72.7379 133.707 72.4435Z" fill="white"/>
<path d="M207.183 75.373L213.748 75.5924C215.349 75.6599 217.006 75.6541 218.589 75.9188C222.534 76.579 226.288 77.9473 230.054 79.2375C228.84 80.7522 227.316 81.9661 225.829 83.2119C220.875 87.3639 215.515 90.7296 210.075 94.2017L193.1 104.922L169.132 120.273C167.969 119.855 166.64 118.57 165.576 117.881C163.986 116.851 162.163 115.951 160.414 115.209C154 112.487 146.692 112.487 140.215 115.085C138.242 115.876 135.769 116.831 134.898 118.902L135.056 119.147C135.399 119.196 135.669 119.244 135.983 119.392C135.734 120.069 135.874 120.971 136.087 121.644C136.494 122.927 137.191 124.374 137.795 125.579C138.16 126.308 140.263 129.487 140.244 130.003C140.242 130.038 139.584 130.72 139.521 130.789C138.167 132.279 137.22 133.743 136.922 135.753C136.538 138.348 136.709 142.358 138.402 144.497L138.546 144.674C139.817 146.26 141.508 147.344 143.429 148.016C146.041 148.93 148.447 148.71 150.916 147.53C153.293 146.393 155.891 143.596 156.727 141.104L156.809 140.852L156.961 140.397C157.771 137.783 157.297 133.676 155.921 131.288C154.297 128.468 150.978 127.621 147.919 127.566C147.025 127.55 145.9 127.688 145.051 127.471L139.675 118.354C140.566 117.822 141.544 117.326 142.537 117.012C148.378 115.166 155.474 115.821 160.909 118.561C167.154 121.71 172.963 127.557 175.111 134.261C176.528 138.68 176.784 143.365 175.47 147.84C175.093 149.125 174.558 150.578 173.769 151.676C172.572 153.34 170.874 154.197 169.903 156.056C171.616 157.933 172.936 159.97 174.309 162.092L180.456 172.093C182.084 174.732 183.958 177.266 185.441 179.985L185.544 180.177L196.988 199.519C197.747 200.876 199.417 203.065 199.397 204.566L199.39 204.742C199.804 205.196 199.924 205.189 200.505 205.336L201.729 204.97C202.703 204.759 204.002 205.325 204.815 205.825C206.598 206.922 207.879 209.458 208.304 211.449L208.363 211.734C209.152 215.419 208.381 219.623 206.514 222.887C206.032 223.729 205.369 224.434 204.883 225.28C205.181 226.919 205.714 228.527 206.25 230.103C205.475 229.746 204.691 229.374 203.986 228.892C203.389 228.484 202.539 227.633 201.848 227.455C201.429 227.347 200.935 227.489 200.505 227.474C199.843 227.45 199.033 227.125 198.399 226.917C195.015 225.803 192.423 224.016 190.071 221.388C187.55 218.57 186.004 214.722 183.998 211.517L165.655 181.913L157.276 168.056C156.392 166.667 155.499 164.943 154.382 163.731C154.319 163.662 153.845 163.152 153.74 163.172C153.465 163.223 152.89 163.633 152.622 163.776C150.556 164.881 148.775 165.492 146.387 165.386C139.848 165.096 134.018 160.821 129.76 156.248C125.28 151.436 123.14 144.878 123.466 138.376C123.624 135.23 124.077 132.502 125.474 129.646C126.164 128.237 126.936 127.043 128.438 126.379C130.423 125.5 132.577 125 134.219 123.521C133.176 120.661 132.005 117.691 131.594 114.67L207.183 75.373Z" fill="white"/>
<path d="M195.702 213.553C196.189 213.619 196.418 213.67 196.831 213.961L196.804 214.45C196.2 214.978 195.59 215.063 194.845 215.315C194.581 215.764 194.281 216.163 193.961 216.575L192.959 216.711L192.738 216.408C192.81 216.035 192.925 215.715 193.116 215.387C193.776 214.255 194.465 213.886 195.702 213.553Z" fill="#373737"/>
<path d="M200.951 220.572L201.659 220.531C202.193 220.621 202.297 220.845 202.612 221.223C202.638 221.505 202.729 221.809 202.606 222.076C202.261 222.824 201.305 223.191 200.591 223.522L199.67 223.493C199.417 223.348 199.151 223.225 198.982 222.98C198.736 222.624 198.792 222.523 198.854 222.12C199.462 221.395 200.135 221.022 200.951 220.572Z" fill="#373737"/>
<path d="M180.118 192.611C180.538 192.635 180.899 192.674 181.31 192.775C182.267 193.591 190.987 207.424 191.067 208.516C191.109 209.099 190.797 209.321 190.455 209.735C190.112 209.695 189.813 209.627 189.477 209.548C189.227 209.363 189.008 209.165 188.814 208.92C188.196 208.14 179.587 194.214 179.58 194.154C179.514 193.593 179.797 193.043 180.118 192.611Z" fill="#373737"/>
<path d="M158.575 156.193L159.107 156.27C159.527 156.374 159.862 156.673 160.106 157.016C160.694 157.844 161.133 158.831 161.638 159.712L164.482 164.415L178.728 187.947C178.557 188.319 178.163 188.348 177.785 188.49C177.353 188.573 176.907 188.555 176.468 188.559C175.279 187.369 174.361 185.347 173.467 183.886L167.31 173.814L160.027 161.997C159.35 160.879 157.759 158.83 157.562 157.578C157.706 156.934 158.102 156.635 158.575 156.193Z" fill="#373737"/>
<path d="M64.4332 161.436C65.1545 161.731 66.3105 164.623 66.7285 165.409L70.87 172.916L91.4706 208.018L105.412 233.807L111.889 245.808C113.05 247.892 114.142 250.012 115.498 251.983C112.686 254.892 108.808 257.02 105.535 259.43L89.1149 271.59L76.8775 279.623L75.6363 280.552C74.1306 279.138 72.9438 277.055 71.8512 275.323L68.7148 270.6L61.5116 259.488L56.1011 250.306L44.1597 230.122L31.6325 205.97C29.7947 202.537 27.1009 199.671 26.0195 195.874L64.4332 161.436Z" fill="white"/>
<path d="M65.8294 202.326C69.0125 202.101 71.9489 202.859 74.7505 204.34C76.8857 205.468 78.643 207.881 79.3133 210.138L79.775 211.84C80.8594 216.689 79.7213 221.751 77.0136 225.901C78.7043 230.97 81.9368 235.289 84.7546 239.764C85.5648 241.05 85.9765 242.665 85.5724 244.154C85.0337 246.14 82.6253 247.406 80.9827 248.395C80.1947 248.87 79.478 248.831 78.5796 248.847C77.8944 248.428 77.4131 248.012 76.889 247.409C73.5289 242.293 71.5024 236.46 68.5991 231.092L68.1946 231.26C67.8048 231.445 67.5326 231.598 67.0921 231.678C64.3883 232.17 61.1843 231.312 58.9364 229.832C55.681 227.688 53.3771 223.868 52.6753 220.094C51.8731 215.779 53.154 211.147 55.7132 207.597C57.2799 205.424 59.8663 204.47 62.2349 203.507C63.4667 203.006 64.4937 202.547 65.8294 202.326Z" fill="#373737"/>
<path d="M63.5463 205.27C64.9101 205.14 66.3892 205.161 67.7501 205.327L68.07 205.368C69.5995 205.551 71.57 205.968 72.9228 206.715C78.1692 209.611 77.7426 216.858 75.9312 221.663C75.4814 222.856 74.8035 223.946 74.3327 225.126C74.223 225.402 73.9677 225.937 73.9621 226.21C73.9535 226.64 74.5664 227.765 74.7541 228.194C76.0439 231.138 77.5012 233.936 79.1405 236.707C80.4072 238.848 82.2477 240.99 82.9846 243.352C81.947 244.227 80.6688 245.588 79.3411 245.913L78.9327 245.637C77.2151 243.129 76.1179 239.984 74.8393 237.233L70.291 228.028C68.122 228.071 65.9338 228.256 63.8181 227.697C61.6517 227.124 58.8184 226.023 57.685 223.945C56.2532 221.32 55.7105 219.01 55.7566 216.044C55.7718 215.078 55.7675 214.091 56.042 213.157L56.1239 212.9C56.4153 211.957 56.776 211.06 57.2328 210.183C57.8139 209.067 58.4133 207.794 59.4068 206.977C60.509 206.071 62.2063 205.695 63.5463 205.27Z" fill="white"/>
<path d="M64.5566 208.189C66.2694 208.122 68.8585 207.913 70.3917 208.803C72.141 209.817 73.6172 212.922 74.0505 214.816C74.5994 217.215 74.6518 219.14 73.283 221.287C71.9524 223.374 70.0499 224.369 67.6634 224.91C66.3612 225.293 64.6265 225.238 63.3121 224.917C61.935 224.58 60.2649 223.924 59.5349 222.652C58.8902 221.528 58.0465 219.717 57.8512 218.45C57.59 216.755 58.0637 214.063 58.6114 212.432C59.0022 211.266 60.18 210.111 61.2747 209.555C62.3504 209.008 63.4059 208.56 64.5566 208.189Z" fill="#373737"/>
<path d="M66.0324 210.302C67.1708 210.265 68.2873 210.217 69.3365 210.743C70.9556 211.555 71.6922 213.399 72.1738 215.021C72.6661 216.677 72.2842 218.588 71.4024 220.066C70.3045 221.905 68.0072 222.359 66.0669 222.822C64.9981 223.026 63.9088 223.103 62.8433 222.835C61.7255 222.554 60.606 221.734 60.0256 220.749C59.2475 219.428 59.4385 217.005 59.8542 215.584L59.9483 215.266C60.0733 214.827 60.1817 214.392 60.3896 213.982C61.5419 211.705 63.8011 211.112 66.0324 210.302Z" fill="white"/>
</svg>
