<svg width="128" height="132" viewBox="0 0 128 132" fill="none" xmlns="http://www.w3.org/2000/svg">
<path d="M73.602 0L73.6994 0.0967067C74.0092 1.35874 70.7607 8.82539 70.0333 10.3407L69.9961 10.3499C70.0723 9.12794 70.4613 7.84168 70.7915 6.66666C71.4263 4.40848 72.1491 1.87641 73.602 0Z" fill="#373737"/>
<path d="M90.1256 9.3125L90.1997 9.3932C90.0344 9.73072 89.6924 9.99535 89.4279 10.2574L87.8744 11.8088L82.5145 17.2951C82.4267 17.0802 82.4849 17.0571 82.5668 16.84C82.916 15.9164 83.5547 15.0509 84.1515 14.2719C85.7651 12.1669 87.702 10.4129 90.1256 9.3125Z" fill="#373737"/>
<path d="M56.4927 7.97266L56.6916 8.12962C58.4109 9.90489 58.8898 17.9379 59.0268 20.5323C57.7734 17.7266 57.0181 14.3492 56.6013 11.3235C56.4547 10.2595 56.2773 9.03011 56.4927 7.97266Z" fill="#373737"/>
<path d="M41.4141 19.6758C41.5409 19.6829 41.6467 19.6886 41.7649 19.7411C42.6578 20.1376 43.6006 21.1852 44.3096 21.8501L48.7417 26.2906C49.4686 27.0702 50.3221 27.8737 50.7917 28.8395C50.5641 28.825 50.357 28.7858 50.157 28.6729C49.3501 28.2174 48.577 27.5217 47.8651 26.929C46.1402 25.4929 44.4909 23.9269 43.0479 22.2066C42.4112 21.4477 41.7202 20.6321 41.4141 19.6758Z" fill="#373737"/>
<path d="M97.9185 22.6028C98.309 22.5482 98.6388 22.536 99.0302 22.5874L99.1596 22.7831C98.441 23.5336 97.1006 24.0627 96.1619 24.5336L89.8819 27.542L89.3452 27.7139C89.0129 27.8049 88.9665 27.8726 88.6652 27.7017L88.6055 27.471C89.4191 26.6434 90.3981 25.9892 91.3773 25.3742C93.3494 24.1358 95.6044 22.9997 97.9185 22.6028Z" fill="#373737"/>
<path d="M47.6914 51.25C49.0732 52.2409 50.2726 53.6281 51.34 54.9407C52.9941 56.9749 54.5125 59.0365 55.2367 61.5873L54.0863 60.3179C53.3938 59.6905 53.0782 58.9743 52.6276 58.1813L50.9644 55.5C49.9586 54.0233 48.8175 52.6359 47.6914 51.25Z" fill="#373737"/>
<path d="M99.2248 93.5625L99.3926 93.6287C99.1625 94.7698 98.5023 95.996 98.0423 97.08L93.9662 96.5168L92.9727 96.3499L99.2248 93.5625Z" fill="#373737"/>
<path d="M104.897 81.9512L99.6437 91.5892C98.5532 92.1892 97.3391 92.6412 96.1967 93.1369L91.3533 95.3034C90.9241 95.4952 90.2357 95.9726 89.8121 96.0514C89.5514 96.1001 89.0895 95.993 88.8066 95.9692L85.9543 95.7303L79.6395 95.3877C79.2962 95.3745 78.7521 95.4402 78.5098 95.2095C79.3348 94.3452 80.8737 93.6257 81.9116 93.0004C89.1724 88.6258 96.905 84.8094 104.897 81.9512Z" fill="#373737"/>
<path d="M119.078 90.4609C119.421 90.7462 119.5 91.2704 119.623 91.6832L120.433 94.4992L128.001 91.6539C125.134 100.158 119.814 107.702 112.952 113.466C110.867 115.18 108.399 116.933 105.885 117.941C105.9 117.375 105.847 112.703 105.88 112.643C106.041 112.349 106.913 111.805 107.213 111.533C108.169 110.666 109.055 109.724 109.909 108.757C113.013 105.237 115.587 100.882 117.244 96.4955C117.985 94.5334 118.518 92.4804 119.078 90.4609Z" fill="#373737"/>
<path d="M120.879 97.3164C121.209 97.5452 121.483 97.793 121.654 98.1594C121.598 98.4817 121.36 98.6823 121.147 98.9147L121.036 98.8837C120.657 98.7556 120.503 98.598 120.318 98.2647C120.397 97.8646 120.626 97.6259 120.879 97.3164Z" fill="#373737"/>
<path d="M116.832 104.129C117.144 104.266 117.338 104.306 117.542 104.583L117.513 104.704C117.095 106.153 116.058 107.441 114.768 108.196C114.445 108.104 114.324 108.096 114.086 107.849C114.26 107.404 115.069 106.97 115.411 106.605C116.067 105.907 116.503 105.014 116.832 104.129Z" fill="#373737"/>
<path d="M17.6018 92.0762C20.278 93.2685 22.8347 94.8023 25.3048 96.3698C31.8679 100.535 37.6634 105.433 42.8739 111.193C46.7655 115.495 50.1485 120.048 52.7937 125.223L51.6416 127.001L49.7206 124.539C46.7915 121.46 43.9247 118.344 40.7289 115.53C36.3378 111.663 31.5882 108.52 26.4981 105.65C21.8591 103.035 16.9383 100.673 11.8887 98.9681L17.6018 92.0762Z" fill="#373737"/>
<path d="M15.2626 91.0742L16.2933 91.5038C15.3183 92.8994 10.5673 97.6947 10.5259 98.9378C10.5149 99.2722 10.5886 99.662 10.8223 99.9099C11.1196 100.225 11.6782 100.422 12.0749 100.59L14.8955 101.763C22.5197 104.959 30.1766 108.976 36.698 114.086C41.1064 117.541 45.0915 121.553 48.8334 125.706C47.4827 126.347 46.0171 126.801 44.6499 127.433L41.7647 128.853C41.2339 129.128 40.6987 129.503 40.1285 129.676L39.7252 129.188L38.8402 128.205C37.0389 126.317 35.1524 124.599 33.0376 123.065C28.0849 119.474 22.5915 116.793 16.9269 114.526C11.6032 112.396 5.78177 110.463 0 110.315C0.682345 109.403 1.1504 108.354 1.77616 107.402C3.40095 104.931 5.11674 102.495 6.98833 100.203C8.66105 98.1551 10.5666 96.2273 12.3875 94.307C13.3308 93.3124 14.3436 92.3333 15.1535 91.2255L15.2626 91.0742Z" fill="#373737"/>
<path d="M10.8682 105.347L11.1533 105.336C11.4116 105.518 11.3702 105.557 11.4257 105.873C11.1662 106.347 10.5325 106.679 10.096 106.988C9.86736 106.986 9.78564 106.955 9.59961 106.823C9.65958 106.219 10.4238 105.711 10.8682 105.347Z" fill="#373737"/>
<path d="M8.63972 102.486C8.77823 102.523 8.90324 102.589 9.0331 102.648L9.09033 102.899C8.84517 103.56 8.42074 104.114 8.05629 104.712C7.66248 105.357 7.32273 105.989 6.84572 106.58C6.6295 106.466 6.56868 106.388 6.45508 106.173C6.48865 105.013 7.81536 103.273 8.63972 102.486Z" fill="#373737"/>
<path d="M33.2245 73.0508C33.7405 73.5339 34.392 73.7701 35.0081 74.1011L37.3367 75.4413L43.5498 79.4216L43.5558 79.5272C43.2192 79.8087 42.8645 80.0885 42.5618 80.4056C42.3545 80.623 42.1653 80.9085 41.9227 81.0821C41.6212 81.2978 41.571 81.313 41.4697 81.6731C41.5685 82.0772 41.6761 82.4419 41.8989 82.7967C42.2702 83.3881 42.7721 83.9323 43.2057 84.4801L45.7953 87.7232L52.6599 96.4427C51.3799 96.7587 50.0724 97.3027 48.9742 98.0327C49.0907 99.0114 49.4097 100.016 49.6713 100.967L50.7339 105.016C51.9117 109.805 52.8086 114.612 53.4996 119.492C53.7343 121.149 54.054 122.765 54.1065 124.443C53.4084 123.602 52.9215 122.371 52.3464 121.424L48.6419 115.862C41.5611 106.648 33.0801 99.0219 22.9718 93.2296C20.0138 91.5346 16.9433 89.9113 13.6816 88.8869C15.9309 86.6325 18.6525 84.6303 21.1568 82.6602L33.2245 73.0508Z" fill="#373737"/>
<path d="M28.3885 88.2676C28.603 88.2853 28.7508 88.2986 28.9415 88.4018L28.9989 88.6253C28.8646 89.2673 28.1815 89.7896 27.7092 90.2061L27.6872 90.2C27.4095 90.0627 27.3227 90.0209 27.207 89.7315C27.3802 89.0857 27.9068 88.6925 28.3885 88.2676Z" fill="#373737"/>
<path d="M28.0978 83.1055C28.4088 83.2359 28.5319 83.3197 28.6618 83.6214C28.269 84.3344 27.5604 84.9313 26.9816 85.4974C26.0016 86.4556 25.0277 87.3995 23.9375 88.2332L23.7454 88.2271C23.5192 88.0737 23.5074 88.0358 23.3984 87.7826C23.5973 86.7555 27.1731 83.9579 28.0978 83.1055Z" fill="#373737"/>
<path d="M72.4443 24.3496C76.4453 29.2777 80.7051 34.1526 83.5354 39.8844C84.6991 42.2408 85.5526 44.7345 86.1408 47.2938C86.7442 49.92 86.9775 52.5387 87.295 55.2035C83.8242 56.345 80.4819 57.854 77.1682 59.3806L64.4141 65.8421L61.9564 67.2602C60.1277 59.6861 55.7497 53.2557 50.6602 47.4794C54.2281 46.0928 57.4266 44.0936 60.437 41.74C64.2418 38.7652 67.5932 35.0668 70.0097 30.8789C71.2175 28.7859 72.1498 26.7618 72.4443 24.3496Z" fill="#373737"/>
<path d="M73.1415 32.6406L73.4859 32.695C73.7431 32.7803 73.7786 32.8857 73.8884 33.1088C73.9349 34.0508 72.7672 35.6069 72.1622 36.3155C71.8723 36.199 71.6172 36.1339 71.4531 35.8477C71.8197 34.7515 72.5406 33.626 73.1415 32.6406Z" fill="#373737"/>
<path d="M73.7809 33.998C74.5141 34.166 75.299 35.0981 75.7829 35.6471C76.6345 36.6131 77.4815 37.7028 77.3989 39.0466C77.125 39.0557 76.9576 39.066 76.7 38.9547C76.2247 38.2685 75.8942 37.4968 75.436 36.7958C74.9714 36.0849 74.1821 35.3458 73.8439 34.5914C73.759 34.4019 73.7742 34.1997 73.7809 33.998Z" fill="#373737"/>
<path d="M62.1182 45.4727C62.4157 45.6191 62.5544 45.8091 62.75 46.0641C62.8044 46.2948 62.8203 46.4511 62.7567 46.6835C62.2873 48.3972 60.1496 49.6161 58.7312 50.4757C59.1611 51.683 59.8586 52.6405 60.5829 53.6826C60.8498 54.0669 61.2501 54.5239 61.4277 54.951C61.5411 55.2232 61.43 55.3032 61.3056 55.5521C60.2165 55.0883 58.7348 52.9627 58.2339 51.8856C58.1193 51.6387 57.6537 50.2374 57.7544 50.0459C57.8019 49.9551 58.4328 49.6077 58.5498 49.5303C59.7089 48.7655 61.2488 47.6748 61.7465 46.3264L62.1182 45.4727Z" fill="#373737"/>
<path d="M93.3717 54.9688C93.841 55.3743 94.1868 56.3229 94.5143 56.8753C98.8938 64.2638 102.529 72.0443 106.184 79.8047C105.908 80.0367 105.307 80.13 104.955 80.2364L102.437 81.0779C99.7047 82.0732 97.0632 83.2813 94.4298 84.5092L82.207 90.871L77.1018 94.0773C76.6139 94.3937 75.8292 95.0772 75.3014 95.2491C75.0286 95.338 74.5395 95.2546 74.2435 95.2396L72.0233 95.1562L64.7932 95.1794C61.6596 95.2736 58.5626 95.5344 55.4756 96.0776C55.2482 96.1212 54.5859 96.3057 54.4139 96.1557C54.1956 95.9653 53.9771 95.597 53.7949 95.3656L52.325 93.5147L47.8697 87.9965C46.1903 85.9206 44.5444 83.6241 42.293 82.1444C46.5331 78.3195 51.5422 75.247 56.409 72.293C65.5066 66.7708 74.8217 61.7865 84.6929 57.7673C87.466 56.6383 90.3605 55.2235 93.3717 54.9688Z" fill="#373737"/>
<path d="M89.2775 61.6801C89.6712 61.6591 90.1008 61.6077 90.4844 61.7099C91.1389 61.8839 91.589 62.3946 91.9074 62.9723C92.2788 63.6459 94.0361 67.4033 93.8829 67.9235L93.7591 67.9572C92.1745 68.2714 91.6034 63.5993 90.4741 62.9264C89.7288 62.4822 88.7678 62.8781 88.0084 63.0878C85.3155 63.9838 82.6926 65.1321 79.834 65.3289C80.7845 64.7623 81.8736 64.3597 82.8936 63.9299C84.9526 63.0627 87.0835 62.1287 89.2775 61.6801Z" fill="#373737"/>
<path d="M60.3682 79.9648C61.4529 81.1837 62.5588 83.2316 62.5258 84.9015C62.5009 86.1619 62.1346 87.2756 61.1913 88.1531C60.2231 89.0536 59.1473 89.2969 57.8717 89.254L57.388 89.1294C56.3277 88.7652 55.8362 88.1183 55.373 87.1633C55.5086 86.9825 56.3062 86.8662 56.5672 86.7714C59.4551 85.7222 59.2207 82.277 60.3682 79.9648Z" fill="#373737"/>
<path d="M62.3925 96.7933C66.4864 96.5959 70.6007 96.7381 74.6941 96.8594L95.308 98.2315C97.3046 98.4622 99.6183 98.5395 101.514 99.188C102.185 99.4176 102.417 99.6296 102.715 100.26C103.328 101.552 103.619 102.975 103.869 104.373C104.237 106.432 104.436 108.512 104.56 110.6C104.877 115.923 104.872 121.2 104.499 126.52L104.269 129.228C104.228 129.667 104.227 130.208 104.058 130.615C103.911 130.97 103.598 131.121 103.265 131.269C100.894 132.328 98.072 131.97 95.5738 131.809C94.7581 131.757 93.7852 131.804 93.0214 131.514C81.6044 125.72 68.15 124.578 55.5429 124.287C55.4532 122.009 54.9872 119.731 54.6034 117.486L52.1611 105.953C51.5394 103.506 50.9031 101.091 50.043 98.7133C50.381 98.4643 51.1357 98.3762 51.5576 98.2726C55.135 97.3925 58.7118 96.9161 62.3925 96.7933Z" fill="#373737"/>
<path d="M98.6935 120.705C99.041 120.765 99.246 120.805 99.4685 121.093C100.028 121.817 100.238 123.301 100.078 124.191L100.048 124.337C99.9427 124.877 99.7584 125.28 99.3771 125.686C97.8454 127.32 95.807 126.467 93.9063 126.348C92.937 126.287 91.9494 126.346 90.9808 126.402C90.7437 126.385 90.4547 126.397 90.2391 126.292C90.1192 126.233 90.1401 126.141 90.1133 126.022C90.3727 125.681 90.8009 125.568 91.2109 125.462C92.0807 125.236 93.0105 125.168 93.908 125.204C95.1283 125.253 97.0258 125.732 98.1281 125.146C99.1767 124.588 99.1434 123.333 98.889 122.335C98.727 121.7 98.4657 121.36 98.6935 120.705Z" fill="#373737"/>
<path d="M68.8377 106.07C69.2503 106.148 69.2703 106.269 69.5275 106.586C69.6018 108.066 68.9748 109.642 68.2358 110.905C67.7378 111.757 66.8469 112.704 65.8671 112.943L65.7279 112.974C65.5985 113.005 65.4731 113.038 65.3397 113.046C64.4306 113.102 63.8105 112.503 63.1968 111.938L63.0636 111.771C62.5554 111.092 61.9676 109.929 62.1148 109.056C62.5516 108.818 63.8692 109.725 64.514 109.689C65.2531 109.648 68.1174 106.749 68.8377 106.07Z" fill="#373737"/>
</svg>
