<svg width="151" height="150" viewBox="0 0 151 150" fill="none" xmlns="http://www.w3.org/2000/svg">
<path d="M90.0069 140.854L90.3397 140.905C90.4322 141.015 90.6026 141.135 90.5792 141.289C90.4739 141.976 88.3336 144.028 87.7353 144.438L87.3946 144.463L87.2083 144.293L87.1992 143.957C87.2134 143.633 87.3988 143.432 87.5964 143.197C88.3116 142.344 89.1891 141.608 90.0069 140.854Z" fill="#373737"/>
<path d="M94.9725 138.627L95.1983 138.72C95.1947 138.93 95.1723 139.048 95.08 139.24C94.524 140.398 93.8254 141.515 93.1186 142.586C92.742 143.156 92.4311 143.758 91.7512 144C91.5728 143.888 91.4467 143.811 91.3082 143.647C91.2039 143.525 91.2088 143.562 91.2338 143.41C91.351 142.694 92.1177 141.915 92.5579 141.354C93.3058 140.399 93.9643 139.321 94.9725 138.627Z" fill="#373737"/>
<path d="M99.653 136.414L99.9073 136.467C99.9761 136.65 100.036 136.749 99.9857 136.947C99.86 137.447 99.3875 138.08 99.1319 138.549C98.3683 139.949 97.6363 141.526 96.6952 142.811C96.4584 143.134 96.247 143.387 95.8878 143.58C95.7006 143.458 95.546 143.315 95.3832 143.164C95.3586 143.05 95.3298 142.937 95.3433 142.819C95.3955 142.357 95.8838 141.732 96.1272 141.332L98.0973 138.349C98.5689 137.663 98.9683 136.913 99.653 136.414Z" fill="#373737"/>
<path d="M105.079 134.982C105.311 135.089 105.344 135.096 105.477 135.31C105.385 136.128 104.944 136.915 104.586 137.645C103.835 139.175 103.109 140.72 101.892 141.949C101.727 141.832 101.612 141.715 101.481 141.56C101.382 141.04 101.357 140.649 101.661 140.194L104.243 135.776C104.473 135.377 104.69 135.222 105.079 134.982Z" fill="#373737"/>
<path d="M127.271 89.0944C127.65 89.0842 128.054 89.0258 128.36 89.2945C129.157 89.9956 129.577 91.8127 129.661 92.8413C129.714 93.4876 129.765 93.8847 129.327 94.4045C128.954 94.4478 128.614 94.4972 128.271 94.312C127.668 93.9857 127.28 92.9332 127.1 92.2973C126.812 91.2843 126.744 90.0214 127.271 89.0944Z" fill="#373737"/>
<path d="M103.877 129.982L104.214 130.243C104.239 130.276 104.32 130.415 104.324 130.473C104.329 130.562 104.184 130.873 104.153 130.955L103.583 132.42C103.155 133.594 102.993 134.878 102.71 136.093C102.287 136.517 102.103 137.124 101.859 137.665C101.143 139.253 100.478 141.262 99.2517 142.51L98.7832 142.056C98.7629 141.925 98.7415 141.8 98.7535 141.667C98.7958 141.195 99.1854 140.627 99.4112 140.203C99.9822 139.129 100.698 137.399 101.699 136.689L101.769 136.642C102.039 135.77 102.448 134.678 102.445 133.764C102.443 133.296 102.653 132.905 102.806 132.472C103.111 131.612 103.357 130.743 103.877 129.982Z" fill="#373737"/>
<path d="M33.0828 69.0394L33.3897 69.0182C34.3198 68.9592 34.9238 69.3189 35.797 69.505C36.6027 69.6767 37.764 69.6174 38.3966 70.1748C38.5375 70.4176 38.4843 70.6459 38.457 70.9118C38.1708 71.2446 37.5516 71.3536 37.1389 71.4848L36.7541 71.5372C35.116 71.7861 33.4733 71.0389 31.953 70.5258C31.7518 70.2617 31.7987 70.2173 31.8253 69.8984C32.1852 69.3067 32.4457 69.2185 33.0828 69.0394Z" fill="#373737"/>
<path d="M134.859 86.248L135.405 86.2648C135.951 86.5624 136.429 87.0013 136.911 87.3914C137.986 88.2603 139.23 89.3005 139.643 90.675C139.556 91.0213 139.491 91.0701 139.249 91.3168C138.913 91.3222 138.515 91.3266 138.186 91.2579C136.746 90.9571 135.556 89.4597 134.826 88.2966C134.601 87.9394 134.464 87.669 134.423 87.2384C134.382 86.7986 134.587 86.5699 134.859 86.248Z" fill="#373737"/>
<path d="M50.0837 49.3828C50.4489 49.3893 50.8952 49.4353 51.1502 49.73C51.8512 50.54 53.375 54.2181 53.2494 55.2467C53.2071 55.5942 52.9641 55.7801 52.7099 55.985C52.3618 56.0027 52.1529 56.0696 51.8711 55.8241C51.2719 55.3023 50.9783 54.3362 50.6513 53.6373C50.2022 52.6774 49.5921 51.7157 49.5561 50.6243C49.5373 50.0539 49.706 49.7956 50.0837 49.3828Z" fill="#373737"/>
<path d="M149.848 62.3342L149.949 62.3247C150.394 62.2854 150.615 62.2865 150.962 62.5793C151.009 62.7999 151.028 62.8706 150.909 63.0825C150.387 64.0132 144.8 65.7491 143.529 66.2098L142.837 66.3352C142.567 66.1954 142.533 66.2223 142.441 65.9385C142.5 65.6378 142.587 65.4134 142.779 65.1705C143.947 63.6967 148.036 62.5111 149.848 62.3342Z" fill="#373737"/>
<path d="M57.9453 66.1871C58.2269 66.1777 58.5869 66.1525 58.8309 66.308C59.1186 66.4915 59.4338 66.5422 59.7525 66.6601C60.4065 66.9019 60.4655 67.2144 60.7515 67.79L60.9275 68.1674C61.085 68.6155 60.9934 69.209 60.7766 69.6243C60.4091 70.3282 59.8173 70.637 59.1016 70.8789C58.3908 70.9775 57.7815 70.9559 57.1527 70.5631C56.589 70.2112 56.2051 69.7325 56.0715 69.0763C55.9079 68.272 56.0178 67.7515 56.4748 67.0753C56.8789 66.4772 57.267 66.3336 57.9453 66.1871Z" fill="#373737"/>
<path d="M58.7778 66.8594C58.9737 66.9449 59.0487 67.0538 59.1764 67.222C59.5899 67.7663 59.6573 68.4681 59.5598 69.1289C59.3037 69.3929 58.9153 69.4622 58.5722 69.5667C58.2484 69.4462 58.024 69.3214 57.8055 69.0458C57.5875 68.7705 57.6155 68.4123 57.6767 68.0851C57.788 67.4894 58.3193 67.1816 58.7778 66.8594Z" fill="#373737"/>
<path d="M138.228 77.9873C139.186 77.9472 140.204 77.9556 141.14 78.1826C142.595 78.5355 144.263 79.0463 145.229 80.2712C145.464 80.5691 145.508 80.8133 145.461 81.1833C145.282 81.4037 145.193 81.4951 144.914 81.5704L144.313 81.6891C142.019 81.6515 138.847 81.1704 137.228 79.3621C136.944 79.0455 136.957 78.9571 136.989 78.5576C137.326 78.1404 137.716 78.1012 138.228 77.9873Z" fill="#373737"/>
<path d="M35.0624 54.416C36.4835 55.0777 37.7934 56.0561 39.0864 56.9363C41.2672 58.4211 43.3501 59.9148 45.3727 61.6071C45.956 62.0952 46.5765 62.537 47.1273 63.0636C47.4074 63.3315 47.5827 63.5016 47.5913 63.9103C47.3696 64.1707 47.2566 64.1587 46.9321 64.2412C45.6408 63.7808 44.3787 63.0948 43.167 62.4591C42.6905 62.209 42.1838 62.0172 41.7146 61.7567C40.2095 60.9205 38.8129 59.9686 37.4577 58.9108C36.5804 58.2261 35.8488 57.4329 35.1115 56.6043C34.6702 56.1084 34.2176 55.7136 34.1328 55.0198C34.183 54.8827 34.2244 54.7528 34.3217 54.6401C34.5367 54.3908 34.7512 54.444 35.0624 54.416Z" fill="#373737"/>
<path d="M47.8787 93.3184C49.1529 93.5268 50.4241 93.9986 51.667 94.3502L57.7717 95.8304L61.251 96.3472L65.5168 96.9377C67.122 97.0992 68.697 97.1679 70.2963 97.4212C70.7396 97.4914 71.0691 97.5795 71.3429 97.9512C71.4005 98.3571 71.4661 98.4765 71.2731 98.8489C69.5781 99.0829 67.6769 98.953 65.9701 98.8491C60.6066 98.5229 54.7267 97.3083 49.9094 94.8763C49.2537 94.5452 48.3219 94.1632 47.832 93.6117L47.8787 93.3184Z" fill="#373737"/>
<path d="M47.9745 131.688C49.6333 132.33 51.2943 133.031 53.0068 133.518C56.0573 134.385 59.2838 134.739 62.4204 135.163C63.8637 135.358 65.374 135.351 66.8032 135.583C67.4403 135.686 68.0578 135.681 68.6988 135.726L74.1378 135.919C74.9446 135.917 75.7412 136.026 76.5467 136.017L80.0551 135.9C80.4429 135.87 80.8209 135.776 81.2092 135.75L85.0409 135.563C87.6342 135.386 90.2212 135.42 92.7994 135.018L98.1652 134.036L100.636 133.437C101.015 133.341 101.462 133.181 101.845 133.157C102.079 133.142 102.197 133.268 102.348 133.42L102.306 133.538C101.871 133.893 101.261 134.052 100.738 134.248C100.358 134.389 99.9859 134.645 99.6134 134.817C98.8482 135.17 98.0014 135.452 97.1972 135.706C92.994 137.034 88.5436 137.626 84.1494 137.841L81.3016 137.858L73.7768 137.943C69.2946 137.831 64.8132 137.465 60.3892 136.739C57.2343 136.221 54.3278 135.601 51.3115 134.53C50.359 134.192 49.2276 133.949 48.3752 133.409C47.9812 133.159 47.6501 132.788 47.3286 132.453C47.3146 132.182 47.3279 132.153 47.4632 131.916L47.9745 131.688Z" fill="#373737"/>
<path d="M45.8725 97.2438C45.8132 97.5317 45.755 97.7666 45.6169 98.0273C46.1877 98.1141 46.8277 98.1769 47.371 98.3711C48.9845 98.9477 50.4806 100.394 51.4824 101.742C54.0218 105.158 54.7214 108.859 54.6507 113.047C54.6317 114.172 54.6247 115.334 54.4494 116.448C54.2387 117.787 53.7298 119.206 53.1679 120.439C51.8982 123.226 50.2993 125.433 47.7866 127.235C46.7418 127.985 45.698 128.379 44.482 128.771C44.3448 128.815 44.2488 128.789 44.2272 128.938C44.1493 129.479 44.2048 130.093 44.2047 130.64L44.189 132.961C44.2399 134.376 44.4615 135.878 44.3361 137.291C44.2878 137.838 43.6841 139.444 43.9809 139.882C44.08 140.028 44.4026 140.215 44.5551 140.323L46.6975 141.713C48.2859 142.831 49.8483 144.057 51.6663 144.787C53.6944 145.601 55.9727 145.993 58.1333 146.281C61.1159 146.679 64.0887 146.878 67.0916 147.009C70.2031 147.144 73.357 147.255 76.4714 147.127C77.4964 147.085 78.4853 146.884 79.5014 146.791C80.9216 146.662 82.3387 146.652 83.7594 146.475L89.0113 145.719C89.5495 145.637 90.0708 145.485 90.6135 145.412C92.5438 145.152 94.5234 145.187 96.4358 144.843C98.1315 144.538 104.07 143.113 105.119 141.954C105.485 141.55 105.716 141.08 105.866 140.562L105.913 140.404C106.141 139.582 106.123 138.685 106.128 137.838L106.137 134.619L106.21 128.753L106.247 121.583C106.268 121.011 106.396 120.45 106.42 119.879L106.502 114.709L106.549 106.751L105.849 92.2342C105.745 90.2973 105.46 88.393 105.487 86.4494C102.626 87.5926 99.6826 88.9078 96.7207 89.7515L92.9511 90.6409C92.1 90.8033 90.8207 90.7388 90.0681 91.1303C89.0656 91.6518 88.1746 92.6495 87.7251 93.677C87.2637 94.7322 87.1211 96.334 87.3606 97.4736L94.6595 96.0815C95.7845 95.8761 97.3616 95.2898 98.4731 95.5778C98.65 95.8424 98.6428 95.8643 98.6306 96.1845C97.3312 97.6647 90.7637 98.6333 88.7738 98.7651L87.628 98.8082C87.6644 101.486 87.431 104.4 85.4335 106.425C84.3204 107.553 83.1469 107.906 81.5918 107.902C81.4477 107.902 81.0681 107.943 80.9442 107.894C80.448 107.697 79.7452 107.143 79.3629 106.758C78.7342 106.125 78.5484 105.331 78.022 104.678C77.0996 105.329 76.2149 105.892 75.0235 105.675C74.199 105.524 73.3012 104.797 72.861 104.119C72.0627 102.89 71.681 101.476 71.5654 100.03C71.515 99.4008 71.5481 98.7612 71.4894 98.1366L71.0632 94.2937C70.8421 92.8248 70.4904 91.4192 69.4175 90.3373L68.8211 90.9687C65.3407 90.8945 61.926 90.2979 58.5054 89.688C55.3528 89.126 52.1506 88.6874 49.2447 87.2607C48.1552 86.726 47.2161 85.9527 46.3725 85.0833C45.8056 84.4991 45.3209 83.6371 45.3477 82.7971C45.3778 81.8584 46.061 80.9042 46.7487 80.3096C49.1175 78.2617 52.2773 77.023 55.2516 76.14C55.9296 75.9388 56.6758 75.6307 57.3892 75.6788C57.5757 75.6915 57.8286 75.861 57.9404 76.0066C58.1891 76.3311 58.2504 76.6415 58.1736 77.0357C57.576 77.7382 56.4664 77.8993 55.6152 78.1615C52.6939 79.061 48.509 80.1749 46.949 83.067L47.6823 84.0495L48.526 83.0125C49.1269 82.227 51.3874 81.0705 52.348 80.9537C52.6167 80.9211 52.799 80.9615 53.0519 81.0466C53.2617 81.2366 53.3546 81.3112 53.4176 81.5994C53.378 81.8419 53.3594 82.0479 53.1626 82.2209C52.9317 82.4236 52.4956 82.5492 52.209 82.6727C51.0998 83.1505 50.1973 83.9061 49.5604 84.9368C50.0548 85.2381 50.5569 85.4325 51.0831 85.6647C51.1609 85.2282 51.1758 84.752 51.5344 84.4554L51.6397 84.3651C53.0318 83.2043 55.4931 82.5588 57.2305 82.1019C57.8033 81.9511 58.3756 81.758 58.9648 81.6875C60.7593 81.4724 62.5221 80.9639 64.3291 80.7623C71.0611 80.0107 77.9618 79.7511 84.7263 80.2187C85.3183 80.2596 85.8869 80.4188 86.4722 80.4629C86.6006 80.2681 86.631 80.0728 86.6763 79.8489L86.5646 79.7207L81.902 79.4336C77.5404 79.2339 73.07 79.2164 68.7208 79.6109L60.3895 80.6838C59.6141 80.7979 58.8404 81.0381 58.0632 81.1166C57.8519 81.138 57.6846 81.117 57.4826 81.0466C57.2891 80.7995 57.211 80.611 57.1282 80.3096C57.2937 80.0019 57.5166 79.8686 57.855 79.7583C58.4123 79.5762 59.0171 79.5158 59.5905 79.399L64.338 78.5696C67.6225 78.1412 70.9718 77.7655 74.2849 77.6778C78.2404 77.5731 82.2637 77.7696 86.1962 78.1877C86.6179 78.2326 87.2603 78.333 87.563 78.0063C87.6263 77.938 87.703 77.8114 87.7547 77.7299L87.6725 77.5977C86.2265 77.3404 84.7298 77.2446 83.2695 77.0804L76.329 76.4256C73.3201 76.268 70.3242 76.2979 67.3152 76.4118C66.0128 76.4611 64.699 76.5953 63.4066 76.7617C62.5376 76.8735 61.4239 77.1766 60.559 77.085C60.2641 77.0539 60.0802 76.8337 59.8975 76.6244C59.8418 76.3161 59.8621 76.1359 59.947 75.8358C60.5501 75.0822 61.4898 75.1172 62.3801 74.9819L65.25 74.602C70.0614 74.0509 75.1411 74.237 79.9631 74.588L84.1753 74.9663C84.8016 75.026 85.524 75.1782 86.1437 75.1395C86.4979 75.1174 86.9034 75.2338 87.257 75.2826C88.1844 75.4109 89.0957 75.4776 90.0069 75.712C91.7086 75.0145 93.3127 74.9795 95.029 75.6983L96.0147 76.1667C95.2885 74.5797 94.5425 73.0503 93.5776 71.5888C92.3157 69.6773 90.7958 67.9685 89.4436 66.1246C88.988 65.5035 88.7141 64.7211 88.1977 64.151C87.9066 63.8297 87.486 63.7235 87.1185 63.515C86.4263 63.1219 85.8053 62.3672 85.4138 61.6816C84.7091 60.4471 84.701 59.4298 84.7435 58.0427C84.0233 58.3373 83.2112 58.4948 82.522 58.8311C81.6372 59.263 80.8138 60.1021 80.4138 61.0085C79.8702 62.241 80.4199 64.1274 80.5137 65.4469C80.5856 66.4589 80.5953 67.4656 80.4508 68.471L80.4358 68.5847C80.2314 70.0515 79.4468 71.9864 78.2395 72.9114C77.3753 73.5736 76.2485 73.8338 75.1814 73.6484C74.2227 73.4819 73.1738 72.7839 72.6329 71.9741C72.3175 71.5018 72.1046 70.9538 71.9719 70.4057C71.6384 69.0282 71.7933 67.6101 72.0086 66.2258C72.4259 63.5443 73.2396 61.1214 74.052 58.5477L74.6167 56.4004C74.1486 56.2992 73.6848 56.2049 73.2527 55.9906C71.8627 55.3011 70.8325 53.7456 70.0086 52.4705C68.0211 49.3939 67.3937 45.8028 68.1643 42.2191C68.5299 40.5186 69.1981 38.8118 69.8788 37.2159C73.0036 29.8911 78.2986 23.7146 83.6834 17.9408C85.8038 15.6673 87.9831 13.316 90.3375 11.2895C91.0933 10.6389 91.9323 10.0632 92.729 9.46312C94.1072 8.42482 95.5053 7.37823 96.9594 6.44773L102.318 3.36214C105.516 1.67328 108.737 0.189132 112.414 0.0322915C113.198 -0.00115145 113.996 -0.0392561 114.771 0.0909041C115.868 0.275034 116.936 0.48717 117.972 0.906929C120.285 1.8439 122.307 3.70265 123.77 5.68232C124.737 6.99037 125.717 8.66104 125.881 10.3083C125.98 11.3064 125.834 12.3956 125.783 13.3992C125.77 13.6509 125.687 14.1737 125.794 14.3983C126.012 14.8571 126.396 15.3001 126.636 15.773L128.634 19.8977L131.794 25.6815L133.912 29.8253L135.938 33.5363C136.625 34.8902 137.163 36.2873 137.899 37.6255L140.863 43.3337C141.356 44.264 141.991 45.161 142.402 46.1226C142.582 46.5435 142.751 46.9973 142.69 47.462C142.601 48.1338 142.327 49.1986 141.915 49.7227C141.697 49.9987 141.426 50.2233 141.232 50.5207L139.896 52.7342C139.185 53.8473 138.69 55.0689 137.944 56.1566C137.228 57.1997 136.339 58.1007 135.557 59.0904L132.684 62.6521L130.988 64.4633C129.306 66.3656 127.646 68.2158 125.758 69.9299C123.704 71.795 121.403 73.621 119.137 75.2274L114.384 78.4784C112.809 79.5482 111.192 80.6685 109.467 81.4868C108.438 81.9747 107.321 82.311 106.246 82.6869C105.173 83.0618 104.166 83.4316 103.023 83.5341L103.091 83.647C103.432 83.6981 103.417 83.6743 103.621 83.9487C103.712 84.334 103.622 84.7723 103.423 85.1178C103.285 85.3579 103.2 85.3627 102.941 85.4054C102.69 85.4473 102.435 85.4408 102.182 85.4752C101.9 85.5138 101.465 85.3627 101.185 85.3C99.8599 85.0047 98.4629 84.4137 97.0992 84.3935C97.3483 84.5564 97.5893 84.7312 97.8661 84.8427C98.2072 84.98 98.4134 85.3767 98.7057 85.5917C99.0821 85.8686 99.4928 85.8948 99.7363 86.344C99.6654 86.6236 99.5814 86.6615 99.372 86.8507C99.8111 86.9027 100.466 86.5075 100.875 86.3409L103.011 85.5359C103.835 85.1928 104.745 84.7988 105.646 84.7038C105.738 84.694 106.013 84.6701 106.092 84.711C106.192 84.7631 106.396 85.0141 106.461 85.1091C106.595 85.3037 106.628 85.4802 106.57 85.7065C106.528 85.8674 106.439 86.0046 106.359 86.1485C106.314 86.23 106.234 86.3641 106.23 86.4585C106.221 86.6914 106.38 87.1032 106.434 87.3409L106.962 89.8416L107.861 96.6325C108.423 101.694 108.498 106.785 108.582 111.87L108.748 120.236L108.599 125.389L108.449 128.648C108.416 129.459 108.351 130.327 108.575 131.117C109.202 131.467 109.85 131.855 110.541 132.062C112.002 132.501 113.493 132.157 114.915 131.753C116.061 131.428 117.135 131.147 118.318 130.992C120.194 130.745 121.678 131.052 123.416 131.735C124.09 132 124.835 132.3 125.42 132.73C126.197 133.301 126.939 134.281 127.077 135.242C127.267 136.56 126.869 137.572 126.063 138.588C125.401 139.422 124.609 140.199 123.7 140.762C122.223 141.676 120.462 142.172 118.818 142.708C117.704 143.071 116.646 143.484 115.577 143.966C114.152 144.608 112.874 145.623 111.401 146.14C110.142 146.582 108.841 146.739 107.533 146.977C106.946 147.084 106.374 147.269 105.779 147.326L101.292 147.573L92.6603 148.244L87.5333 148.574L79.9494 149.314C77.1718 149.624 74.3678 150.031 71.569 149.998C70.5454 149.986 69.5507 149.838 68.5326 149.771C64.2198 149.488 59.9675 149.022 55.7025 148.311C53.8185 147.997 51.7688 147.753 50.0239 146.935C48.4948 146.217 47.0864 145.237 45.7469 144.217C45.3687 143.929 45.034 143.579 44.6465 143.306C43.6075 142.572 42.6074 142.217 41.7218 141.209C40.3315 141.392 38.8865 141.459 37.5109 141.686C35.6611 141.992 33.8308 142.432 31.9665 142.656L28.0622 143.073C27.4341 143.124 26.7993 143.082 26.1742 143.165C24.6104 143.374 23.1012 143.997 21.5512 144.237C21.0939 144.308 20.5967 144.21 20.1343 144.21L16.4921 144.385L11.8949 144.876C11.1206 144.986 10.317 145.194 9.53849 145.236C7.79072 145.331 6.18605 145.086 4.47299 144.792C3.47843 144.622 2.44564 144.518 1.60675 143.9C1.07309 143.507 0.512285 142.863 0.232161 142.266L0.174733 142.146C-0.442575 140.77 0.733319 137.903 1.26125 136.608C2.6628 133.17 5.00314 129.853 7.40054 127.036C8.30794 125.97 9.30989 124.811 10.4538 123.992C10.7546 124.522 11.3828 125.406 11.371 126.031C10.1401 127.098 9.08608 128.342 8.06382 129.606C7.61954 130.156 7.12133 130.663 6.69792 131.23C5.03601 133.453 3.49634 136.13 2.63307 138.766C2.40058 139.476 2.10846 140.228 2.05749 140.981C2.03626 141.296 2.28222 141.688 2.49919 141.91C2.72318 142.14 3.17171 142.317 3.49523 142.324C4.04421 142.335 4.69254 142.139 5.22306 142.005L8.3048 141.12C11.8057 139.981 15.2346 138.634 18.4417 136.809C18.9765 136.505 19.4636 136.108 19.981 135.772L23.8778 133.158C28.0287 130.224 32.0976 127.101 35.9232 123.749L40.0432 119.859L43.9535 116.319C44.7693 115.589 45.621 114.906 46.3705 114.104C46.4789 113.988 46.9123 113.597 46.9507 113.479C46.9834 113.379 46.9511 113.077 46.9509 112.958L46.9337 111.495C46.8787 110.247 46.5557 108.968 45.8939 107.898L37.7489 114.216L24.2006 124.617L22.3487 126.127L16.4205 130.615C14.975 131.69 13.3843 132.679 12.004 133.822C10.4343 135.122 8.974 136.605 7.37782 137.859C7.15956 138.031 6.93576 138.143 6.65286 138.12C6.47799 138.107 6.36406 137.955 6.23757 137.844C6.21356 137.406 6.50624 137.064 6.65434 136.667L6.76255 136.607C7.49748 136.185 8.2134 135.301 8.86524 134.735L13.5895 130.821L20.8267 125.127L24.4348 122.413L27.9864 119.54L32.9546 115.779L35.5354 113.644L40.8338 109.705L44.7446 106.792C43.9849 105.871 43.1743 105.084 41.9168 104.966C39.7764 104.767 37.4754 106.102 35.6698 107.137C35.0904 107.469 34.6302 107.957 34.0744 108.323C30.953 110.382 27.7905 112.53 24.9736 114.997C23.8367 115.993 22.5439 116.667 21.373 117.605L16.6843 121.483C16.2689 121.807 15.8685 122.217 15.4255 122.497L15.3386 122.432L14.9177 122.17C14.7065 122.251 14.5425 122.386 14.3638 122.52L14.1985 122.437C13.8491 122.265 13.4021 122.194 13.0859 121.982L18.8 117.217L21.6228 114.858L23.3658 113.588L26.2913 111.118C27.226 110.373 28.2948 109.755 29.2733 109.064C31.3003 107.631 33.2669 105.88 35.6187 104.998C36.9689 102.235 39.4043 99.6694 42.3718 98.6343C43.0474 98.3988 43.7246 98.2077 44.4309 98.0905L44.5516 97.863C44.1618 97.5099 44.1644 97.0529 44.092 96.5704C43.8193 94.7488 43.8108 92.7964 43.7323 90.9534L43.6339 85.9993C43.6324 85.1714 43.5833 84.3104 43.6505 83.488C43.6749 83.189 43.7225 82.9703 43.955 82.7648L44.232 82.8579C44.4606 83.1322 44.4813 83.5531 44.543 83.8967L44.9324 86.8968C45.3205 90.3334 45.808 93.7833 45.8725 97.2438Z" fill="#373737"/>
<path d="M43.7014 119.555C43.8659 120.011 44.0635 120.356 44.4567 120.662C45.0946 121.158 45.7673 120.952 46.5049 120.857L44.7981 122.828C44.3276 123.314 43.8345 123.631 43.2272 123.914C43.1177 122.666 43.3099 121.495 43.1133 120.249L43.7014 119.555Z" fill="#373737"/>
<path d="M92.2728 76.7969C92.7671 76.8426 93.2982 76.8785 93.7759 77.018C94.2642 77.1606 94.7121 77.4261 95.1871 77.6071C95.7673 77.828 96.3572 77.9197 96.9699 78.001L98.7592 80.8964C98.6431 81.0024 97.7135 80.9073 97.4975 80.9003L97.3228 80.0625C97.2368 79.729 96.9343 79.26 96.6052 79.129C96.2762 78.9982 95.8677 79.1248 95.5686 79.265C95.2039 79.665 94.6346 80.6689 94.6344 81.2279C94.6342 81.5688 94.7917 81.8855 94.7808 82.2546C94.7769 82.3867 94.8355 82.4005 94.9223 82.4949C95.3893 82.465 95.5383 82.3254 95.9379 82.0985C96.1294 82.1759 96.3318 82.2703 96.538 82.2946C96.9313 82.3407 97.3564 82.2157 97.7387 82.3547C97.9187 82.4201 97.8561 82.4131 98.0191 82.4374L99.0591 82.5914C99.7409 82.704 100.177 82.7318 100.709 83.2126C100.552 83.4009 97.1634 82.4757 96.3995 82.775C96.3733 82.912 96.362 83.0103 96.2732 83.1236C96.191 83.2288 96.221 83.1881 96.0573 83.1599C95.6188 83.0845 95.1357 82.9892 94.6914 83.0318C94.4289 83.0569 94.1722 83.1387 93.9067 83.1416C93.2827 83.1486 92.5805 82.9787 91.9678 82.8551C90.981 82.6561 89.5133 82.5188 88.8286 81.7098C88.5704 81.4048 88.5669 81.0501 88.6227 80.6737C88.6401 80.5557 88.6593 80.4474 88.6642 80.328C88.675 80.0745 88.7067 79.8946 88.8027 79.6582C88.93 79.3444 89.0426 79.0008 89.2215 78.7119C89.8634 77.6754 91.1309 77.0521 92.2728 76.7969Z" fill="#373737"/>
<path d="M44.8267 99.5356L45.755 99.5234C47.491 99.6393 48.8777 100.987 49.8908 102.272C52.6364 105.756 53.1742 110.675 52.5923 114.946C52.43 116.138 51.9785 117.351 51.5385 118.466C50.5012 121.097 49.3988 123.328 47.0794 125.077C45.5574 126.225 43.7458 127.03 41.8082 126.724C40.1252 126.458 39.6436 125.411 38.707 124.172L40.8274 122.077L41.3694 121.583C41.4712 121.89 41.3423 122.266 41.2946 122.579C41.223 123.051 41.1824 123.578 41.2433 124.054C41.3221 124.669 41.7673 125.266 42.2737 125.606C42.7399 125.919 43.3366 125.895 43.8623 125.779C45.4516 125.426 46.7533 123.854 47.5718 122.533C50.3884 117.99 51.1054 113.101 49.8431 107.922C49.2882 105.646 48.2115 103.413 46.1236 102.176C44.8884 101.445 43.4315 101.194 42.0316 101.571L41.8772 101.616C41.3059 101.775 40.7903 102.018 40.255 102.269C41.6152 101.065 43.0431 99.9876 44.8267 99.5356Z" fill="white"/>
<path d="M37.3137 125.398L38.1195 126.786C39.1554 128.187 40.7675 128.749 42.4318 128.979L42.2833 134.749L30.9127 134.616C29.1317 134.441 27.427 134.38 25.6367 134.501L28.9199 131.993C29.4922 131.581 30.1076 131.229 30.6605 130.789L35.0934 127.085C35.8085 126.499 36.5119 125.864 37.3137 125.398Z" fill="white"/>
<path d="M73.2336 84.8011L73.4673 84.7702C74.0767 84.7178 75.1756 84.7272 75.6481 85.1534C75.8939 85.3751 75.9331 85.5654 75.9397 85.8829L75.9421 86.1788C75.9556 86.559 76.0802 86.8258 76.377 87.0686C77.6993 88.1502 79.4947 87.0749 80.9339 86.9094C81.2244 87.0351 81.5062 87.1003 81.8256 87.0668C82.1942 87.0283 82.5166 87.0393 82.8763 87.1462C83.1801 87.2363 83.3607 87.2824 83.6752 87.2018L83.7961 87.1674C84.3292 87.0194 84.7648 86.6376 85.2272 86.3465C85.8438 85.9585 86.4744 85.6708 87.1929 85.5264L87.3508 85.4956C87.8117 85.4002 88.535 85.3954 88.9665 85.6133C89.3861 85.8252 89.7495 86.1217 90.2359 86.1783C90.6212 86.2232 91.1017 86.0578 91.4766 85.9671C92.4595 85.7291 93.5988 85.4669 94.5969 85.7338C95.0334 85.8507 95.5495 86.1947 95.7527 86.6109C95.9083 86.9301 95.8581 87.1204 95.7551 87.4441C95.719 87.5571 95.6155 87.8184 95.5122 87.8902C95.3246 88.0205 94.8942 88.0699 94.6602 88.1102C93.228 88.3571 91.476 88.1264 90.1812 88.8382C88.1372 89.9617 86.2792 92.0248 85.7269 94.3258C85.4466 95.4938 85.4217 96.8548 85.3849 98.0569C85.3504 99.1901 85.3901 100.481 85.0579 101.569C84.7894 102.45 84.4853 103.228 83.9972 104.012C83.5817 104.55 83.0603 105.197 82.365 105.335C81.7315 105.462 81.0093 105.515 80.4605 105.104C80.1708 104.887 79.9687 104.536 79.8216 104.213C79.7006 103.948 79.4275 103.338 79.4495 103.046C79.5396 101.85 80.4911 100.268 80.1733 99.071C80.1124 98.8416 80.0363 98.716 79.8234 98.6047C79.6988 98.5396 79.636 98.53 79.5029 98.5849C79.2866 98.6743 79.018 98.8991 78.8944 99.0977C78.6444 99.4992 78.5107 100.048 78.3373 100.492L77.3446 102.78C76.8709 102.928 76.3716 103.121 75.8827 103.204C75.4007 103.285 75.0563 103.206 74.6743 102.903C73.0515 101.616 73.1547 98.3384 72.9019 96.4317C72.6872 94.8121 72.3668 93.0156 71.7386 91.5057C71.5451 91.0407 71.296 90.4879 70.9649 90.1074C70.6955 89.7977 70.3195 89.5423 69.9923 89.2946L69.9487 89.3378C69.8252 88.9912 69.6858 88.6905 69.4959 88.3752L67.2631 88.267C66.7564 87.9122 65.7585 87.3546 65.6294 86.7211C65.5823 86.4893 65.677 86.1243 65.8157 85.9387C65.988 85.708 66.1719 85.6098 66.448 85.5472C67.2411 85.3674 67.8695 85.5186 68.5715 85.8779C68.8692 86.0303 69.1785 86.2358 69.5162 86.2687C70.739 86.3881 71.007 85.6226 71.9319 85.1577C72.3319 84.9566 72.7963 84.8794 73.2336 84.8011Z" fill="#373737"/>
<path d="M125.161 16.6641C126.158 18.3749 126.582 20.2938 127.462 22.037L130.702 28.1264L132.49 32.1644L135.314 38.0526L137.686 42.6895C137.941 43.2179 138.124 43.7725 138.392 44.2968C138.874 45.2368 139.61 46.2422 139.927 47.2392C140.08 47.7203 139.831 48.2028 139.604 48.6301C139.032 49.7033 138.11 50.6164 137.476 51.6662C136.762 52.8463 136.159 54.108 135.381 55.2496C134.737 56.1956 133.977 57.0437 133.288 57.9538C131.398 60.4494 129.409 62.9492 127.196 65.1703C126.25 66.1196 125.18 66.9766 124.169 67.856C120.155 71.3481 115.915 74.5107 111.379 77.3002C109.129 78.684 106.827 80.3226 104.286 81.1199C103.749 81.2043 103.262 81.2076 102.721 81.1868C101.313 80.421 100.612 79.0888 99.8222 77.7714L97.2134 73.2132C96.5931 72.1435 95.9078 71.1016 95.1845 70.0983C94.1327 68.6391 92.8484 67.4475 91.6709 66.0995C91.0885 65.4329 90.5851 64.6931 90.0898 63.9606C90.6837 63.6982 91.3012 63.4093 91.8293 63.0288C93.5248 61.8072 93.9826 59.9932 93.3116 58.0596C93.1457 57.5814 92.6885 56.7526 92.7999 56.254C92.8097 56.2105 92.8093 56.1613 92.8351 56.1249C92.9182 56.0071 93.2927 55.8346 93.4288 55.7541C94.3462 55.2113 95.3299 54.7857 96.262 54.2696C96.9982 53.8618 97.7108 53.3886 98.4147 52.927C100.462 51.5847 102.286 49.9887 104.119 48.3775C105.778 46.9195 107.453 45.4659 109.003 43.8903C112.949 39.8781 116.527 35.3283 119.467 30.5374C120.429 28.9699 121.385 27.4275 122.174 25.7622C123.552 22.8542 124.508 19.8101 125.161 16.6641Z" fill="white"/>
<path d="M129.859 51.3867C130.514 51.5966 130.615 51.781 130.951 52.3568C131.251 52.8702 131.446 53.3623 131.64 53.9221L131.048 54.6186C130.847 54.6754 130.723 54.6486 130.522 54.6061C130.105 54.212 129.781 53.7622 129.644 53.1958C129.507 52.6316 129.569 51.8927 129.859 51.3867Z" fill="#373737"/>
<path d="M132.35 40.1514C132.55 40.1461 132.695 40.1392 132.882 40.2168C133.031 40.9146 132.938 41.7637 132.929 42.4832C132.907 44.3015 132.896 46.1954 132.665 47.9992L132.644 48.1572L132.604 48.4683C132.498 49.206 132.411 50.1494 131.787 50.6046C131.547 50.3724 131.324 50.0059 131.285 49.6674C131.225 49.1445 131.41 48.471 131.476 47.9418L132.04 43.2663C132.107 42.4572 131.937 41.6247 132.032 40.8232C132.065 40.5464 132.175 40.3629 132.35 40.1514Z" fill="#373737"/>
<path d="M137.907 44.3652L138.262 44.4699C138.321 44.5613 138.379 44.6462 138.407 44.7531C138.527 45.2112 138.426 45.7564 138.4 46.225C138.325 47.5568 138.302 49.7196 137.578 50.8758C137.317 51.2915 137.052 51.3424 136.598 51.4387L136.486 51.3422C136.181 51.0592 135.939 50.2674 135.95 49.8399C135.976 48.8388 136.533 47.73 136.864 46.7892C137.15 45.9764 137.309 45.0112 137.907 44.3652Z" fill="#373737"/>
<path d="M128.796 35.2461L129.175 35.3122C129.661 35.7804 129.792 36.8982 129.883 37.5517C130.301 40.5804 129.959 43.6663 129.966 46.7086C129.967 47.2544 130.132 47.8009 130.134 48.3391C130.134 48.6444 129.76 48.9275 129.549 49.1311C129.312 49.0979 129.152 49.0397 128.938 48.9424C128.736 48.5278 128.688 47.9686 128.698 47.5107C128.72 46.5612 128.937 45.59 129.012 44.6368C129.092 43.6199 129.067 42.5921 129.061 41.573C129.05 39.6816 128.99 38.019 128.587 36.1585C128.497 35.7429 128.579 35.5818 128.796 35.2461Z" fill="#373737"/>
<path d="M135.093 42.084C135.331 42.1306 135.508 42.1652 135.685 42.3372C135.84 42.4873 135.825 42.7457 135.829 42.9507C135.876 45.2389 135.398 47.5296 135.057 49.7825C134.879 50.9582 134.859 52.2328 134.415 53.3497C134.312 53.6081 134.093 53.8102 133.902 54.0062C133.566 53.894 133.387 53.8271 133.165 53.5456C133.003 52.8185 133.236 51.8911 133.345 51.1615L134.352 45.658L134.67 43.7799C134.756 43.1866 134.78 42.6111 135.093 42.084Z" fill="#373737"/>
<path d="M112.124 2.16863L115.002 2.14453C117.555 2.33058 119.836 3.60406 121.473 5.54227C122.151 6.34398 122.576 7.43111 122.854 8.42813C123.085 9.25472 123.299 10.0341 123.369 10.8948C123.462 12.0282 123.318 13.2583 123.21 14.3909C122.959 17.0313 122.299 19.6679 121.294 22.1259C120.427 24.2428 119.241 26.2758 118.061 28.2311C114.798 33.6375 110.995 38.4812 106.546 42.9666C104.872 44.6546 103.147 46.3487 101.291 47.8377C99.5049 49.2714 97.5854 50.7213 95.6674 51.9745C94.3783 52.8167 92.9062 53.4731 91.7401 54.4876C91.5099 54.6879 91.0827 55.129 90.9799 55.4268C90.9269 55.5808 90.9904 55.9698 91.007 56.1489C91.1158 57.3248 91.6312 58.6631 91.5104 59.8221C91.4373 60.5221 91.1195 61.0278 90.5546 61.447C90.126 61.7649 89.4216 62.0807 88.877 61.9799L88.781 61.9593C87.4928 61.7015 87.0321 59.2689 86.8264 58.1731C86.7187 57.6004 86.7856 56.911 86.333 56.4942C86.1177 56.2961 85.868 56.2633 85.5879 56.2769C84.6432 56.3228 83.6688 56.7429 82.7797 57.0362C82.2746 57.2028 81.6821 57.3311 81.2219 57.5992C80.7122 57.896 80.2883 58.315 79.8994 58.7519C79.1183 59.6297 78.3377 60.9589 78.3261 62.1596C78.3185 62.9259 78.5071 63.7097 78.5554 64.4808C78.6424 66.0325 78.6029 67.7129 78.1368 69.2038C77.9045 69.9467 77.2171 71.5639 76.5137 71.9061C75.9051 72.2026 75.4137 72.0329 74.8136 71.8368C74.5299 71.4594 74.1625 71.0218 73.9989 70.5785C73.7573 69.9242 73.8098 69.1234 73.8229 68.4345C73.8587 66.5574 74.1399 64.6997 74.5561 62.8721C75.0217 60.8283 75.8921 58.7001 75.6333 56.5758C75.5655 56.0204 75.5417 55.3201 75.2418 54.836C74.9098 54.3002 74.1615 53.7927 73.7034 53.338C72.202 51.8481 70.7018 49.4831 70.348 47.3732C70.0926 45.8503 70.2101 44.0956 70.4937 42.5825C71.0233 39.7567 72.1268 37.2594 73.4971 34.7474C73.9054 33.999 74.2725 33.2188 74.7174 32.4915C76.2517 29.9823 78.0223 27.5971 79.74 25.2115C80.8324 23.6943 82.1206 22.2565 83.3421 20.84C85.4978 18.3403 87.7683 15.7554 90.2736 13.6014C90.9498 13.02 91.6869 12.5367 92.4058 12.0114L96.8677 8.94645C98.8093 7.72002 100.763 6.41455 102.802 5.35544C105.673 3.8646 108.93 2.68999 112.124 2.16863Z" fill="white"/>
<path d="M95.256 37.2773C95.4745 37.314 95.5572 37.324 95.7265 37.4813C95.9433 37.6827 96.0918 37.9974 96.0885 38.2946C96.0844 38.6573 95.9153 38.7778 95.6667 39.0002C95.4518 38.9554 95.1515 38.9143 94.9659 38.8006C94.7464 38.6663 94.7549 38.4323 94.7109 38.2064C94.823 37.811 94.9855 37.5836 95.256 37.2773Z" fill="#373737"/>
<path d="M100.909 34.7988L101.199 34.8416C101.369 34.9048 101.428 35.0266 101.497 35.1775C101.652 35.5154 101.704 36.0201 101.526 36.3637C101.369 36.6687 101.058 36.7253 100.762 36.8504C100.571 36.7908 100.435 36.7214 100.294 36.5736C100.188 36.4631 100.079 36.2799 100.091 36.1248C100.138 35.4747 100.444 35.1979 100.909 34.7988Z" fill="#373737"/>
<path d="M87.1964 39.4288L87.4348 39.4277C87.8425 39.4375 88.0833 39.5602 88.3537 39.8648C88.6777 40.2296 88.8162 40.6763 88.7876 41.1542C88.6857 41.4041 88.4829 41.4896 88.2615 41.6189L88.152 41.6346C87.839 41.6619 87.5041 41.5858 87.2734 41.3637C86.9346 41.0374 86.7174 40.4728 86.759 40.0026C86.7863 39.6951 86.9795 39.6096 87.1964 39.4288Z" fill="#373737"/>
<path d="M91.4044 31.1392C91.6008 31.1285 91.7208 31.1324 91.9051 31.2037C91.9 31.3266 91.9336 31.4573 91.8898 31.5722C91.8726 31.617 90.198 32.9973 90.0104 33.1976C89.3179 33.9374 88.7034 35.1264 88.3566 36.0761C88.2011 36.5015 88.1378 36.9423 87.9707 37.3694L87.935 37.4586L87.6181 37.2912C87.4243 36.9782 87.3683 36.8654 87.4512 36.4884C87.909 34.4074 89.6473 32.2802 91.4044 31.1392Z" fill="#373737"/>
<path d="M88.4718 29.5625C88.6799 29.643 88.749 29.6113 88.8452 29.8225C87.0409 31.6378 85.6004 33.7262 84.3338 35.9459C83.6033 37.2264 82.8527 38.6658 82.4265 40.0827C82.023 41.424 82.0472 43.0939 81.2397 44.2606L80.8872 43.9348C80.6209 42.9037 81.2159 41.2056 81.511 40.1887C82.2634 37.5951 83.7359 35.2367 85.2505 33.024C86.118 31.7566 87.1 30.317 88.4718 29.5625Z" fill="#373737"/>
<path d="M111.533 17.4595C112.032 17.4155 112.57 17.4673 113.018 17.7064C113.448 17.9364 113.842 18.3368 113.968 18.8129L113.849 18.8945C113.487 18.5284 112.747 18.156 112.239 18.0873C110.958 17.9139 108.828 19.3869 107.877 20.1656C108.567 20.0154 109.311 19.8133 110.02 19.8142C110.862 19.8153 112.079 20.1781 112.661 20.8007C113.286 21.4705 113.769 22.3601 113.702 23.2932C113.578 25.0359 112.617 26.5586 111.775 28.043C111.209 29.042 110.791 29.9464 109.911 30.7219C109.359 29.1472 111.611 26.0135 112.095 24.4473C112.276 23.8614 112.242 23.2054 112.243 22.5983C111.919 21.9326 111.577 21.4587 110.89 21.1386C109.411 20.4499 107.903 21.1548 106.704 22.0577C106.394 22.2908 106.034 22.6829 105.659 22.7903C105.394 22.8662 105.306 22.8165 105.078 22.6906L105.023 22.406C105.109 22.049 105.324 21.7802 105.539 21.4882C107.112 19.3491 108.844 17.8699 111.533 17.4595Z" fill="#373737"/>
<path d="M111.449 4.47745C113.309 4.20456 115.422 4.66171 117.087 5.49216C118.928 6.4105 119.823 7.95459 120.439 9.83034C120.358 10.1644 120.343 10.2051 120.081 10.4594C119.997 10.4622 119.933 10.4705 119.849 10.4404C119.158 10.1954 119.078 9.43842 118.852 8.85119C118.48 7.88089 117.31 6.86286 116.372 6.46044C112.447 4.77502 108.266 6.43372 104.586 7.94206C102.523 8.83719 100.625 10.1163 98.7516 11.3466C98.0682 11.7955 97.3321 12.4133 96.5989 12.7567C96.4203 12.8404 96.219 12.8258 96.0279 12.8087C95.8036 12.6703 95.6907 12.6114 95.5742 12.3639C95.6267 12.2253 95.6861 12.1072 95.7801 11.9911C96.4602 11.1517 97.6612 10.5379 98.5483 9.93002C99.3449 9.38406 100.09 8.77214 100.907 8.25382C104.05 6.26107 107.741 4.85647 111.449 4.47745Z" fill="#373737"/>
<path d="M111.683 12.5828C112.712 12.4775 113.888 12.5209 114.893 12.7732L115.049 12.8143C115.51 12.9335 116.014 13.0853 116.434 13.3147C117.109 13.6834 117.688 14.3727 117.877 15.1212C118.034 15.7429 118.073 16.9815 117.665 17.5212C117.491 17.7502 117.349 17.7706 117.08 17.7834C116.479 17.2448 116.276 16.6564 115.865 15.9916C115.456 15.3276 114.797 14.8448 114.024 14.6985C113.588 14.616 113.078 14.6524 112.632 14.6594C110.345 14.6956 108.291 15.5271 106.24 16.4617C104.719 17.1545 103.232 17.8932 101.846 18.8327C100.842 19.5156 99.9058 20.2298 99.0176 21.0597C98.4425 21.597 97.902 22.2212 97.291 22.7104C97.1051 22.8595 96.964 22.929 96.7219 22.9549C96.4706 22.7939 96.4037 22.7828 96.2891 22.4976C96.4045 22.1676 96.5732 21.9166 96.7869 21.6434C99.2604 18.4819 102.587 16.0517 106.195 14.3357C107.929 13.5111 109.767 12.8172 111.683 12.5828Z" fill="#373737"/>
<path d="M92.9887 13.3763C93.2349 13.3688 93.4696 13.3944 93.7133 13.4217C93.9445 13.5814 93.9705 13.5682 94.0366 13.8363C93.9888 14.0413 93.9386 14.2483 93.7988 14.4124C93.4459 14.8266 92.8203 15.1845 92.4067 15.5821L87.0525 20.8508C84.211 23.9406 81.7411 27.3385 79.3031 30.7466C77.0678 33.871 75.3263 37.6087 74.1037 41.2434C73.6924 42.4663 73.2199 43.8573 73.2147 45.1602C73.2133 45.5379 73.1843 46.2668 73.344 46.6059C73.5002 46.9374 73.7519 47.0276 73.8173 47.4174C73.7059 47.7879 73.5737 47.9976 73.3091 48.2793L72.7599 48.3683C72.1496 47.8618 71.8331 47.0199 71.7379 46.2468C71.4958 44.2813 72.1061 42.2524 72.7315 40.4106C73.3464 38.5998 74.1341 36.9277 74.9758 35.215C75.6206 33.9031 76.2376 32.6133 76.9827 31.3509C78.0524 29.5389 79.323 27.829 80.591 26.1536C82.4382 23.7134 84.3798 21.3477 86.532 19.1646C87.846 17.8319 89.2788 16.5999 90.7023 15.3853C91.4162 14.776 92.3668 14.2085 92.923 13.4677L92.9887 13.3763Z" fill="#373737"/>
<path d="M120.242 12.6328C120.603 12.6398 120.715 12.6022 121.015 12.8185C121.371 13.5696 121.232 15.1186 121.135 15.9356C120.8 18.7325 119.864 21.281 118.735 23.8507C117.858 25.8482 116.898 27.7921 115.804 29.6815C115.041 30.9997 114.116 32.2204 113.236 33.4614C109.309 38.998 104.849 44.4178 99.3227 48.4412C98.7656 48.8468 98.101 49.0666 97.4994 49.3997C96.8769 49.7445 96.2963 50.1687 95.6903 50.5423C94.0943 51.5263 92.6087 52.6775 90.7812 53.1678L90.2573 53.1772C90.03 52.9911 90.0291 53.0048 89.9844 52.7164C90.04 52.6195 90.0728 52.5054 90.1511 52.4256C90.4263 52.1452 91.2216 51.8657 91.5878 51.6541C92.4141 51.1771 93.1584 50.5818 93.9351 50.0305C97.3817 47.5839 100.534 44.8425 103.436 41.7672C105.165 39.9357 106.77 37.9586 108.352 36.0003C112.151 31.2984 115.598 25.8591 117.891 20.2639C118.496 18.7876 119.088 17.2958 119.506 15.7541C119.763 14.8067 119.664 13.4015 120.242 12.6328Z" fill="#373737"/>
</svg>
