<svg width="261" height="264" viewBox="0 0 261 264" fill="none" xmlns="http://www.w3.org/2000/svg">
<path d="M31.9135 141.959C32.4761 141.986 32.921 141.933 33.3378 142.392C33.7552 142.851 33.7264 143.266 33.7405 143.835C33.1659 144.843 32.13 145.315 31.1489 145.859C30.6777 145.877 30.392 145.764 29.959 145.602C29.4723 145.089 29.4583 144.696 29.3926 144.01C29.9225 143.017 30.9616 142.488 31.9135 141.959Z" fill="#373737"/>
<path d="M228.852 138.854C229.907 138.874 230.992 138.903 231.834 139.633C232.241 139.985 232.511 140.295 232.481 140.859C232.445 141.55 231.922 141.937 231.444 142.365C230.574 142.371 229.297 142.127 228.609 141.559C228.167 141.194 227.824 140.761 227.886 140.158C227.955 139.489 228.38 139.245 228.852 138.854Z" fill="#373737"/>
<path d="M22.7454 118.398L27.6492 118.915C28.675 119.031 29.6571 119.005 30.5054 119.648C30.7338 120.117 30.9295 120.45 30.7426 120.98C30.5553 121.51 30.2 121.669 29.7316 121.908L25.5675 121.505C24.0315 121.364 22.6576 121.582 21.5264 120.417C21.4161 119.94 21.4372 119.692 21.5661 119.221C21.9579 118.738 22.1582 118.608 22.7454 118.398Z" fill="#373737"/>
<path d="M26.8308 90.9609L28.0259 91.0405L35.1098 96.1046C36.0547 96.7947 37.8402 97.7849 38.1866 98.9111C38.1086 99.7602 38.0637 99.8373 37.5102 100.491C36.7301 100.482 36.3123 100.388 35.6731 99.9497L30.5236 96.1102C29.4122 95.2989 28.1598 94.571 27.1256 93.6683C26.7587 93.3482 26.3518 93.0259 26.2843 92.5183C26.2007 91.8899 26.4832 91.4517 26.8308 90.9609Z" fill="#373737"/>
<path d="M238.109 111.016L238.294 110.991C239.146 110.911 240.248 110.84 240.917 111.464C241.395 111.909 241.356 112.041 241.398 112.66C239.595 114.863 234.653 115.144 231.938 115.514L230.17 115.646C229.658 115.639 229.066 115.567 228.742 115.112C228.419 114.66 228.531 114.385 228.598 113.886C229.612 112.462 232.8 112.371 234.417 112.028C235.674 111.762 236.886 111.409 238.109 111.016Z" fill="#373737"/>
<path d="M129.556 11.832C130.053 11.8601 130.505 11.9655 130.986 12.0818C131.385 12.4023 131.639 12.6412 131.862 13.1085C133.057 15.6071 132.573 18.952 132.28 21.6079C132.107 23.1751 131.956 24.8228 131.406 26.307C131.168 26.3893 131.075 26.4317 130.81 26.4737C130.393 26.5403 130.013 26.3876 129.691 26.1385C129.017 24.9139 129.091 23.0665 128.992 21.6993C128.82 19.3082 128.604 16.8352 128.683 14.4378C128.72 13.332 128.711 12.6286 129.556 11.832Z" fill="#373737"/>
<path d="M229.425 79.4758C230.053 79.4081 230.41 79.3587 230.959 79.6786C231.231 80.1567 231.401 80.4054 231.204 80.9596C230.271 83.5811 224.001 86.5754 221.552 87.875C220.401 88.4859 219.308 89.1773 218.132 89.7452L217.255 89.8089C216.792 89.6299 216.662 89.4033 216.381 89.0162C216.343 88.7679 216.235 88.4663 216.333 88.2249C216.589 87.5902 217.574 86.8735 218.083 86.4132C220.023 84.6537 222.065 82.937 224.364 81.6601C225.949 80.7799 227.736 80.1301 229.425 79.4758Z" fill="#373737"/>
<path d="M90.4513 18.2149C91.2051 18.2135 91.9634 18.3385 92.6588 18.6412C94.1312 19.2829 94.4664 20.4346 94.9942 21.8197L95.6717 21.9903C96.4016 22.1777 97.0176 22.4985 97.5489 23.046C98.096 23.61 98.4323 24.3284 98.4151 25.119C98.3891 26.2995 97.8051 27.4523 96.9708 28.272C96.8071 28.4335 96.3939 28.8941 96.1992 28.9726C95.6643 29.1876 94.4914 29.0058 93.9084 28.9785L88.9512 28.8685L84.0154 28.8797C83.1264 28.8797 82.1621 28.9656 81.2994 28.7435C80.9536 28.4668 80.6947 28.2681 80.6367 27.8026C80.5622 27.2029 80.7569 26.6509 81.1754 26.2207C82.4721 24.8896 84.649 25.0938 86.3343 25.1211C86.2275 23.1508 86.2141 21.3051 87.5157 19.6584C88.3271 18.6321 89.2133 18.4145 90.4513 18.2149Z" fill="#373737"/>
<path d="M90.1844 20.7805C90.8479 20.756 91.1733 20.7781 91.7461 21.1252C92.0806 21.7831 91.8944 22.12 91.9218 22.8119C92.0282 25.5252 94.5067 23.9556 95.8849 25.0887L95.9242 25.7017C95.6009 26.2104 95.4488 26.3711 94.9013 26.6258C93.0343 26.354 91.0615 26.313 89.1865 26.527L88.9197 26.5589C88.8372 25.928 89.0754 25.3616 89.0729 24.7384C89.0715 24.3833 88.9703 24.041 88.9626 23.6876C88.9331 22.3271 89.2051 21.7172 90.1844 20.7805Z" fill="white"/>
<path d="M59.9309 48.1452C61.0304 48.0752 62.5063 47.9147 63.3971 48.6847C64.2201 49.3958 64.4014 50.2035 64.5132 51.2404L64.5353 51.4621C65.2652 51.6824 66.177 51.8786 66.7822 52.3557C67.4705 52.899 67.947 53.6062 68.011 54.4932C68.0974 55.6901 67.5876 57.4647 66.7537 58.38C66.546 58.608 66.3295 58.718 66.0291 58.7758C65.1661 58.9422 64.0686 58.8164 63.1842 58.8157L56.8157 58.7968L52.024 58.8101C51.4038 58.8094 50.5049 58.924 49.9307 58.7464C49.5614 58.6325 49.3846 58.463 49.1095 58.2055C48.6804 56.9644 49.2146 54.9857 49.7448 53.8122C50.2709 52.6478 51.454 51.5059 52.6857 51.1101C53.5502 50.8323 54.6026 50.8554 55.4006 51.3125C55.7819 51.5311 55.5595 51.4922 55.9618 51.4674C56.1308 50.9924 56.3111 50.5195 56.5754 50.0872C57.3372 48.8416 58.5892 48.4461 59.9309 48.1452Z" fill="#373737"/>
<path d="M60.4352 50.5868L60.6576 50.584C61.2919 50.5955 61.5938 50.6365 62.0457 51.0965L62.0309 51.8846L62.0042 52.8223C62.0573 54.6666 64.25 53.7401 65.3031 54.6557C65.4546 55.2316 65.2958 55.536 65.074 56.0544C64.9647 56.1487 64.8836 56.2933 64.7458 56.3371C64.2092 56.5077 62.902 56.3259 62.3004 56.3238L54.5991 56.3522L51.8477 56.3767C51.9633 55.7035 52.1119 54.7244 52.5343 54.1723C52.9338 53.6501 53.3341 53.6245 53.9402 53.5579C54.8321 53.7594 55.29 54.5661 55.9608 55.1269C56.4067 55.4996 56.8224 55.4516 57.3664 55.4047C58.3651 54.4557 58.2221 53.4108 58.7207 52.2153C59.0967 51.314 59.5546 50.9725 60.4352 50.5868Z" fill="white"/>
<path d="M119.91 206.6C123.624 207.372 127.268 208.784 130.938 209.781L150.326 214.309L176.094 219.036L183.546 220.182C184.677 220.341 186.356 220.373 187.387 220.812C187.984 221.065 188.019 221.397 188.152 221.95C187.923 222.705 187.874 222.767 187.25 223.254C184.63 223.023 182.039 222.548 179.443 222.142L167.107 220.109C152.641 217.56 138.077 214.724 124.018 210.421C122.763 210.037 120.38 209.636 119.4 208.853C118.982 208.519 119.019 208.352 118.943 207.851C119.155 207.253 119.431 207.005 119.91 206.6Z" fill="#373737"/>
<path d="M175.284 32.0273C175.834 32.0319 176.434 32.0056 176.941 32.2494C178.549 33.0236 179.735 35.9061 180.682 37.3934C180.768 37.529 181.137 38.2243 181.255 38.2895C181.862 38.6243 182.702 38.3003 183.356 38.8236C184.303 39.5817 184.93 41.3569 185.003 42.515C185.079 43.7137 185.218 45.9408 184.236 46.834C182.998 47.9595 174.451 47.3031 172.377 47.2632L168.282 47.3963C167.304 47.4597 166.18 47.7616 165.248 47.3595C164.415 47.0004 164.165 46.1867 163.897 45.3937C163.343 43.7498 162.765 41.304 163.642 39.6966C164.163 38.7424 165.096 37.8964 166.168 37.6208C167.183 37.3594 168.145 37.6919 169.027 38.1732L169.209 38.2747L170.287 35.9828C171.413 34.0758 173.139 32.6288 175.284 32.0273Z" fill="#373737"/>
<path d="M175.125 34.7363L175.79 34.8551C176.827 36.0268 177.518 37.9127 178.364 39.2764C177.539 39.9542 177.026 40.3679 176.844 41.4254C177.096 42.0486 177.356 42.4809 178.033 42.7079C179.561 43.221 180.263 41.5719 181.324 40.9431C181.488 41.0436 181.586 41.0944 181.732 41.2345C182.514 41.9831 182.362 43.7808 182.382 44.7928L174.209 44.8113L168.175 44.797C167.455 44.791 166.877 44.8842 166.354 44.3546C166.021 43.1867 165.651 41.8041 166.225 40.6765C166.702 40.3381 166.776 40.293 167.356 40.2513C168.129 40.9305 168.527 41.6717 169.113 42.4917C169.609 42.7317 169.883 42.8851 170.431 42.6742C170.916 42.4875 171.124 42.2469 171.369 41.815C171.301 40.9848 171.21 40.2415 171.535 39.4488C172.383 37.3765 173.227 36.0489 175.125 34.7363Z" fill="white"/>
<path d="M53.1979 204.271C55.1204 204.498 57.3364 206.158 59.087 207.021L68.5858 211.598L79.2817 216.376L112.743 229.188L126.506 233.744L144.843 240.249L154.579 243.927C155.881 244.43 157.434 245.258 158.807 245.492C160.582 245.795 162.783 245.545 164.605 245.546L177.799 245.545L231.189 245.449L252.423 245.427L257.314 245.51C258.046 245.523 258.88 245.458 259.599 245.581C260.194 245.683 260.349 245.945 260.699 246.382C260.761 246.932 260.772 247.218 260.513 247.735C259.867 248.193 259.32 248.197 258.544 248.235L239.271 248.337L204.076 248.252L104.982 247.704L54.0708 245.818L1.23098 245.264C0.745699 245.189 0.386218 244.994 0.152888 244.543C-0.090633 244.074 0.0611711 243.698 0.223167 243.246C0.659256 242.834 0.880285 242.655 1.49453 242.604C5.43866 242.273 9.64071 242.631 13.6147 242.616L44.2804 242.892L52.4477 243.12C53.5778 243.155 55.0066 243.36 56.1036 243.161L33.472 224.663L29.8979 221.651C29.1466 221.009 28.3507 220.411 27.8117 219.574C27.7101 219.019 27.7751 218.785 27.9561 218.272C28.2839 217.995 28.5475 217.847 28.9917 217.835C29.9281 217.81 30.9894 219.032 31.6525 219.626L49.9798 234.941L56.3131 240.089C57.5286 241.078 58.8386 242.004 59.8935 243.166L60.0404 243.334L152.045 245.63L145.641 243.212L134.707 239.436L127.367 236.71L104.053 228.806L70.2767 215.129L59.2132 209.916C57.259 208.976 55.0906 208.076 53.2562 206.933C52.8722 206.694 52.557 206.396 52.5 205.924C52.4118 205.19 52.7935 204.826 53.1979 204.271Z" fill="#373737"/>
<path d="M128.831 57.3555C129.651 57.491 130.661 58.2893 131.36 58.7433C133.771 60.3102 136.175 62.0049 138.366 63.8687C150.631 74.3021 149.635 84.2132 150.793 98.9036L153.981 95.5131C155.241 94.0983 160.176 87.8796 161.558 87.6877C161.913 87.6383 162.326 87.7118 162.644 87.8712C163.585 88.3441 164.475 89.1799 165.368 89.7635L173.089 94.8518C174.197 95.6123 175.417 96.3514 176.435 97.2243C176.738 97.4842 176.976 97.8107 177.044 98.2104C177.186 99.057 177.119 100.049 177.137 100.916L177.223 106.195L177.432 120.243L177.709 130.676L189.435 125.728C190.635 125.235 192.293 124.165 193.578 124.302C194.931 124.445 194.855 125.652 194.813 126.699L193.61 163.501L193.463 168.42C193.457 168.613 193.355 169.544 193.422 169.675C193.422 169.675 193.725 169.728 193.794 169.74L196.878 170.266C200.828 170.952 204.864 171.7 208.687 172.923C218.232 175.976 227.22 181.921 233.442 189.796C239.859 197.916 243.138 208.143 241.829 218.5C241.729 219.29 241.637 219.952 240.975 220.46C240.455 220.5 240.035 220.56 239.569 220.269C238.728 219.743 237.872 218.648 237.068 217.992C234.89 216.216 232.509 214.582 230.05 213.217L220.573 208.399C214.686 205.497 208.885 202.804 202.736 200.475C199.695 199.324 196.31 197.97 193.097 197.51L192.85 197.78C192.757 198.497 192.671 198.988 193.015 199.652L193.261 200.144C193.405 200.624 193.258 201.105 192.915 201.458C192.365 202.022 190.734 201.926 189.962 201.976L182.906 202.494L139.872 204.719C137.143 204.743 134.45 204.525 131.734 204.281C113.183 202.753 94.6502 201.434 76.2558 198.506L72.4445 197.901C71.7336 197.79 70.8691 197.735 70.3083 197.239C69.6663 196.67 69.8494 194.194 69.8142 193.329C59.0153 196.22 48.3911 200.061 38.2686 204.795C33.7767 206.896 29.3318 209.07 25.1269 211.71C23.3769 212.809 21.693 214.004 20.0783 215.292C19.3836 215.846 18.7518 216.563 18.03 217.064C17.4615 217.458 17.2302 217.384 16.6054 217.255C16.1314 216.794 16.0211 216.675 15.9206 215.995C15.2223 211.271 16.1311 205.624 17.653 201.165C20.337 193.303 25.4822 186.183 32.1848 181.225C38.0437 176.89 45.2467 173.989 52.2393 172.04L60.6121 169.965L67.1534 168.667C67.3976 168.612 68.2452 168.498 68.4174 168.372C68.4578 168.342 68.4128 168.272 68.4107 168.223L68.377 167.493L67.9971 158.076L66.0433 107.435L65.2734 91.4494L64.7903 83.5742C64.7737 83.0505 64.7309 82.6236 65.0591 82.1843C65.5623 81.8865 65.8374 81.8694 66.4165 81.9023C67.5287 82.5955 67.6686 84.0254 68.0586 85.2132C68.7512 87.3234 69.4379 89.933 70.6769 91.7941C71.6777 93.2979 73.0422 94.2938 74.8428 94.6139C77.4871 95.084 80.3819 94.7299 82.8667 93.733C86.8624 92.1297 90.4664 89.058 93.882 86.4872L119.473 65.471C122.531 62.7955 125.492 59.6593 128.831 57.3555Z" fill="#373737"/>
<path d="M162.849 91.1523L173.491 98.0607L167.795 103.174L162.098 107.952L162.849 91.1523Z" fill="white"/>
<path d="M160.272 92.2422L159.876 101.532C159.724 104.204 159.407 107.018 159.634 109.684L159.66 109.959C158.289 111.234 156.741 112.957 155.151 113.936L152.602 112.745L150.755 111.956L150.609 102.336C154.214 99.5618 157.295 95.6684 160.272 92.2422Z" fill="white"/>
<path d="M174.321 100.631L174.502 100.809C174.86 103.377 174.697 106.214 174.729 108.811L174.887 125.209L174.97 130.299C174.974 130.573 175.087 131.541 174.995 131.755C174.973 131.807 174.89 131.796 174.838 131.817L172.725 132.74L162.932 137.2C161.77 137.72 160.53 138.191 159.425 138.815C159.213 138.935 158.706 139.179 158.569 139.369C158.399 139.606 158.428 140.439 158.416 140.735L158.382 145.364C158.382 145.995 158.506 146.834 158.22 147.408L157.565 147.285C157.153 147.151 156.662 147.043 156.324 146.764C156.153 146.622 156.202 146.65 156.201 146.418L156.913 115.961L174.321 100.631Z" fill="white"/>
<path d="M130.16 61.1895C133.577 62.9265 136.865 65.6984 139.556 68.3952C142.356 71.2014 144.498 74.6651 145.77 78.4135C147.267 82.8243 147.554 87.5294 147.802 92.1483L148.112 110.481L131.585 102.659L130.16 61.1895Z" fill="white"/>
<path d="M131.422 105.432C134.634 106.573 137.788 108.319 140.855 109.817L154.516 116.372L153.803 138.492C153.765 139.835 154.059 145.13 153.565 145.982L152.681 145.779L143.189 142.806C142.028 142.442 140.53 141.672 139.333 141.774C138.451 141.848 137.492 142.28 136.654 142.562L131.604 144.21L131.422 105.432Z" fill="white"/>
<path d="M141.453 144.889L155.127 149.147C157.942 150.016 161.023 150.661 163.692 151.896L161.64 201.108L161.272 201.336L139.092 201.927L141.453 144.889Z" fill="white"/>
<path d="M138.362 144.609L138.718 144.616C139.053 145.003 138.943 145.238 138.924 145.718L136.877 175.686L136.461 201.99L107.222 199.675L104.56 199.419L104.211 188.906L104.523 163.737L104.68 158.87C104.705 157.939 104.621 156.828 104.831 155.925L138.362 144.609Z" fill="white"/>
<path d="M192.05 127.312C192.337 127.85 192.184 128.489 192.161 129.094L192.028 133.374L191.433 153.324L190.27 199.378L164.086 201.102L164.294 195.897L165.693 164.765L166.073 156.721C166.172 154.803 166.529 152.163 166.041 150.316C164.967 149.114 162.351 148.666 160.785 148.381L160.888 141.102C163.397 139.609 166.232 138.49 168.897 137.289L181.113 131.954L192.05 127.312Z" fill="white"/>
<path d="M172.646 151.148C174.144 151.214 175.759 151.017 177.217 151.346C177.337 151.5 177.434 151.607 177.514 151.794C177.714 152.264 177.651 152.926 177.655 153.428C177.664 154.548 177.893 156.381 177.465 157.409C177.269 157.879 176.876 158.074 176.435 158.251C175.028 158.259 172.574 158.638 171.606 157.496C170.998 156.779 171.389 152.905 171.492 151.892C171.865 151.425 172.078 151.336 172.646 151.148Z" fill="#373737"/>
<path d="M172.079 164.961C173.477 164.88 175.941 164.631 177.195 165.181C177.479 165.507 177.612 165.728 177.643 166.168C177.767 167.915 178.05 170.804 176.908 172.195C175.362 172.166 172.94 172.469 171.638 171.618C171.111 170.889 171.276 169.904 171.279 169.038C171.282 167.59 170.977 166.053 172.079 164.961Z" fill="#373737"/>
<path d="M172.44 179.69C173.571 179.707 176.473 179.432 177.256 180.206C177.905 180.848 177.754 184.777 177.615 185.783C177.532 186.387 177.146 186.704 176.67 187.023C175.551 187.028 172.435 187.37 171.699 186.624C171.062 185.979 171.124 181.735 171.33 180.792C171.462 180.185 171.962 179.99 172.44 179.69Z" fill="#373737"/>
<path d="M127.541 61.7695L127.74 62.0428C127.794 63.6723 128.603 79.0931 128.419 79.5568C128.419 79.5568 128.038 79.773 128.023 79.7814L123.817 82.1833L104.024 94.7594L95.0956 100.015C93.8938 100.7 92.6175 101.307 91.4547 102.053C90.9526 102.376 90.5706 102.651 90.3074 103.202C90.2677 103.811 90.2442 104.306 90.6388 104.821C90.9294 105.201 91.2509 105.394 91.7281 105.427C92.9507 105.513 94.9308 104.179 96.0229 103.641C100.318 101.524 104.389 99.0851 108.484 96.6124C115.446 92.4086 122.375 87.8699 128.605 82.638C128.6 84.9075 129.074 102.185 128.937 102.435C128.904 102.496 128.392 102.762 128.326 102.801L124.795 104.678L95.7654 119.505C94.6925 120 91.518 120.94 90.9276 121.876C90.6679 122.288 90.6419 122.784 90.7772 123.24C90.9624 123.864 91.2569 124.153 91.8061 124.474C93.5589 124.513 95.5131 123.433 97.1327 122.776C104.045 119.972 110.935 116.632 117.393 112.908L128.831 105.722C129.024 107.289 128.817 109.066 128.844 110.658L128.816 127.161L100.785 138.651L95.7464 140.28C94.8813 140.535 93.1112 140.789 92.5258 141.492C92.088 142.017 92.179 142.686 92.2514 143.31C92.5725 143.813 92.7728 143.97 93.2996 144.253C94.5927 144.423 95.9421 143.857 97.1748 143.513L104.236 141.36L128.972 131.156L129.158 145.007L113.509 150.311L106.519 152.704C105.204 153.144 103.856 153.461 102.6 154.06C102.33 154.816 102.373 155.785 102.327 156.592L102.097 161.7C101.63 174.146 101.195 186.753 102.122 199.185L72.432 195.344L67.6758 91.7497C68.1702 92.5809 68.6544 93.4959 69.2827 94.2322C70.9227 96.1542 73.4331 96.9651 75.887 97.1652C78.565 97.3841 81.4908 97.0254 83.9657 95.9563C88.7247 93.9005 93.1562 90.2256 97.2518 87.0768L127.541 61.7695Z" fill="white"/>
<path d="M78.432 106.49C79.1847 106.509 79.8812 106.526 80.5028 106.952C80.7492 107.54 80.8184 107.826 80.6919 108.456C80.3046 108.994 80.0232 109.028 79.4174 109.272L77.6618 109.233C77.1976 109.151 76.9252 108.88 76.7323 108.456C76.5064 107.958 76.687 107.582 76.8711 107.119C77.3648 106.645 77.7693 106.598 78.432 106.49Z" fill="#373737"/>
<path d="M80.29 147.308C81.1042 147.278 82.6841 147.039 83.2678 147.69C83.5682 148.025 83.7063 148.657 83.5598 149.091C83.363 149.672 82.9919 149.761 82.4968 150.025C81.5779 150.063 80.3294 150.148 79.5932 149.529C79.3823 149.079 79.2334 148.804 79.3725 148.303C79.5349 147.717 79.8107 147.593 80.29 147.308Z" fill="#373737"/>
<path d="M78.2112 126.43C79.243 126.404 80.2884 126.324 81.3092 126.496C81.7456 126.912 82.0338 127.139 82.0071 127.81C81.98 128.498 81.6771 128.699 81.1932 129.098C80.3671 129.138 78.5117 129.354 77.9333 128.773C77.6202 128.459 77.4645 128.08 77.4912 127.635C77.5246 127.078 77.8367 126.788 78.2112 126.43Z" fill="#373737"/>
<path d="M80.3573 167.956C81.5028 167.862 83.1351 167.688 84.1629 168.253C84.4634 168.695 84.637 168.939 84.5316 169.495C84.4328 170.014 84.008 170.25 83.6053 170.529C82.3817 170.549 80.988 170.717 79.8583 170.179C79.5462 169.787 79.5132 169.536 79.4355 169.057C79.6692 168.396 79.8077 168.357 80.3573 167.956Z" fill="#373737"/>
</svg>
