<svg width="658" height="418" viewBox="0 0 658 418" fill="none" xmlns="http://www.w3.org/2000/svg">
<g opacity="0.1">
<path d="M603.195 311.028C606.614 311.465 610.214 312.103 613.237 313.83C614.804 314.726 615.459 315.723 615.89 317.42C615.497 319.205 615.299 319.478 614.022 320.813C612.589 321.136 611.139 321.007 609.765 320.487C607.108 319.482 604.136 316.9 603.132 314.226C602.707 313.096 602.729 312.137 603.195 311.028Z" fill="#373737"/>
<path d="M445.082 313.958C445.533 314.363 445.953 314.514 446.009 315.145C446.332 318.827 444.902 323.81 442.415 326.574C441.193 327.933 437.426 331.505 435.758 332.06C435.315 332.208 434.467 332.145 433.975 332.178L432.483 330.54C432.208 328.536 432.699 326.554 433.815 324.85C435.306 322.576 437.281 320.5 439.018 318.405C439.935 317.299 441.087 315.561 442.309 314.787C443.081 314.299 444.192 314.136 445.082 313.958Z" fill="#373737"/>
<path d="M622.97 262.72C624.669 262.879 626.715 263.075 628.193 263.949C629.148 264.513 629.541 265.152 629.837 266.197C629.688 266.802 629.642 267.707 629.155 268.104C624.343 272.027 615.131 271.626 609.286 271.07L601.352 269.79C608.075 265.513 615.002 263.288 622.97 262.72Z" fill="#373737"/>
<path d="M418.951 294.788C420.221 294.979 421.563 295.305 422.715 295.874C425.172 297.088 426.949 299.271 427.869 301.79C428.871 304.534 427.805 306.716 426.656 309.155L426.351 309.832C425.08 312.311 422.697 313.812 420.147 314.773C418.755 314.628 417.306 314.469 415.972 314.031C413.855 313.336 412.081 311.523 411.227 309.509C410.255 307.216 410.563 304.396 411.558 302.157C413.169 298.532 415.124 296.266 418.951 294.788Z" fill="#373737"/>
<path d="M419.994 300.139C420.638 300.392 421.458 300.73 421.959 301.21C422.81 302.024 422.882 302.73 422.835 303.823C421.802 305.418 420.447 306.156 418.864 307.138L418.081 307.243C417.028 307.337 416.593 307.236 415.789 306.586C415.706 304.005 418.361 301.951 419.994 300.139Z" fill="white"/>
<path d="M632.4 207.586L632.704 207.992C627.604 211.867 622.707 216.073 618.285 220.694L610.458 229.687C607.996 232.746 605.248 237.103 601.685 238.958C599.933 239.869 598.534 239.397 596.763 238.842L596.634 238.555C595.853 236.651 595.548 235.109 596.51 233.191C597.885 230.455 600.749 227.97 602.994 225.92C611.657 218.018 621.296 211.69 632.4 207.586Z" fill="#373737"/>
<path d="M395.908 60.8325C439.87 66.7709 480.211 85.1158 520.117 103.298L537.878 111.802C542.83 113.987 548.422 115.477 553.625 117.02C556.017 117.73 559.115 118.317 561.232 119.592C563.924 121.215 566.082 123.646 568.144 125.963C574.053 132.601 578.194 139.918 580.364 148.54C581.752 154.055 581.395 161.326 580.492 166.885C580.118 169.197 579.229 172.106 579.306 174.41C579.385 176.806 580.354 179.529 580.802 181.916C581.481 185.52 581.788 189.178 582.011 192.834C583.398 215.613 576.491 239.83 564.647 259.302L566.121 260.867C574.326 270.589 576.063 282.872 574.808 295.104C573.106 311.695 569.065 328.231 565.491 344.507L561.041 362.893C560.304 365.589 559.704 368.655 558.508 371.187C557.145 374.071 553.869 377.65 551.319 379.647C540.642 388.008 527.581 388.121 514.704 386.588C516.445 390.38 518.664 395.03 517.738 399.272C517.019 400.351 516.67 400.678 515.478 401.211C514.231 401.241 513.703 401.068 512.591 400.51C509.386 396.742 508.519 390.867 507.99 386.108L397.119 367.802L280.192 354.685L184.538 340.172C155.316 335.023 125.336 330.716 97.8738 319.127C92.0638 316.674 85.8771 313.956 80.6079 310.501C119.082 324.545 160.768 327.789 201.176 332.852L301.567 344.735L361.403 350.675L442.651 361.876C463.501 365.429 485.064 368.909 505.174 375.498C505.837 374.407 506.045 372.845 506.357 371.6L508.112 364.502L513.942 340.662C516.789 327.742 519.752 312.914 511.921 301.089C507.482 294.388 501.046 289.369 494.025 285.5C492.023 284.396 489.862 283.12 487.681 282.398C483.774 281.105 479.085 280.622 475.024 279.826L449.318 274.762L365.459 261.217L270.761 249.657L207.002 236.572L144.544 221.48C136.592 219.924 128.455 218.957 120.358 218.584C117.842 218.468 115.098 218.136 112.614 218.639C110.095 219.148 107.758 220.48 105.654 221.899C90.4405 232.151 85.6441 250.332 82.599 267.232L76.0607 312.478L75.9698 311.504C74.895 299.586 75.1078 287.987 76.1908 276.082C77.6692 259.827 80.6841 240.978 91.6548 228.092C85.6731 227.09 80.4402 225.245 75.1039 222.391C55.5096 211.909 39.7663 190.316 33.6368 169.421C28.723 152.671 28.6978 134.509 37.5327 118.975C45.0411 105.772 58.4394 97.0277 72.9699 92.9946C99.9205 85.5151 131.918 93.3721 155.78 106.527L155.903 105.656C156.262 103.58 156.692 101.115 157.559 99.1945C161.144 91.2534 169.206 83.926 176.242 78.927C185.691 72.2145 197.148 68.1796 208.277 65.135C231.376 58.8144 255.714 56.4844 279.585 55.2091L314.218 54.1672C341.676 54.5553 368.788 56.5736 395.908 60.8325Z" fill="#373737"/>
<path d="M562.984 261.335L567.493 269.562C570.061 274.847 571.194 280.977 571.092 286.808C570.913 297.042 568.38 307.125 565.726 316.966L558.57 342.817C556.472 350.264 554.764 357.772 552.199 365.089L541.082 367.419C538.403 368.095 535.823 369.156 533.254 370.152C534.479 368.274 536.207 366.638 537.737 364.992L545.914 356.201C547.522 354.448 549.833 352.525 550.194 350.106C549.928 349.085 549.51 348.783 548.743 348.107C548.348 348.041 547.153 347.702 546.83 347.786C545.109 348.232 542.566 351.583 541.26 352.92L529.389 365.044C526.581 367.909 523.991 371.034 520.535 373.156C522.397 366.257 528.835 359.708 533.397 354.334L543.549 341.983C545.366 339.752 549.685 335.602 549.587 332.808C548.886 332.137 548.556 331.85 547.584 331.686C544.81 333.316 542.519 335.97 540.266 338.238L527.215 351.936C526.974 351.153 527.577 350.008 527.83 349.218C528.418 347.341 528.604 343.992 529.487 342.465C529.994 341.588 531.184 340.638 531.849 339.786L544.145 325.191C545.116 324.143 548.385 321.455 548.759 320.309C548.882 319.93 548.807 319.515 548.83 319.117C547.984 317.979 547.981 317.855 546.536 317.431C544.631 317.871 543.17 320.289 541.819 321.64L529.882 333.766C530.202 330.954 530.611 328.146 530.325 325.315C530.161 323.685 547.316 303.183 549.266 299.793L548.976 298.965L548.131 298.572C541.215 301.816 534.886 310.081 530.248 315.965C529.654 314.163 529.605 311.696 529.222 309.784C529.131 309.332 528.651 307.812 528.74 307.414C528.812 307.09 530.635 305.34 530.986 304.933L540.631 293.478C542.097 291.717 544.088 289.865 545.045 287.783C544.845 287.294 544.632 286.649 544.3 286.217C543.669 285.391 543.058 285.161 542.066 285.088C540.026 286.365 538.388 288.869 536.924 290.733L527.489 302.948C525.195 297.479 522.487 293.264 518.492 288.823L526.579 287.945C543.14 285.46 553.656 273.963 562.984 261.335Z" fill="white"/>
<path d="M573.478 193.667C573.697 210.115 570.881 227.286 563.678 242.214C556.872 256.318 545.896 271.75 530.395 277.095C519.875 280.721 508.036 279.191 498.137 274.502C480.427 266.113 466.09 251.523 459.476 233.18C458.584 230.121 457.788 227.123 457.641 223.927L457.612 223.184C457.417 219.247 458.153 214.972 459.331 211.206L462.174 203.181C461.896 208.719 461.646 214.235 463.053 219.66C465.37 228.591 470.041 235.046 478.218 239.725C488.412 245.558 503.506 246.622 514.726 243.4C541.124 235.821 560.596 217.061 573.478 193.667Z" fill="white"/>
<path d="M248.667 184.501C257.067 185.095 265.653 187.1 273.948 188.584L319.336 196.841L440.551 219.063C441.441 219.249 450.284 220.994 450.394 221.158C450.45 221.242 450.403 222.742 450.407 222.956C450.438 224.862 450.631 226.746 450.854 228.637C452.116 239.353 456.328 248.902 463.007 257.412C465.671 260.807 468.819 263.932 471.781 267.077L342.804 248.53L314.444 245.275L225.888 232.684L184.651 224.185C168.617 220.624 152.266 216.357 135.878 214.912C130.02 214.396 124.163 214.537 118.292 214.67L151.003 204.168C170.954 197.986 190.95 192.204 211.469 188.088C219.025 186.571 226.843 184.869 234.538 184.253C239.349 183.868 243.868 184.064 248.667 184.501Z" fill="white"/>
<path d="M370.828 68.1362C378.755 68.9971 386.765 70.5879 394.577 72.1644C426.224 78.5482 455.997 89.5371 485.544 102.241L513.611 114.828L535.187 124.021C540.225 125.927 545.683 127.229 550.53 129.542C557.869 133.046 565.151 139.99 567.747 147.753C572.316 161.415 569.974 176.051 563.572 188.764C554.51 206.762 535.35 223.05 515.975 229.374C504.889 232.993 490.667 234.329 479.997 228.849C474.793 226.176 471.538 221.558 469.811 216.161C467.175 207.916 468.229 197.843 472.319 190.237C476.647 182.19 483.384 176.186 492.319 173.585C497.811 171.985 504.264 171.559 509.425 174.381C513.094 176.387 516.871 180.574 517.888 184.67C518.903 188.765 517.749 194.163 515.404 197.654C513.688 200.208 510.731 202.39 507.612 202.852C503.542 203.457 499.46 200.556 496.835 197.746C495.853 196.696 494.918 195.182 493.755 194.36C493.328 194.058 492.727 194.24 492.259 194.382C491.328 194.666 490.405 195.272 490.033 196.173C489.5 197.466 489.998 198.841 490.642 199.973C493.28 204.615 498.259 209.044 503.617 210.394C507.022 211.251 510.334 210.555 513.322 208.842C518.754 205.728 522.719 200.537 524.268 194.532C525.986 187.876 524.399 179.025 520.845 173.079C517.96 168.254 512.796 164.312 507.286 162.938C497.338 160.46 486.152 163.13 477.556 168.373C473.172 171.046 469.888 174.911 466.807 178.911C458.987 189.064 454.165 199.799 451.268 212.186C442.024 208.967 431.521 207.578 421.904 205.707L351.351 193.454L278.41 181.874L256.473 178.71C249.842 177.785 243.142 176.802 236.428 177.011C229.939 177.212 223.363 178.488 216.978 179.574C194.914 183.324 173.413 189.131 151.96 195.338C143.152 197.887 133.647 200.173 125.343 204.017L124.883 204.236C128.135 198.563 130.625 193.675 132.201 187.277C133.392 178.069 131.466 169.739 128.059 161.158C124.84 153.05 119.176 141.912 110.703 138.378C105.116 136.047 97.1138 136.757 91.5501 138.972C83.0995 142.335 75.6724 150.62 72.2322 158.809C69.6274 165.011 69.5049 172.834 72.2011 179.03C74.2471 183.734 78.0371 188.301 83.0423 190.089C87.5368 191.695 91.4324 191.191 95.6956 189.238C101.066 186.778 104.144 183.479 106.113 177.903C107.767 173.217 106.434 169.442 104.395 165.214C103.884 171.386 103.355 175.042 99.5693 180.175C97.589 182.862 94.7114 185.124 91.2699 185.552C87.4851 186.022 83.7943 184.363 80.8772 182.119C77.4499 179.484 75.4744 175.916 74.9399 171.662C74.0705 164.747 77.321 157.744 81.6495 152.49C85.8583 147.381 91.9333 142.546 98.7894 141.929L99.5151 141.872L100.75 141.787C104.285 141.718 107.491 143.053 109.93 145.537C117.846 153.595 122.051 165.803 121.887 176.907C121.708 189.027 115.391 200.753 107.215 209.586C103.476 213.625 99.2769 217.073 95.3201 220.882C79.551 218.337 67.6379 210.598 57.0771 198.944C43.6487 184.124 34.3526 163.564 35.3056 143.428C35.4633 140.091 35.9855 136.751 37.0085 133.56C40.6781 122.109 47.6335 112.603 57.6636 105.718C73.5829 94.7892 93.2805 95.0041 111.628 98.2168C136.784 102.622 162.807 114.187 181.42 131.682C187.361 137.267 192.097 143.374 196.772 149.997L197.37 149.683C197.971 147.5 197.663 145.749 196.982 143.613C195.595 139.262 192.706 135.517 189.77 132.069C180.934 121.688 169.549 114.002 157.584 107.543C157.885 106.051 158.771 104.566 159.429 103.19C162.771 96.2041 168.878 90.2112 175.094 85.6299C197.971 68.7691 230.077 64.848 257.769 63.2723C275.668 62.254 293.496 62.2818 311.404 63.0199C331.245 63.8375 351.18 65.2397 370.828 68.1362Z" fill="white"/>
<path d="M282.635 118.86L283.847 119.399C285.124 124.013 284.146 129.311 281.838 133.483C280.14 136.553 277.797 138.546 274.427 139.625C273.225 137.882 271.9 134.785 272.476 132.672C272.937 130.984 274.21 129.134 275.158 127.658C277.197 124.484 279.309 120.824 282.635 118.86Z" fill="#373737"/>
<path d="M264.046 100.347C265.123 100.584 266.518 100.891 267.392 101.569C269.045 102.851 269.908 105.27 270.005 107.278C270.13 109.866 268.991 112.586 267.189 114.452C263.981 117.775 259.799 118.13 255.463 118.184L250.675 117.346C249.621 117.074 249.126 116.872 248.559 115.957C248.463 111.757 249.725 108.834 252.57 105.729C255.665 102.35 259.44 100.54 264.046 100.347Z" fill="#373737"/>
<path d="M262.097 106.13C263.188 106.598 263.647 106.572 264.163 107.661C263.961 108.373 263.946 108.848 263.408 109.393C261.909 110.912 258.851 110.947 256.816 111.047L255.57 110.996L255.236 110.577C255.472 110.068 255.462 110.05 255.817 109.512C257.31 107.259 259.625 106.711 262.097 106.13Z" fill="white"/>
</g>
</svg>
