<svg width="118" height="36" viewBox="0 0 118 36" fill="none" xmlns="http://www.w3.org/2000/svg">
<g clip-path="url(#clip0_310_463)">
<path d="M69.7779 12.2215C68.8703 11.3035 67.7356 10.5003 66.4876 9.9265C65.2395 9.35276 63.8779 9.12326 62.5164 9.12326C60.3606 9.12326 58.3183 9.69701 56.7299 10.9592L56.5029 1.7793H52.1914V19.5655C52.1914 21.8604 52.8722 24.0407 54.2337 25.8767C55.5953 27.7127 57.5241 28.9749 59.7933 29.6634C60.701 29.8929 61.6087 30.0076 62.4029 30.0076C64.2183 30.0076 66.0337 29.5487 67.5087 28.6307C69.0972 27.7127 70.3453 26.4504 71.2529 24.8439C72.3876 22.8932 72.8414 20.5982 72.501 18.3032C72.3876 16.0082 71.3664 13.9427 69.7779 12.2215ZM66.7145 23.8112C66.1472 24.3849 65.4664 24.8439 64.7856 25.0734C64.1049 25.4177 63.3106 25.5324 62.5164 25.5324C61.7222 25.5324 60.9279 25.4177 60.2472 25.0734C59.5664 24.7292 58.8856 24.2702 58.3183 23.8112C57.1837 22.6637 56.5029 21.1719 56.5029 19.5655C56.5029 17.959 57.1837 16.4672 58.3183 15.3197C58.8856 14.746 59.5664 14.287 60.2472 14.0575C60.9279 13.828 61.7222 13.5985 62.5164 13.5985C63.3106 13.5985 64.1049 13.7132 64.7856 14.0575C65.4664 14.4017 66.1472 14.8607 66.7145 15.3197C67.2818 15.7787 67.7356 16.4672 68.076 17.1557C68.4164 17.8442 68.6433 18.6475 68.6433 19.336C68.6433 21.0572 67.9626 22.6637 66.7145 23.8112Z" fill="#373737"/>
<path d="M88.839 9.81106C87.5909 9.23731 86.2294 9.00781 84.8679 9.00781C83.5063 9.00781 82.1448 9.23731 80.8967 9.81106C79.6486 10.3848 78.514 11.0733 77.6063 12.106C76.3583 13.3683 75.4506 14.9748 74.9967 16.5813C74.5429 18.3025 74.5429 20.0238 74.8833 21.745C75.1102 22.5482 75.3371 23.3515 75.7909 24.04C76.3583 25.3022 77.2659 26.4497 78.4006 27.3677C79.989 28.7447 82.0313 29.548 84.1871 29.6627C84.5275 29.6627 84.8679 29.6627 85.2083 29.6627C86.9102 29.6627 88.6121 29.2037 90.2006 28.5152C91.4486 27.8267 92.5833 27.0235 93.4909 25.876L90.2006 23.122C89.6333 23.8105 89.0659 24.2695 88.2717 24.6137C87.1371 25.1875 85.7756 25.417 84.5275 25.3022C83.2794 25.1875 82.0313 24.7285 81.1236 23.9252C80.4429 23.3515 79.989 22.7777 79.6486 21.9745C79.5352 21.745 79.4217 21.5155 79.3083 21.286H94.9659C95.4198 17.8435 94.739 14.401 92.2429 11.8765C91.2217 11.0733 90.0871 10.2701 88.839 9.81106ZM79.3083 17.2698C79.6486 16.4665 80.1025 15.6633 80.6698 15.0895C81.2371 14.5158 81.9179 14.0568 82.5986 13.8273C83.2794 13.483 84.0736 13.3683 84.8679 13.3683C85.6621 13.3683 86.4563 13.483 87.1371 13.8273C87.8179 14.1715 88.4986 14.5158 89.0659 15.0895C89.6333 15.778 90.2006 16.4665 90.4275 17.2698H79.3083Z" fill="#373737"/>
<path d="M105.404 9.46804C103.929 9.81229 102.567 10.386 101.319 11.304V9.58279H97.0078V29.5492H101.319V19.566C101.433 17.9595 102.114 16.353 103.248 15.0908C104.042 14.4023 104.95 13.8285 105.971 13.599C106.992 13.3695 108.014 13.3695 109.035 13.7138C109.262 13.8285 109.602 13.8285 109.829 13.9433V9.58279C108.467 9.12379 106.879 9.12379 105.404 9.46804Z" fill="#373737"/>
<path d="M117.772 9.23828H113.461V29.2047H117.772V9.23828Z" fill="#373737"/>
<path d="M117.205 2.81301C116.978 2.58351 116.637 2.35401 116.297 2.23926C115.957 2.12452 115.616 2.00977 115.276 2.00977C114.935 2.00977 114.595 2.12452 114.255 2.23926C113.914 2.35401 113.687 2.58351 113.347 2.81301C113.12 3.04251 112.893 3.38676 112.78 3.73101C112.666 4.07525 112.553 4.4195 112.553 4.76375C112.553 5.108 112.666 5.45225 112.78 5.7965C113.007 6.02599 113.12 6.37024 113.46 6.59974C113.687 6.82924 114.028 7.05874 114.368 7.17349C114.709 7.28824 115.049 7.40299 115.389 7.40299C115.73 7.40299 116.07 7.28824 116.41 7.17349C116.751 7.05874 116.978 6.82924 117.318 6.59974C117.545 6.37024 117.772 6.02599 117.885 5.68175C117.885 5.45225 117.999 5.108 117.999 4.76375C117.999 4.4195 117.885 4.07525 117.772 3.73101C117.658 3.38676 117.432 3.04251 117.205 2.81301Z" fill="#373737"/>
</g>
<path d="M9.90783 31.633L9.48697 31.1887C7.52754 29.0569 6.24018 26.4086 5.78212 23.5673C5.73773 23.3697 5.71 23.1688 5.69921 22.9666C5.60871 21.9984 5.57441 21.0259 5.59647 20.0538V15.57L0 19.0844V13.1762C6.78005 8.90974 13.5529 4.65636 20.3185 0.416016L40.6389 13.1762V19.0844L21.7569 7.21283L20.3005 6.29048L18.7171 7.29458C16.0135 9.01667 13.3072 10.7236 10.5982 12.4155V17.6306C10.547 19.2392 10.5891 20.8492 10.7243 22.453C10.8278 23.3059 11.0423 24.1422 11.3624 24.9411C12.0764 26.7055 13.3204 28.2127 14.9275 29.2605L15.3295 29.5173C16.9244 30.4811 18.7707 30.9632 20.6404 30.904C22.5101 30.8447 24.3212 30.2468 25.8501 29.1841C26.5645 28.6832 27.2087 28.0917 27.7661 27.4247C29.7199 25.1143 30.0596 22.7329 30.1804 19.8654C30.2192 19.5464 30.2192 16.4222 30.2192 16.4222V15.2954L35.0604 18.3415C35.0604 22.8911 34.9514 25.867 32.5055 29.4702C30.9089 31.8324 28.6528 33.6881 26.0096 34.8133C25.3244 35.0944 24.6201 35.3278 23.9017 35.5117L23.1997 35.6717C20.8182 36.1499 18.353 36.0307 16.0304 35.3249C13.7078 34.6191 11.6022 33.3493 9.90693 31.6321L9.90783 31.633ZM21.144 24.7349V20.4466L25.4175 20.4341V24.734L21.144 24.7349ZM15.2934 24.7349V20.4466H19.5651L19.5723 24.734L15.2934 24.7349ZM21.144 18.8605V14.5712H25.423V18.8596L21.144 18.8605ZM15.2934 18.8605V14.5712H19.5651V18.8596L15.2934 18.8605ZM5.6154 0.416016H10.5909V4.09566L5.6154 7.21816V0.416016Z" fill="#F39200"/>
<defs>
<clipPath id="clip0_310_463">
<rect width="65.8077" height="28.1136" fill="white" transform="translate(52.1914 1.7793)"/>
</clipPath>
</defs>
</svg>
