<svg width="16" height="12" viewBox="0 0 16 12" fill="none" xmlns="http://www.w3.org/2000/svg">
<path d="M10.3674 6.64935L9.02735 7.96403C8.48395 8.49723 7.52782 8.50871 6.97267 7.96403L5.63258 6.64935L0.819581 11.3707C0.998737 11.4517 1.19627 11.5 1.40627 11.5H14.5938C14.8038 11.5 15.0012 11.4517 15.1803 11.3707L10.3674 6.64935Z" fill="#F39200"/>
<path d="M14.5937 0.5H1.40625C1.19626 0.5 0.998724 0.548339 0.81963 0.629341L5.96266 5.67475L5.96375 5.67548L5.96416 5.67628L7.63644 7.3168C7.81406 7.49048 8.186 7.49048 8.36362 7.3168L10.0356 5.67655L10.0363 5.67548L10.0374 5.67475L15.1803 0.629311C15.0012 0.548278 14.8037 0.5 14.5937 0.5Z" fill="#F39200"/>
<path d="M0.149562 1.27036C0.0568749 1.45363 0 1.65707 0 1.87499V10.125C0 10.3429 0.0568125 10.5463 0.149531 10.7296L4.97087 6.00013L0.149562 1.27036Z" fill="#F39200"/>
<path d="M15.8504 1.27034L11.0292 6.00018L15.8504 10.7297C15.9431 10.5464 16 10.343 16 10.125V1.87504C16 1.65705 15.9431 1.45362 15.8504 1.27034Z" fill="#F39200"/>
</svg>
