<svg width="22" height="22" viewBox="0 0 22 22" fill="none" xmlns="http://www.w3.org/2000/svg">
<path d="M20.9018 16.9973L16.1593 12.6853C15.9352 12.4815 15.6406 12.3728 15.3378 12.3822C15.035 12.3916 14.7477 12.5182 14.5365 12.7354L11.7447 15.6066C11.0727 15.4783 9.72166 15.0571 8.331 13.6699C6.94033 12.2781 6.51916 10.9236 6.39433 10.2563L9.26316 7.46327C9.48064 7.25225 9.60749 6.9649 9.61685 6.66201C9.62622 6.35913 9.51736 6.06449 9.31333 5.84044L5.0025 1.0991C4.79838 0.874354 4.51469 0.738026 4.21167 0.719074C3.90866 0.700122 3.61019 0.800039 3.37966 0.997604L0.847996 3.16877C0.646292 3.37121 0.525902 3.64063 0.509662 3.92594C0.492162 4.2176 0.158496 11.1266 5.51583 16.4863C10.1895 21.1588 16.0438 21.5006 17.6562 21.5006C17.8918 21.5006 18.0365 21.4936 18.075 21.4913C18.3603 21.4753 18.6295 21.3544 18.831 21.1518L21.001 18.6189C21.1993 18.3891 21.3 18.0909 21.2815 17.7879C21.2629 17.4849 21.1267 17.2012 20.9018 16.9973V16.9973Z" fill="#F39200"/>
</svg>
