<svg width="100" height="42" viewBox="0 0 100 42" fill="none" xmlns="http://www.w3.org/2000/svg">
<g clip-path="url(#clip0_310_103)">
<path fill-rule="evenodd" clip-rule="evenodd" d="M0.117188 7.98242V32.2819L24.9125 7.98242H0.117188Z" fill="#92CFAE"/>
<path fill-rule="evenodd" clip-rule="evenodd" d="M1.88867 34.0182H26.684V9.71875L1.88867 34.0182Z" fill="#2A8288"/>
<path fill-rule="evenodd" clip-rule="evenodd" d="M40.6118 20.4356C43.4947 20.4356 45.0274 19.052 45.0274 16.4669V16.3208C45.0274 13.5536 43.4216 12.4614 40.6118 12.4614H37.6192V20.4356H40.6118ZM31.7441 7.98242H40.7577C47.1072 7.98242 50.7201 10.786 50.7201 16.2849V16.4301C50.7201 21.9284 46.8886 24.5505 40.94 24.5505H37.6192V34.0175H31.7441V7.98242Z" fill="#373737"/>
<path fill-rule="evenodd" clip-rule="evenodd" d="M62.4158 29.5387C65.2444 29.5387 66.6767 28.3007 66.6767 25.9336V25.7883C66.6767 23.4577 65.2444 22.1833 62.2727 22.1833H58.9785V29.5387H62.4158ZM62.6308 34.0175H53.25V7.98242H69.9348V12.5706H59.0146L58.9785 18.0322H62.8095C68.7173 18.0322 72.226 20.6177 72.226 25.8244V25.9704C72.226 31.0679 68.968 34.0175 62.6308 34.0175Z" fill="#373737"/>
<path fill-rule="evenodd" clip-rule="evenodd" d="M76.4961 8.01878H82.665V19.2183L92.1846 7.98242H98.734L87.9579 20.3091L99.2673 34.0175H92.0703L82.665 22.3453V34.0175H76.4961V8.01878Z" fill="#373737"/>
</g>
<defs>
<clipPath id="clip0_310_103">
<rect width="100" height="42" fill="white" transform="translate(0.00195312)"/>
</clipPath>
</defs>
</svg>
