<svg width="156" height="42" viewBox="0 0 156 42" fill="none" xmlns="http://www.w3.org/2000/svg">
<g clip-path="url(#clip0_310_114)">
<path fill-rule="evenodd" clip-rule="evenodd" d="M63.208 1.01953C62.6042 2.29019 62.0886 3.40992 61.5426 4.51537C59.0304 9.59187 56.5405 14.6786 53.9757 19.7276C53.3456 20.9676 53.3253 22.0058 53.9625 23.2642C56.8626 28.9852 59.6787 34.749 62.5191 40.4986C62.7349 40.9371 62.9203 41.394 63.1928 41.9997H0V1.01953H63.208ZM56.0198 5.48213H4.4247V37.477H55.9611C55.6542 36.7998 55.4242 36.2563 55.1629 35.7291C53.1065 31.5449 51.0806 27.3444 48.9634 23.1918C48.3506 21.9884 48.3556 20.9748 48.9736 19.7938C50.2975 17.2627 51.5263 14.6806 52.7864 12.1148C53.8399 9.96716 54.8813 7.81744 56.0198 5.48213" fill="#AD475C"/>
<path fill-rule="evenodd" clip-rule="evenodd" d="M20.9096 32.3155L15.7981 25.2566H14.8014V32.3155H9.16211V10.1045H17.9821C20.4133 10.1045 22.3714 10.7001 23.8574 11.8922C25.3424 13.0854 26.1164 14.9261 26.1782 17.4144C26.1782 21.3477 24.7336 23.7717 21.8456 24.6926L27.8607 32.3166H20.9117L20.9096 32.3155ZM14.8014 20.4248H18.0733C19.1734 20.4248 19.9524 20.0026 20.4092 19.1552C20.8651 18.3087 20.8651 17.4603 20.4092 16.6138C19.9534 15.7674 19.1734 15.3442 18.0723 15.3442H14.8004V20.4268V20.4248H14.8014ZM45.7256 16.878C45.7054 17.4858 45.5048 18.1466 45.1178 18.8564C44.7411 19.5589 44.1595 20.1284 43.4515 20.488C44.8018 21.1774 45.7044 22.0993 46.1592 23.2506C46.6181 24.402 46.7528 25.5105 46.5654 26.5751C45.9627 30.4045 43.3451 32.3166 38.7118 32.3166H29.7043V10.1035H38.5568C40.7164 10.1035 42.4669 10.7154 43.807 11.9391C45.1482 13.1608 45.7895 14.8068 45.7266 16.88L45.7256 16.878ZM35.3162 18.7931H38.5578C39.4107 18.7931 40.0185 18.4627 40.3842 17.8039C40.7458 17.1441 40.7519 16.4884 40.3984 15.8276C40.0479 15.1657 39.435 14.8384 38.5608 14.8384H35.3193V18.7931H35.3162ZM35.3162 27.39H38.5578C39.6174 27.39 40.3609 27.0096 40.7884 26.2437C41.2138 25.4829 41.2108 24.7222 40.7752 23.9696C40.3346 23.2149 39.5971 22.8397 38.5598 22.8397H35.3183V27.391L35.3162 27.39Z" fill="#AD475C"/>
<path d="M71.6518 29.1476L67.924 23.9977H67.1967V29.1476H63.084V12.9493H69.5164C71.2891 12.9493 72.7174 13.3837 73.8013 14.2526C74.8852 15.1225 75.4484 16.4655 75.493 18.2808C75.493 21.1484 74.4395 22.9177 72.3325 23.5888L76.7207 29.1487H71.6518V29.1476ZM67.1947 20.4754H69.5823C70.3855 20.4754 70.9538 20.1653 71.2861 19.5494C71.6204 18.9314 71.6204 18.3134 71.2861 17.6954C70.9518 17.0774 70.3845 16.7694 69.5823 16.7694H67.1957V20.4754H67.1947ZM81.424 12.9493V23.7254C81.424 24.2149 81.5841 24.6279 81.9031 24.9726C82.2202 25.3153 82.6021 25.5233 83.0508 25.6018C83.4966 25.6783 83.9494 25.6783 84.4032 25.6018C84.859 25.5243 85.2439 25.3163 85.563 24.9726C85.8801 24.6279 86.0412 24.2139 86.0412 23.7254V12.9483H90.1539V23.7254C90.1539 24.5494 90.007 25.301 89.7112 25.9792C89.4428 26.6225 89.0351 27.1973 88.5179 27.6618C87.9998 28.1166 87.4221 28.4975 86.8009 28.7938C86.1667 29.1046 85.4809 29.2948 84.778 29.3546C84.074 29.4158 83.3649 29.4158 82.6527 29.3546C81.9463 29.2948 81.2568 29.1047 80.6187 28.7938C80.0005 28.4992 79.4269 28.1181 78.9148 27.6618C78.4215 27.2213 78.0315 26.6583 77.7438 25.9792C77.4551 25.302 77.3123 24.5494 77.3123 23.7254V12.9483H81.425L81.424 12.9493ZM91.5416 26.4483L94.1095 24.0212C94.4134 24.4036 94.7943 24.7248 95.2573 24.9828C95.7202 25.2408 96.1791 25.4111 96.6329 25.4856C97.0887 25.5621 97.5203 25.5804 97.9275 25.5417C98.3367 25.5039 98.6771 25.3785 98.9506 25.1643C99.2221 24.9522 99.3659 24.6748 99.3821 24.3403C99.3973 23.912 99.1309 23.5633 98.5859 23.2879C98.0419 23.0126 97.3906 22.8219 96.6309 22.7168C95.2228 22.4864 94.0437 21.9347 93.0976 21.0566C92.1515 20.1796 91.6774 19.0171 91.6774 17.5669C91.6774 16.0576 92.2487 14.8716 93.3924 14.0078C94.537 13.1461 95.9046 12.7168 97.4949 12.7168C99.7539 12.7168 101.587 13.5785 102.997 15.3009L100.337 17.3609C99.8206 16.7988 99.1599 16.3909 98.4279 16.182C97.7006 15.976 97.0675 15.9913 96.5285 16.2279C95.9917 16.4645 95.7141 16.8888 95.6979 17.4986C95.7445 18.1982 96.4576 18.7019 97.8353 19.0079C98.4877 19.1282 99.0559 19.2587 99.5391 19.3954C100.025 19.5341 100.532 19.7421 101.062 20.0256C101.591 20.3081 102.02 20.6355 102.348 21.0087C102.672 21.383 102.936 21.8714 103.131 22.4741C103.328 23.0758 103.41 23.7591 103.381 24.5209C103.343 25.4949 102.969 26.4252 102.324 27.1519C101.681 27.9052 100.861 28.4838 99.9382 28.8346C99.0063 29.1935 98.0318 29.375 97.0178 29.375C96.0322 29.375 95.0526 29.1201 94.0842 28.6173C93.1158 28.1136 92.271 27.3905 91.5437 26.4452L91.5416 26.4483ZM116.566 17.8892C116.55 18.3328 116.404 18.8141 116.123 19.3322C115.848 19.8448 115.424 20.2602 114.907 20.5223C115.892 21.025 116.55 21.6971 116.882 22.5363C117.217 23.3756 117.315 24.1843 117.178 24.9614C116.739 27.7536 114.83 29.1487 111.451 29.1487H104.882V12.9493H111.337C112.912 12.9493 114.19 13.396 115.166 14.2873C116.145 15.1786 116.612 16.3799 116.566 17.8912V17.8892ZM108.974 19.2863H111.338C111.96 19.2863 112.404 19.0446 112.67 18.5653C112.934 18.0839 112.938 17.6046 112.681 17.1233C112.425 16.6409 111.978 16.4023 111.34 16.4023H108.976V19.2863H108.974ZM108.974 25.5559H111.338C112.111 25.5559 112.653 25.2786 112.965 24.7197C113.275 24.1649 113.273 23.6102 112.955 23.0615C112.634 22.5108 112.096 22.2375 111.339 22.2375H108.976V25.5559H108.974ZM126.408 12.9483L132.159 29.1487H127.795L126.749 25.8996H122.454L121.453 29.1497H117.087L122.703 12.9503H126.408V12.9483ZM123.362 22.259H125.773L124.659 17.5241H124.545L123.363 22.26L123.362 22.259ZM131.955 26.4483L134.522 24.0212C134.826 24.4036 135.207 24.7248 135.67 24.9828C136.134 25.2408 136.592 25.4111 137.048 25.4856C137.502 25.5621 137.934 25.5804 138.341 25.5417C138.751 25.5039 139.091 25.3785 139.364 25.1643C139.636 24.9522 139.78 24.6748 139.796 24.3403C139.811 23.912 139.545 23.5633 139 23.2879C138.456 23.0126 137.804 22.8219 137.045 22.7168C135.637 22.4864 134.458 21.9347 133.511 21.0566C132.564 20.1796 132.09 19.0171 132.09 17.5669C132.09 16.0576 132.662 14.8716 133.805 14.0078C134.95 13.1461 136.317 12.7168 137.908 12.7168C140.167 12.7168 142 13.5785 143.41 15.3009L140.75 17.3609C140.233 16.799 139.572 16.3911 138.84 16.182C138.112 15.976 137.479 15.9913 136.94 16.2279C136.404 16.4645 136.126 16.8888 136.11 17.4986C136.156 18.1982 136.869 18.7019 138.247 19.0079C138.9 19.1282 139.468 19.2587 139.951 19.3954C140.437 19.5341 140.944 19.7421 141.473 20.0256C142.003 20.3081 142.432 20.6355 142.76 21.0087C143.084 21.383 143.347 21.8714 143.543 22.4741C143.74 23.0758 143.822 23.7591 143.793 24.5209C143.755 25.4949 143.381 26.4252 142.736 27.1519C142.077 27.9167 141.28 28.4776 140.349 28.8346C139.417 29.1935 138.443 29.375 137.429 29.375C136.443 29.375 135.463 29.1201 134.495 28.6173C133.528 28.1136 132.684 27.3905 131.956 26.4452L131.955 26.4483ZM149.413 16.7909V19.3097H155.937V22.8555H149.413V25.2806H156.506V29.1487H145.298V12.9493H156.504V16.7939L149.41 16.7919L149.413 16.7909Z" fill="#373737"/>
</g>
<defs>
<clipPath id="clip0_310_114">
<rect width="156" height="42" fill="white"/>
</clipPath>
</defs>
</svg>
