<svg width="45" height="42" viewBox="0 0 45 42" fill="none" xmlns="http://www.w3.org/2000/svg">
<path d="M36.1087 19.363C39.4438 19.363 41.9546 17.9739 43.8059 15.5556L41.3316 13.6683C40.7205 14.4735 39.9305 15.1259 39.0242 15.574C38.1178 16.022 37.1198 16.2535 36.1087 16.2502C32.4891 16.2502 29.8664 13.3021 29.8664 9.6846C29.8664 6.06721 32.4463 2.95311 36.2119 2.95311C37.8858 2.95311 39.0688 3.34818 40.1008 3.98736V7.16816H43.2144V2.53034L42.6178 2.061C40.9062 0.714679 38.2922 0 36.1074 0C30.7662 0 26.4218 4.34345 26.4218 9.68337C26.4218 15.0183 30.7636 19.363 36.1074 19.363H36.1087ZM42.5688 38.4631L42.458 34.0051V23.1264H35.964V26.2406H39.1783V33.6214C39.1783 36.8009 36.7493 39.0519 34.2989 39.0519C31.8485 39.0519 30.5698 37.3533 30.5698 34.175V23.1251H24.5037V26.2393H27.2901V34.7148C27.2901 39.028 29.709 42 34.0233 42C36.5026 42 38.3904 40.6247 39.5168 38.5045H39.5671L40.0114 41.469H45.0015V38.4669H42.5725V38.4606L42.5688 38.4631ZM25.7044 0.456748H20.2927L15.5857 14.1212H15.5127L10.8309 0.456748H5.06435V3.57212H8.30761L13.8892 19.1466H16.8543V19.1428L22.6751 3.57339H25.7019V0.458015L25.7044 0.456748ZM0 41.5093H3.20676V38.3045H0.00125849V41.5093H0ZM12.384 26.7375H12.3488L12.1474 23.1264H6.42358V25.965H9.46925V38.4643H6.42358V41.4677H20.5695V38.5234H12.6936V30.9803C13.0498 28.25 15.0974 25.9184 17.8913 25.9184H17.9417L17.885 28.7092H20.9987V23.0748H18.537C15.7179 23.0672 13.6261 24.5923 12.3828 26.7388L12.384 26.7375Z" fill="#373737"/>
</svg>
